SplineFontDB: 3.2
FontName: TDAText
FullName: TDAText
FamilyName: TDAText
Weight: Condensed
Copyright: Copyright (c) 2024-2025 Dmitry Tretyakov\n\nBased on Philips SAA52XX/SAA55XX/TDA93XX IC character set:\nCopyright (c) 1993-2001 NXP Semiconductors N.V.

StartChar: exclam
Encoding: 33 33 4
Width: 375
Flags: HW
HStem: 0 100<149.5 225.5> 680 20G<149.5 225.5>
VStem: 150 75<0 100 200 700>
LayerCount: 2
Back
Fore
SplineSet
150 700 m 29
 226 700 l 25
 226 200 l 25
 150 200 l 25
 150 700 l 29
226 0 m 25
 150 0 l 1
 150 100 l 25
 226 100 l 1
 226 0 l 25
EndSplineSet
EndChar

StartChar: asterisk
Encoding: 42 42 5
Width: 375
Flags: HW
HStem: 0 21G<149.5 225.5> 100 100<-0.5 37.5 337.5 375.5> 300 100<112.5 149.5 225.5 262.5> 500 100<-0.5 37.5 337.5 375.5> 680 20G<149.5 225.5>
VStem: -0 75<100 200 500 600> 38 75<200 300 400 500> 150 75<0 300 400 700> 262 75<200 300 400 500> 300 75<100 200 500 600>
LayerCount: 2
Back
Fore
SplineSet
-0 600 m 29xfd
 76 600 l 25
 76 500 l 25xfd
 112 500 l 25
 113 400 l 25
 150 400 l 25
 150 700 l 25
 226 700 l 25
 226 400 l 25
 262 400 l 25
 262 500 l 25xfb80
 300 500 l 25
 300 600 l 25
 376 600 l 25
 376 500 l 25xf940
 337 500 l 25
 337 400 l 25xf980
 300 400 l 25
 300 300 l 25xf940
 337 300 l 25
 337 200 l 25xf980
 376 200 l 25
 376 100 l 25
 300 100 l 25
 300 200 l 25xf940
 262 200 l 25
 262 300 l 25
 226 300 l 25
 226 0 l 25
 150 0 l 25
 150 300 l 25
 113 300 l 25
 113 200 l 25xfb80
 76 200 l 25
 76 100 l 25
 -0 100 l 25
 -0 200 l 25xfd
 38 200 l 25
 38 300 l 25xfb
 76 300 l 25
 76 400 l 25xfd
 38 400 l 25
 38 500 l 25xfb
 -0 500 l 25
 -0 600 l 29xfd
EndSplineSet
EndChar

StartChar: plus
Encoding: 43 43 6
Width: 375
Flags: HW
HStem: 250 100<37.5 149.5 225.5 337.5>
VStem: 150 75<50 250 350 550>
LayerCount: 2
Back
Fore
SplineSet
150 550 m 29
 226 550 l 25
 226 350 l 25
 338 350 l 25
 338 250 l 25
 226 250 l 25
 226 50 l 25
 150 50 l 25
 150 250 l 25
 38 250 l 25
 38 350 l 25
 150 350 l 25
 150 550 l 29
EndSplineSet
EndChar

StartChar: comma
Encoding: 44 44 7
Width: 368
Flags: HW
HStem: -200 100<128 165> 0 100<128 165>
VStem: 128 75<-200 -100> 165 75<-100 0>
LayerCount: 2
Back
Fore
SplineSet
128 -100 m 5xe0
 165 -100 l 29
 165 0 l 5xd0
 128 0 l 29
 128 100 l 29xe0
 240 100 l 29
 240 -100 l 29xd0
 203 -100 l 29
 203 -200 l 29
 128 -200 l 29
 128 -100 l 5xe0
EndSplineSet
EndChar

StartChar: hyphen
Encoding: 45 45 8
Width: 375
Flags: HW
HStem: 250 100<37.5 337.5>
LayerCount: 2
Back
Fore
SplineSet
38 250 m 29
 38 350 l 25
 338 350 l 25
 338 250 l 25
 38 250 l 29
EndSplineSet
EndChar

StartChar: period
Encoding: 46 46 9
Width: 375
Flags: HW
HStem: 0 100<149.5 225.5>
VStem: 150 75<0 100>
LayerCount: 2
Back
Fore
SplineSet
226 0 m 29
 150 0 l 29
 150 100 l 29
 226 100 l 29
 226 0 l 29
EndSplineSet
EndChar

StartChar: slash
Encoding: 47 47 10
Width: 375
Flags: HW
HStem: 0 100<37.5 75.5> 600 100<299.5 337.5>
VStem: 38 75<0 100> 76 75<100 200> 112 75<200 300> 150 75<300 400> 188 75<400 500> 226 75<500 600> 262 75<600 700>
LayerCount: 2
Back
Fore
SplineSet
263 700 m 29xc080
 337 700 l 25
 337 600 l 25xc080
 300 600 l 25
 300 500 l 25xc1
 263 500 l 25
 263 400 l 25xc2
 226 400 l 25
 226 300 l 25xc4
 187 300 l 25
 187 200 l 25xc8
 150 200 l 25
 150 100 l 25xd0
 113 100 l 25
 113 0 l 25
 38 0 l 25
 38 100 l 25xe0
 76 100 l 25
 76 200 l 25xd0
 113 200 l 25
 113 300 l 25xc8
 150 300 l 25
 150 400 l 25xc4
 187 400 l 25
 187 500 l 25xc2
 226 500 l 25
 226 600 l 25xc1
 263 600 l 25
 263 700 l 29xc080
EndSplineSet
EndChar

StartChar: zero
Encoding: 48 48 11
Width: 381
Flags: HW
HStem: 0 100<134.5 246.5> 600 100<134.5 246.5>
VStem: 22 112<100 600> 246 112<100 600>
LayerCount: 2
Back
Fore
SplineSet
246 600 m 29
 134 600 l 25
 134 100 l 25
 246 100 l 25
 246 600 l 29
60 700 m 25
 322 700 l 25
 322 600 l 25
 360 600 l 25
 360 100 l 25
 322 100 l 25
 322 0 l 25
 60 0 l 25
 60 100 l 25
 22 100 l 25
 22 600 l 25
 60 600 l 25
 60 700 l 25
EndSplineSet
EndChar

StartChar: one
Encoding: 49 49 12
Width: 381
Flags: HW
HStem: 0 21G<171.5 284.5> 500 100<96.5 171.5> 680 20G<171.5 284.5>
VStem: 172 112<0 500 600 700>
LayerCount: 2
Back
Fore
SplineSet
96 500 m 29
 96 600 l 29
 172 600 l 29
 172 700 l 29
 284 700 l 29
 284 0 l 29
 172 0 l 29
 172 500 l 29
 96 500 l 29
EndSplineSet
EndChar

StartChar: two
Encoding: 50 50 13
Width: 381
Flags: HW
HStem: 0 100<21.5 59.5 209.5 359.5> 500 100<21.5 59.5> 600 100<96.5 246.5>
VStem: 22 75<500 600> 210 112<300 400> 246 112<400 600>
LayerCount: 2
Back
Fore
SplineSet
97 500 m 29xd4
 22 500 l 1
 22 600 l 25
 60 600 l 25xd4
 60 700 l 25
 322 700 l 25
 322 600 l 25xb8
 360 600 l 25
 360 400 l 25xb4
 322 400 l 25
 322 300 l 25
 284 300 l 25
 284 200 l 25
 210 200 l 25
 210 100 l 25xb8
 360 100 l 25
 360 0 l 25xb4
 22 0 l 25
 22 100 l 25
 60 100 l 25
 60 200 l 25
 134 200 l 25
 134 300 l 25
 210 300 l 25
 210 400 l 25xb8
 246 400 l 25
 246 600 l 25
 97 600 l 1xb4
 97 500 l 29xd4
EndSplineSet
EndChar

StartChar: three
Encoding: 51 51 14
Width: 381
Flags: HW
HStem: 0 100<21.5 284.5> 300 100<134.5 209.5> 600 100<21.5 246.5 321.5 359.5>
VStem: 210 75<400 500> 246 75<500 600> 284 75<100 300>
CounterMasks: 1 e0
LayerCount: 2
Back
Fore
SplineSet
22 700 m 29xe8
 359 700 l 25
 359 600 l 25xe4
 321 600 l 25
 321 500 l 25xe8
 285 500 l 25
 285 400 l 25xf0
 359 400 l 25
 359 100 l 25xe4
 321 100 l 25
 321 0 l 25xe8
 22 0 l 25
 22 100 l 25
 285 100 l 25
 285 300 l 25xe4
 134 300 l 25
 134 400 l 25
 210 400 l 25
 210 500 l 25xf0
 246 500 l 25
 246 600 l 25
 22 601 l 25
 22 700 l 29xe8
EndSplineSet
EndChar

StartChar: four
Encoding: 52 52 15
Width: 381
Flags: HW
HStem: 0 21G<246.5 359.5> 100 100<134.5 246.5> 600 100<321.5 359.5>
VStem: 22 112<200 300> 60 112<300 400> 134 112<400 500> 246 112<0 100 200 300 600 700>
LayerCount: 2
Back
Fore
SplineSet
246 700 m 29xea
 360 700 l 25
 360 600 l 25xea
 322 600 l 25
 322 500 l 25
 246 500 l 25
 246 400 l 25xe4
 172 400 l 25
 172 300 l 25xe8
 134 300 l 25
 134 200 l 25
 246 200 l 25
 246 300 l 25
 360 300 l 25
 360 0 l 25
 246 0 l 25
 246 100 l 25
 22 100 l 25
 22 300 l 25xf2
 60 300 l 25
 60 400 l 25xe8
 134 400 l 25
 134 500 l 25xe4
 172 500 l 25
 172 600 l 25
 246 600 l 25
 246 700 l 29xea
EndSplineSet
EndChar

StartChar: five
Encoding: 53 53 16
Width: 381
Flags: HW
HStem: 0 100<96.5 246.5> 100 100<21.5 59.5> 300 100<96.5 246.5> 600 100<96.5 321.5>
VStem: 22 75<100 200 400 600> 246 112<100 300>
LayerCount: 2
Back
Fore
SplineSet
322 700 m 29xbc
 322 600 l 25
 97 600 l 25
 97 400 l 25
 322 400 l 25
 322 300 l 25
 360 300 l 25
 360 100 l 25
 322 100 l 25x7c
 322 0 l 25
 60 0 l 25xbc
 60 100 l 25
 22 100 l 25
 22 200 l 25
 97 200 l 25x7c
 97 100 l 25
 246 100 l 25
 246 300 l 25
 22 300 l 25
 22 700 l 25
 322 700 l 29xbc
EndSplineSet
EndChar

StartChar: six
Encoding: 54 54 17
Width: 381
Flags: HW
HStem: 0 100<133.5 284.5> 300 100<171.5 284.5> 600 100<209.5 246.5>
VStem: 22 112<100 300> 60 112<400 500> 96 112<500 600> 134 112<600 700> 284 75<100 300>
CounterMasks: 1 e0
LayerCount: 2
Back
Fore
SplineSet
284 300 m 29xf1
 134 300 l 25
 134 100 l 25
 284 100 l 25
 284 300 l 29xf1
246 700 m 25xe3
 246 600 l 25xe3
 210 600 l 25
 210 500 l 25xe5
 172 500 l 25
 172 400 l 25
 322 400 l 25
 322 300 l 25
 359 300 l 25
 359 100 l 25
 322 100 l 25
 322 0 l 25
 60 0 l 25
 60 100 l 25xe9
 22 100 l 25
 22 400 l 25xf1
 60 400 l 25
 60 500 l 25xe9
 96 500 l 25
 96 600 l 25xe5
 134 600 l 25
 134 700 l 25
 246 700 l 25xe3
EndSplineSet
EndChar

StartChar: seven
Encoding: 55 55 18
Width: 375
Flags: HW
HStem: 0 100<37.5 75.5> 600 100<-0.5 225.5 337.5 375.5>
VStem: 38 112<0 100> 76 112<100 200> 112 112<200 300> 150 112<300 400> 188 112<400 500> 226 112<500 600>
LayerCount: 2
Back
Fore
SplineSet
-0 700 m 1xc1
 376 700 l 25
 376 600 l 25
 338 600 l 25
 338 500 l 25xc1
 300 500 l 25
 300 400 l 25xc2
 262 400 l 25
 262 300 l 25xc4
 226 300 l 25
 226 200 l 25xc8
 188 200 l 25
 188 100 l 25xd0
 150 100 l 25
 150 0 l 25
 38 0 l 25
 38 100 l 25xe0
 76 100 l 25
 76 200 l 25xd0
 112 200 l 25
 112 300 l 25xc8
 150 300 l 25
 150 400 l 25xc4
 188 400 l 25
 188 500 l 25xc2
 226 500 l 25
 226 600 l 1
 -0 600 l 25
 -0 700 l 1xc1
EndSplineSet
EndChar

StartChar: eight
Encoding: 56 56 19
Width: 381
Flags: HW
HStem: 0 100<134.5 246.5> 300 100<134.5 246.5> 600 100<134.5 246.5>
VStem: 22 112<100 300 400 600> 246 112<100 300 400 600>
CounterMasks: 1 e0
LayerCount: 2
Back
Fore
SplineSet
134 100 m 29
 246 100 l 25
 246 300 l 25
 134 300 l 25
 134 100 l 29
134 600 m 25
 134 400 l 25
 246 400 l 25
 246 600 l 25
 134 600 l 25
60 700 m 25
 322 700 l 25
 322 600 l 25
 360 600 l 25
 360 400 l 25
 284 400 l 25
 284 300 l 25
 360 300 l 25
 360 100 l 25
 322 100 l 25
 322 0 l 25
 60 0 l 25
 60 100 l 25
 22 100 l 25
 22 300 l 25
 96 300 l 25
 96 400 l 25
 22 400 l 25
 22 600 l 25
 60 600 l 25
 60 700 l 25
EndSplineSet
EndChar

StartChar: nine
Encoding: 57 57 20
Width: 381
Flags: HW
HStem: 0 100<134.5 171.5> 300 100<96.5 209.5> 600 100<96.5 246.5>
VStem: 22 75<400 600> 134 112<0 100> 172 112<100 200> 210 112<200 300> 246 112<400 600>
CounterMasks: 1 e0
LayerCount: 2
Back
Fore
SplineSet
97 600 m 29xf1
 97 400 l 25
 246 400 l 25
 246 600 l 25
 97 600 l 29xf1
60 600 m 25
 60 700 l 25
 322 700 l 25
 322 600 l 25xf2
 360 600 l 25
 360 300 l 25xf1
 322 300 l 25
 322 200 l 25xf2
 284 200 l 25
 284 100 l 25xf4
 246 100 l 25
 246 0 l 25
 134 0 l 25
 134 100 l 25xf8
 172 100 l 25
 172 200 l 25xf4
 210 200 l 25
 210 300 l 25xf2
 60 300 l 25
 60 400 l 25
 22 400 l 25
 22 600 l 25
 60 600 l 25
EndSplineSet
EndChar

StartChar: colon
Encoding: 58 58 21
Width: 375
Flags: HW
HStem: 0 21G<149.5 225.5> 480 20G<149.5 224.5>
VStem: 150 75<0 200 300 500>
LayerCount: 2
Back
Fore
SplineSet
150 200 m 29
 226 200 l 25
 226 0 l 25
 150 0 l 25
 150 200 l 29
150 500 m 25
 225 500 l 25
 226 300 l 25
 150 300 l 25
 150 500 l 25
EndSplineSet
EndChar

StartChar: semicolon
Encoding: 59 59 22
Width: 368
Flags: HW
HStem: -200 100<128 165> 480 20G<165 240>
VStem: 128 75<-200 -100> 165 75<-100 100 300 500>
LayerCount: 2
Back
Fore
SplineSet
165 100 m 1xd0
 240 100 l 25
 240 -100 l 1xd0
 203 -100 l 25
 203 -200 l 25
 128 -200 l 25
 128 -100 l 25xe0
 165 -100 l 25
 165 100 l 1xd0
165 500 m 25
 240 500 l 25
 240 300 l 25
 165 300 l 25
 165 500 l 25
EndSplineSet
EndChar

StartChar: less
Encoding: 60 60 23
Width: 381
Flags: HW
HStem: 0 100<284.5 359.5> 100 100<209.5 246.5> 200 100<134.5 171.5> 300 100<21.5 96.5> 400 100<134.5 171.5> 500 100<209.5 246.5> 600 100<284.5 359.5>
VStem: 22 112<300 400> 96 112<200 300 400 500> 172 112<100 200 500 600> 246 112<0 100 600 700>
LayerCount: 2
Back
Fore
SplineSet
246 700 m 29x0220
 360 700 l 25
 360 600 l 25x0220
 284 600 l 25x0240
 284 500 l 25x0440
 210 500 l 25x0480
 210 400 l 25x0880
 134 400 l 25
 134 300 l 25x29
 210 300 l 25
 210 200 l 25x5080
 284 200 l 25
 284 100 l 25xa040
 360 100 l 25
 360 0 l 25
 246 0 l 25xa020
 246 100 l 25x4020
 172 100 l 25x4040
 172 200 l 25x2040
 96 200 l 25x2080
 96 300 l 25x1080
 22 300 l 25
 22 400 l 25x11
 96 400 l 25
 96 500 l 25x1480
 172 500 l 25
 172 600 l 25x0a40
 246 600 l 25x0420
 246 700 l 29x0220
EndSplineSet
EndChar

StartChar: equal
Encoding: 61 61 24
Width: 375
Flags: HW
HStem: 200 100<37.5 337.5> 400 100<37.5 337.5>
LayerCount: 2
Back
Fore
SplineSet
38 500 m 29
 338 500 l 25
 338 400 l 25
 38 400 l 25
 38 500 l 29
38 300 m 25
 338 300 l 25
 338 200 l 25
 38 200 l 25
 38 300 l 25
EndSplineSet
EndChar

StartChar: greater
Encoding: 62 62 25
Width: 381
Flags: HW
HStem: 0 100<21.5 96.5> 100 100<134.5 171.5> 200 100<209.5 246.5> 300 100<284.5 359.5> 400 100<209.5 246.5> 500 100<134.5 171.5> 600 100<21.5 96.5>
VStem: 22 112<0 100 600 700> 96 112<100 200 500 600> 172 112<200 300 400 500> 246 112<300 400>
LayerCount: 2
Back
Fore
SplineSet
22 600 m 29x03
 22 700 l 25
 134 700 l 25x03
 134 600 l 25x05
 210 600 l 25
 210 500 l 25x0a80
 284 500 l 25
 284 400 l 25x1440
 360 400 l 25
 360 300 l 25x1420
 284 300 l 25x1440
 284 200 l 25x2040
 210 200 l 25x2080
 210 100 l 25x4080
 134 100 l 25x41
 134 0 l 25
 22 0 l 25
 22 100 l 25x81
 96 100 l 25
 96 200 l 25xa080
 172 200 l 25
 172 300 l 25x5040
 246 300 l 25
 246 400 l 25x2820
 172 400 l 25x2840
 172 500 l 25x0440
 96 500 l 25x0480
 96 600 l 25x0280
 22 600 l 29x03
EndSplineSet
EndChar

StartChar: question
Encoding: 63 63 26
Width: 381
Flags: HW
HStem: 0 100<171.5 246.5> 200 100<171.5 246.5> 300 100<246.5 284.5> 600 100<96.5 284.5>
VStem: 22 75<400 600> 172 75<0 100 200 300> 246 75<300 400> 284 75<400 600>
LayerCount: 2
Back
Fore
SplineSet
172 300 m 1xdc
 247 300 l 1
 247 200 l 1
 172 200 l 1
 172 300 l 1xdc
247 0 m 25
 172 0 l 1
 172 100 l 25
 247 100 l 1
 247 0 l 25
22 600 m 25
 60 600 l 25
 60 700 l 25
 321 700 l 25
 321 600 l 25xba
 359 600 l 25
 359 400 l 25xb9
 321 400 l 25
 321 300 l 25xba
 247 300 l 25xdc
 247 400 l 25xba
 284 400 l 25
 284 600 l 25
 97 600 l 25
 97 400 l 25
 22 400 l 25xb9
 22 600 l 25
EndSplineSet
EndChar

StartChar: at
Encoding: 64 64 27
Width: 375
Flags: HW
HStem: -100 100<112.5 337.5> 100 100<225.5 299.5> 400 100<225.5 299.5> 600 100<112.5 299.5>
VStem: -0 75<100 500> 38 75<0 100 500 600> 150 75<200 400> 188 188<100 200 400 500> 300 75<200 400 500 600>
LayerCount: 2
Back
Fore
SplineSet
226 400 m 29xf280
 226 200 l 25
 300 200 l 25
 300 400 l 25
 226 400 l 29xf280
76 600 m 25xf8
 76 700 l 25
 338 700 l 25
 338 600 l 25
 376 600 l 25xf880
 376 100 l 25
 188 100 l 25
 188 200 l 25xf1
 150 200 l 25
 150 400 l 25xf2
 188 400 l 25
 188 500 l 25xf1
 300 500 l 25
 300 600 l 25
 113 600 l 25
 113 500 l 25xf480
 76 500 l 25
 76 100 l 25xf8
 113 100 l 25
 113 0 l 25xf4
 338 0 l 25
 338 -100 l 25
 76 -100 l 25
 76 0 l 25xf8
 38 0 l 25
 38 100 l 25xf4
 -0 100 l 25
 -0 500 l 25xf8
 38 500 l 25
 38 600 l 25xf4
 76 600 l 25xf8
EndSplineSet
EndChar

StartChar: A
Encoding: 65 65 28
Width: 375
Flags: HW
HStem: 0 21G<-0.5 75.5 299.5 375.5> 200 100<75.5 299.5> 600 100<149.5 225.5>
VStem: -0 75<0 200 300 400> 38 75<400 500> 76 75<500 600> 226 75<500 600> 262 75<400 500> 300 75<0 200 300 400>
LayerCount: 2
Back
Fore
SplineSet
76 400 m 29xf0
 76 300 l 25
 300 300 l 25
 300 400 l 25xf080
 262 400 l 25
 262 500 l 25xe1
 226 500 l 25
 226 600 l 25
 150 600 l 25
 150 500 l 25xe6
 113 500 l 25
 113 400 l 25xe8
 76 400 l 29xf0
76 0 m 25
 -0 0 l 25
 -0 400 l 25xf080
 38 400 l 25
 38 500 l 25xe8
 76 500 l 25
 76 600 l 25xe4
 113 600 l 25
 113 700 l 25
 262 700 l 25
 262 600 l 25xe9
 300 600 l 25
 300 500 l 25xe2
 337 500 l 25
 337 400 l 25xe1
 376 400 l 25
 376 0 l 25
 300 0 l 25
 300 200 l 25
 76 200 l 25
 76 0 l 25
EndSplineSet
EndChar

StartChar: B
Encoding: 66 66 29
Width: 381
Flags: HW
HStem: 0 100<96.5 284.5> 300 100<96.5 284.5> 600 100<96.5 284.5>
VStem: 22 300<0 100 300 400 600 700> 22 75<100 300 400 600> 284 75<100 300 400 600>
CounterMasks: 1 e0
LayerCount: 2
Back
Fore
SplineSet
97 600 m 29xec
 97 400 l 25
 284 400 l 25
 284 600 l 25
 97 600 l 29xec
97 300 m 25
 97 100 l 25
 284 100 l 25
 284 300 l 25
 97 300 l 25
22 0 m 25xf0
 22 700 l 25
 322 700 l 25
 322 600 l 25xf0
 359 600 l 25
 359 400 l 25xe4
 322 400 l 25
 322 300 l 25xf0
 359 300 l 25
 359 100 l 25xe4
 322 100 l 25
 322 0 l 25
 22 0 l 25xf0
EndSplineSet
EndChar

StartChar: C
Encoding: 67 67 30
Width: 381
Flags: HW
HStem: 0 100<134.5 284.5> 100 100<321.5 359.5> 500 100<321.5 359.5> 600 100<134.5 284.5>
VStem: 22 75<200 500> 60 75<100 200 500 600> 96 225<0 100 600 700> 284 75<100 200 500 600>
LayerCount: 2
Back
Fore
SplineSet
97 700 m 29x12
 321 700 l 25x12
 321 600 l 25x22
 359 600 l 25
 359 500 l 25
 284 500 l 25x21
 284 600 l 25
 135 600 l 25x15
 135 500 l 25x25
 97 500 l 25
 97 200 l 25x68
 135 200 l 25x64
 135 100 l 25
 284 100 l 25x85
 284 200 l 25
 359 200 l 25
 359 100 l 25x45
 321 100 l 25x42
 321 0 l 25
 97 0 l 25x82
 97 100 l 25x42
 60 100 l 25
 60 200 l 25x44
 22 200 l 25
 22 500 l 25x68
 60 500 l 25x64
 60 600 l 25x14
 97 600 l 25
 97 700 l 29x12
EndSplineSet
EndChar

StartChar: D
Encoding: 68 68 31
Width: 381
Flags: HW
HStem: 0 100<96.5 246.5> 600 100<96.5 246.5>
VStem: 22 75<100 600> 246 75<100 200 500 600> 284 75<200 500>
LayerCount: 2
Back
Fore
SplineSet
97 600 m 29xf0
 97 100 l 25
 246 100 l 25
 246 200 l 25xf0
 284 200 l 25
 284 500 l 25xe8
 246 500 l 25
 246 600 l 25
 97 600 l 29xf0
22 700 m 25
 284 700 l 25
 284 600 l 25xe8
 321 600 l 25
 321 500 l 25xf0
 359 500 l 25
 359 200 l 25xe8
 321 200 l 25
 321 100 l 25xf0
 284 100 l 25
 284 0 l 25xe8
 22 0 l 25
 22 700 l 25
EndSplineSet
EndChar

StartChar: E
Encoding: 69 69 32
Width: 381
Flags: HW
HStem: 0 100<96.5 359.5> 300 100<96.5 284.5> 600 100<96.5 359.5>
VStem: 22 75<100 300 400 600>
CounterMasks: 1 e0
LayerCount: 2
Back
Fore
SplineSet
360 600 m 29
 97 600 l 25
 97 400 l 25
 284 400 l 25
 284 300 l 25
 97 300 l 25
 97 100 l 25
 360 100 l 25
 360 0 l 25
 22 0 l 25
 22 700 l 25
 360 700 l 25
 360 600 l 29
EndSplineSet
EndChar

StartChar: F
Encoding: 70 70 33
Width: 381
Flags: HW
HStem: 0 21G<21.5 96.5> 300 100<96.5 284.5> 600 100<96.5 359.5>
VStem: 22 75<0 300 400 600>
LayerCount: 2
Back
Fore
SplineSet
97 0 m 29
 22 0 l 25
 22 700 l 25
 360 700 l 25
 360 600 l 25
 97 600 l 25
 97 400 l 25
 284 400 l 25
 284 300 l 25
 97 300 l 25
 97 0 l 29
EndSplineSet
EndChar

StartChar: G
Encoding: 71 71 34
Width: 381
Flags: HW
HStem: 0 100<96.5 284.5> 200 100<171.5 284.5> 500 100<321.5 359.5> 600 100<96.5 284.5>
VStem: 22 75<100 600> 284 75<100 200 500 600>
LayerCount: 2
Back
Fore
SplineSet
284 600 m 29xdc
 97 600 l 25
 97 100 l 25
 284 100 l 25
 284 200 l 25
 172 200 l 25
 172 300 l 25
 359 300 l 25
 359 100 l 25
 322 100 l 25
 322 0 l 25
 60 0 l 25
 60 100 l 25
 22 100 l 25
 22 600 l 25
 60 600 l 25
 60 700 l 25
 322 700 l 25xdc
 322 600 l 25
 359 600 l 25
 359 500 l 25
 284 500 l 25xec
 284 600 l 29xdc
EndSplineSet
EndChar

StartChar: H
Encoding: 72 72 35
Width: 381
Flags: HW
HStem: 0 21G<21.5 96.5 284.5 359.5> 300 100<96.5 284.5> 680 20G<21.5 96.5 284.5 359.5>
VStem: 22 75<0 300 400 700> 284 75<0 300 400 700>
LayerCount: 2
Back
Fore
SplineSet
22 700 m 29
 97 700 l 25
 97 400 l 25
 284 400 l 25
 284 700 l 25
 359 700 l 25
 359 0 l 25
 284 0 l 25
 284 300 l 25
 97 300 l 25
 97 0 l 25
 22 0 l 25
 22 700 l 29
EndSplineSet
EndChar

StartChar: I
Encoding: 73 73 36
Width: 375
Flags: HW
HStem: 0 100<37.5 149.5 225.5 337.5> 600 100<37.5 149.5 225.5 337.5>
VStem: 150 75<100 600>
LayerCount: 2
Back
Fore
SplineSet
38 700 m 29
 338 700 l 25
 338 600 l 25
 226 600 l 25
 226 100 l 25
 338 100 l 25
 338 0 l 25
 38 0 l 25
 38 100 l 25
 150 100 l 25
 150 600 l 25
 38 600 l 25
 38 700 l 29
EndSplineSet
EndChar

StartChar: J
Encoding: 74 74 37
Width: 381
Flags: HW
HStem: 0 100<96.5 284.5> 100 100<21.5 59.5> 680 20G<284.5 359.5>
VStem: 22 75<100 200> 284 75<100 700>
LayerCount: 2
Back
Fore
SplineSet
284 700 m 29xb8
 359 700 l 25
 359 100 l 25
 322 100 l 25x78
 322 0 l 25
 60 0 l 25xb8
 60 100 l 25
 22 100 l 25
 22 200 l 25
 97 200 l 25x78
 97 100 l 25
 284 100 l 25
 284 700 l 29xb8
EndSplineSet
EndChar

StartChar: K
Encoding: 75 75 38
Width: 381
Flags: HW
HStem: 0 100<284.5 359.5> 200 100<171.5 209.5> 300 100<96.5 134.5> 400 100<171.5 209.5> 600 100<284.5 359.5>
VStem: 22 75<0 300 400 700> 134 112<200 300 400 500> 210 75<100 200 500 600> 246 112<0 100 600 700>
LayerCount: 2
Back
Fore
SplineSet
22 700 m 29xae
 97 700 l 25
 97 400 l 25
 134 400 l 25xae
 134 500 l 25x9e
 210 500 l 25
 210 600 l 25x9d
 246 600 l 25
 246 700 l 25
 360 700 l 25
 360 600 l 25x9c80
 285 600 l 25
 285 500 l 25x9d
 246 500 l 25
 246 400 l 25
 172 400 l 25
 172 300 l 25xde
 246 300 l 25xae
 246 200 l 25xce
 285 200 l 25
 285 100 l 25xcd
 360 100 l 25
 360 0 l 25
 246 0 l 25
 246 100 l 25xcc80
 210 100 l 25
 210 200 l 25xcd
 134 200 l 25xce
 134 300 l 25
 97 300 l 25
 97 0 l 25
 22 0 l 25
 22 700 l 29xae
EndSplineSet
EndChar

StartChar: L
Encoding: 76 76 39
Width: 381
Flags: HW
HStem: 0 100<96.5 359.5> 680 20G<21.5 96.5>
VStem: 22 75<100 700>
LayerCount: 2
Back
Fore
SplineSet
22 700 m 29
 97 700 l 25
 97 100 l 25
 360 100 l 25
 360 0 l 25
 22 0 l 25
 22 700 l 29
EndSplineSet
EndChar

StartChar: M
Encoding: 77 77 40
Width: 375
Flags: HW
HStem: 0 21G<-0.5 75.5 299.5 375.5> 680 20G<-0.5 112.5 262.5 375.5>
VStem: -0 112<600 700> -0 75<0 500> 150 75<300 400> 262 112<600 700> 300 75<0 500>
LayerCount: 2
Back
Fore
SplineSet
76 0 m 29xd8
 -0 0 l 25xd8
 -0 700 l 25
 112 700 l 25
 112 600 l 25
 150 600 l 25
 150 500 l 25
 226 500 l 25
 226 600 l 25
 262 600 l 25
 262 700 l 25
 376 700 l 25xec
 376 0 l 25
 300 0 l 25
 300 500 l 25xca
 262 500 l 25
 262 400 l 25
 226 400 l 25
 226 300 l 25
 150 300 l 25
 150 400 l 25
 112 400 l 25
 112 500 l 25xec
 76 500 l 25
 76 0 l 29xd8
EndSplineSet
EndChar

StartChar: N
Encoding: 78 78 41
Width: 375
Flags: HW
HStem: 0 21G<-0.5 75.5 262.5 375.5> 680 20G<-0.5 112.5 299.5 375.5>
VStem: -0 112<600 700> -0 75<0 500> 112 75<400 500> 150 75<300 400> 188 75<200 300> 262 112<0 100> 300 75<200 700>
LayerCount: 2
Back
Fore
SplineSet
-0 700 m 29xe0
 112 700 l 25
 112 600 l 25
 150 600 l 25
 150 500 l 25xe4
 187 500 l 25
 187 400 l 25xc8
 226 400 l 25
 226 300 l 25xc4
 263 300 l 25
 263 200 l 25
 300 200 l 25
 300 700 l 25
 376 700 l 25xc280
 376 0 l 25
 263 0 l 25
 263 100 l 25
 226 100 l 25
 226 200 l 25xc5
 187 200 l 25
 187 300 l 25xc2
 150 300 l 25
 150 400 l 25xc4
 112 400 l 25
 112 500 l 25
 76 500 l 25
 76 0 l 25
 -0 0 l 25xd8
 -0 700 l 29xe0
EndSplineSet
EndChar

StartChar: O
Encoding: 79 79 42
Width: 375
Flags: HW
HStem: 0 100<112.5 262.5> 600 100<112.5 262.5>
VStem: -0 75<200 500> 38 75<100 200 500 600> 76 225<0 100 600 700> 262 75<100 200 500 600> 300 75<200 500>
LayerCount: 2
Back
Fore
SplineSet
262 100 m 29xd4
 262 200 l 25xd4
 300 200 l 25
 300 500 l 25xc2
 262 500 l 25
 262 600 l 25
 113 600 l 25
 113 500 l 25xd4
 76 500 l 25
 76 200 l 25xe0
 113 200 l 25
 113 100 l 25
 262 100 l 29xd4
300 0 m 25xc8
 76 0 l 25
 76 100 l 25xc8
 38 100 l 25
 38 200 l 25xd0
 -0 200 l 25
 -0 500 l 25xe0
 38 500 l 25
 38 600 l 25xd0
 76 600 l 25
 76 700 l 25
 300 700 l 25
 300 600 l 25xc8
 337 600 l 25
 337 500 l 25xc4
 376 500 l 25
 376 200 l 25xc2
 337 200 l 25
 337 100 l 25xc4
 300 100 l 25
 300 0 l 25xc8
EndSplineSet
EndChar

StartChar: P
Encoding: 80 80 43
Width: 381
Flags: HW
HStem: 0 21G<21.5 96.5> 300 100<96.5 284.5> 600 100<96.5 284.5>
VStem: 22 75<0 300 400 600> 284 75<400 600>
LayerCount: 2
Back
Fore
SplineSet
97 600 m 29
 97 400 l 25
 284 400 l 25
 284 600 l 25
 97 600 l 29
22 700 m 25
 322 700 l 25
 322 650 l 25
 359 650 l 25
 359 400 l 25
 322 400 l 25
 322 300 l 25
 97 300 l 25
 97 0 l 25
 22 0 l 25
 22 700 l 25
EndSplineSet
EndChar

StartChar: Q
Encoding: 81 81 44
Width: 375
Flags: HW
HStem: -200 100<299.5 375.5> 0 100<75.5 187.5> 600 100<75.5 299.5>
VStem: -0 75<100 600> 188 75<100 200> 226 75<-100 0> 262 112<-200 -100> 300 75<100 600>
LayerCount: 2
Back
Fore
SplineSet
76 600 m 29xf9
 76 100 l 25
 188 100 l 25
 188 200 l 25
 263 200 l 25
 263 100 l 25
 300 100 l 25
 300 600 l 25
 76 600 l 29xf9
38 700 m 25
 338 700 l 25
 338 600 l 25
 376 600 l 25
 376 100 l 25xf1
 338 100 l 25
 338 0 l 25
 300 0 l 25
 300 -100 l 25xf4
 376 -100 l 25
 376 -200 l 25
 263 -200 l 25
 263 -100 l 25xf2
 226 -100 l 25
 226 0 l 25xf4
 38 0 l 25
 38 100 l 25
 -0 100 l 25
 -0 600 l 25
 38 600 l 25
 38 700 l 25
EndSplineSet
EndChar

StartChar: R
Encoding: 82 82 45
Width: 381
Flags: HW
HStem: 0 100<284.5 359.5> 300 100<96.5 171.5 246.5 284.5> 600 100<96.5 284.5>
VStem: 22 75<0 300 400 600> 172 75<200 300> 210 75<100 200> 246 112<0 100> 284 75<400 600>
CounterMasks: 1 e0
LayerCount: 2
Back
Fore
SplineSet
97 600 m 29xf1
 97 400 l 25
 285 400 l 25
 285 600 l 25
 97 600 l 29xf1
22 700 m 25
 322 700 l 25
 322 650 l 25
 359 650 l 25
 359 400 l 25
 322 400 l 25
 322 300 l 25
 247 300 l 25
 247 200 l 25xf9
 285 200 l 25
 285 100 l 25xf4
 359 100 l 25
 359 0 l 25
 247 0 l 25
 247 100 l 25xf2
 210 100 l 25
 210 200 l 25xf4
 172 200 l 25
 172 300 l 25xf8
 97 300 l 25
 97 0 l 25
 22 0 l 25
 22 700 l 25
EndSplineSet
EndChar

StartChar: S
Encoding: 83 83 46
Width: 381
Flags: HW
HStem: 0 100<59.5 284.5> 300 100<96.5 284.5> 600 100<96.5 321.5>
VStem: 22 75<400 600> 60 262<0 100 300 400 600 700> 284 75<100 300>
CounterMasks: 1 e0
LayerCount: 2
Back
Fore
SplineSet
60 600 m 29xe8
 60 700 l 25
 322 700 l 25
 322 600 l 25xe8
 97 600 l 25
 97 400 l 25xf0
 322 400 l 25
 322 300 l 25xe8
 359 300 l 25
 359 100 l 25xe4
 322 100 l 25
 322 0 l 25
 60 0 l 25
 60 100 l 25xe8
 284 100 l 25
 284 300 l 25xe4
 60 300 l 25
 60 400 l 25xe8
 22 400 l 25
 22 600 l 25xf0
 60 600 l 29xe8
EndSplineSet
EndChar

StartChar: T
Encoding: 84 84 47
Width: 375
Flags: HW
HStem: 0 21G<149.5 225.5> 600 100<-0.5 149.5 225.5 375.5>
VStem: 150 75<0 600>
LayerCount: 2
Back
Fore
SplineSet
-0 700 m 1
 376 700 l 5
 376 600 l 1
 226 600 l 1
 226 0 l 25
 150 0 l 25
 150 600 l 1
 -0 600 l 1
 -0 700 l 1
EndSplineSet
EndChar

StartChar: U
Encoding: 85 85 48
Width: 381
Flags: HW
HStem: 0 100<96.5 284.5> 680 20G<21.5 96.5 284.5 359.5>
VStem: 22 75<100 700> 284 75<100 700>
LayerCount: 2
Back
Fore
SplineSet
22 700 m 29
 97 700 l 25
 97 100 l 25
 284 100 l 25
 284 700 l 25
 359 700 l 25
 359 100 l 25
 322 100 l 25
 322 0 l 25
 60 0 l 25
 60 100 l 25
 22 100 l 25
 22 700 l 29
EndSplineSet
EndChar

StartChar: V
Encoding: 86 86 49
Width: 387
Flags: HW
HStem: 0 21G<155.5 231.5> 680 20G<5.5 81.5 305.5 381.5>
VStem: 6 75<500 700> 44 75<300 500> 82 75<200 300> 156 75<0 100> 232 75<200 300> 268 75<300 500> 306 75<500 700>
LayerCount: 2
Back
Fore
SplineSet
6 700 m 29xe0
 82 700 l 25
 82 500 l 25xe0
 119 500 l 25
 119 300 l 25xd0
 156 300 l 25
 156 200 l 25
 232 200 l 25
 232 300 l 25xca
 268 300 l 25
 268 500 l 25xc1
 306 500 l 25
 306 700 l 25
 382 700 l 25
 382 500 l 25xc080
 343 500 l 25
 343 300 l 25xc1
 306 300 l 25
 306 200 l 25xc2
 268 200 l 25
 268 100 l 25
 232 100 l 25
 232 0 l 25
 156 0 l 25
 156 100 l 25
 119 100 l 25
 119 200 l 25xd5
 82 200 l 25
 82 300 l 25xc8
 44 300 l 25
 44 500 l 25xd0
 6 500 l 25
 6 700 l 29xe0
EndSplineSet
EndChar

StartChar: W
Encoding: 87 87 50
Width: 375
Flags: HW
HStem: 0 21G<37.5 112.5 262.5 337.5> 680 20G<-0.5 75.5 299.5 375.5>
VStem: -0 75<200 700> 38 112<100 200> 38 75<0 100> 150 75<300 400> 226 112<100 200> 262 75<0 100> 300 75<200 700>
LayerCount: 2
Back
Fore
SplineSet
-0 700 m 29xe0
 76 700 l 25
 76 200 l 25xe0
 113 200 l 25
 113 300 l 25
 150 300 l 25
 150 400 l 25
 226 400 l 25
 226 300 l 25
 262 300 l 25
 262 200 l 25xcd
 300 200 l 25
 300 700 l 25
 376 700 l 25
 376 200 l 25xc080
 338 200 l 25xc2
 338 0 l 25
 262 0 l 25
 262 100 l 25xc1
 226 100 l 25
 226 200 l 25
 150 200 l 25
 150 100 l 25xd2
 113 100 l 25
 113 0 l 25
 38 0 l 25xc8
 38 200 l 25xd0
 -0 200 l 25
 -0 700 l 29xe0
EndSplineSet
EndChar

StartChar: X
Encoding: 88 88 51
Width: 375
Flags: HW
HStem: 0 100<37.5 75.5 299.5 337.5> 600 100<37.5 75.5 299.5 337.5>
VStem: 38 75<0 100 600 700> 76 75<100 200 500 600> 112 150<200 300 400 500> 226 75<100 200 500 600> 262 75<0 100 600 700>
LayerCount: 2
Back
Fore
SplineSet
38 700 m 29xe0
 113 700 l 25
 113 600 l 25xe0
 150 600 l 25
 150 500 l 25
 226 500 l 25
 226 600 l 25xd4
 262 600 l 25
 262 700 l 25
 337 700 l 25
 337 600 l 25xc2
 300 600 l 25
 300 500 l 25xc4
 262 500 l 25
 262 400 l 25xc8
 226 400 l 25
 226 300 l 25xc4
 262 300 l 25
 262 200 l 25xc8
 300 200 l 25
 300 100 l 25xc4
 337 100 l 25
 337 0 l 25
 262 0 l 25
 262 100 l 25xc2
 226 100 l 25
 226 200 l 25
 150 200 l 25
 150 100 l 25xd4
 113 100 l 25
 113 0 l 25
 38 0 l 25
 38 100 l 25xe0
 76 100 l 25
 76 200 l 25xd0
 113 200 l 25
 113 300 l 25xc8
 150 300 l 25
 150 400 l 25xd0
 113 400 l 25
 113 500 l 25xc8
 76 500 l 25
 76 600 l 25xd0
 38 600 l 25
 38 700 l 29xe0
EndSplineSet
EndChar

StartChar: Y
Encoding: 89 89 52
Width: 375
Flags: HW
HStem: 0 21G<149.5 225.5> 600 100<-0.5 37.5 337.5 375.5>
VStem: -0 75<600 700> 38 75<500 600> 76 75<400 500> 150 75<0 300> 226 75<400 500> 262 75<500 600> 300 75<600 700>
LayerCount: 2
Back
Fore
SplineSet
-0 700 m 29xe0
 76 700 l 25
 76 600 l 25xe0
 113 600 l 25
 113 500 l 25xd0
 150 500 l 25
 150 400 l 25
 226 400 l 25
 226 500 l 25xca
 262 500 l 25
 262 600 l 25xc1
 300 600 l 25
 300 700 l 25
 376 700 l 25
 376 600 l 25xc080
 337 600 l 25
 337 500 l 25xc1
 300 500 l 25
 300 400 l 25xc2
 262 400 l 25
 262 300 l 25
 226 300 l 25
 226 0 l 25
 150 0 l 25
 150 300 l 25
 113 300 l 25
 113 400 l 25xd5
 76 400 l 25
 76 500 l 25xc8
 38 500 l 25
 38 600 l 25xd0
 -0 600 l 25
 -0 700 l 29xe0
EndSplineSet
EndChar

StartChar: Z
Encoding: 90 90 53
Width: 375
Flags: HW
HStem: 0 100<37.5 75.5 149.5 337.5> 600 100<37.5 225.5 299.5 337.5>
VStem: 76 75<100 200> 112 75<200 300> 150 75<300 400> 188 75<400 500> 226 75<500 600>
LayerCount: 2
Back
Fore
SplineSet
38 700 m 29xc2
 338 700 l 25
 338 600 l 25
 300 600 l 25
 300 500 l 25xc2
 263 500 l 25
 263 400 l 25xc4
 226 400 l 25
 226 300 l 25xc8
 187 300 l 25
 187 200 l 25xd0
 150 200 l 25
 150 100 l 25
 338 100 l 25
 338 0 l 25
 38 0 l 25
 38 100 l 25
 76 100 l 25
 76 200 l 25xe0
 112 200 l 25
 112 300 l 25xd0
 150 300 l 25
 150 400 l 25xc8
 187 400 l 25
 187 500 l 25xc4
 226 500 l 25
 226 600 l 25
 38 600 l 25
 38 700 l 29xc2
EndSplineSet
EndChar

StartChar: a
Encoding: 97 97 54
Width: 375
Flags: HW
HStem: 0 100<75.5 262.5 337.5 374.5> 100 100<-0.5 37.5> 200 100<75.5 262.5> 400 100<37.5 262.5>
VStem: -0 75<100 200> 262 75<100 200 300 400>
LayerCount: 2
Back
Fore
SplineSet
76 200 m 29xbc
 76 100 l 25
 262 100 l 25
 262 200 l 25
 76 200 l 29xbc
38 500 m 25
 300 500 l 25
 300 400 l 25
 337 400 l 25
 337 100 l 25
 374 100 l 25
 376 0 l 25
 38 0 l 25xbc
 38 100 l 25
 -0 100 l 25
 -0 200 l 25
 38 200 l 25x5c
 38 300 l 25
 262 300 l 25
 262 400 l 25
 38 400 l 25
 38 500 l 25
EndSplineSet
EndChar

StartChar: b
Encoding: 98 98 55
Width: 381
Flags: HW
HStem: 0 100<96.5 284.5> 300 100<96.5 134.5> 400 100<134.5 284.5> 680 20G<21.5 96.5>
VStem: 22 112<300 400> 22 75<100 300 400 700> 284 75<100 400>
LayerCount: 2
Back
Fore
SplineSet
284 400 m 29xb6
 134 400 l 25
 134 300 l 25xda
 97 300 l 25xd6
 97 100 l 25
 284 100 l 25
 284 400 l 29xb6
22 700 m 25xb6
 97 700 l 25
 97 400 l 25xd6
 134 400 l 25xda
 134 500 l 25xba
 322 500 l 25
 322 400 l 25
 359 400 l 25
 359 100 l 25
 322 100 l 25
 322 0 l 25
 22 0 l 25
 22 700 l 25xb6
EndSplineSet
EndChar

StartChar: c
Encoding: 99 99 56
Width: 381
Flags: HW
HStem: 0 100<134.5 359.5> 200 100<21.5 59.5> 400 100<134.5 359.5>
VStem: 22 75<200 300> 60 75<100 200 300 400>
CounterMasks: 1 e0
LayerCount: 2
Back
Fore
SplineSet
97 500 m 29xf0
 360 500 l 25
 360 400 l 25
 135 400 l 25
 135 300 l 25xe8
 97 300 l 25
 97 200 l 25xf0
 135 200 l 25
 135 100 l 25xe8
 360 100 l 25
 360 0 l 25
 97 0 l 25
 97 100 l 25xf0
 60 100 l 25
 60 200 l 25xe8
 22 200 l 25
 22 300 l 25xf0
 60 300 l 25
 60 400 l 25xe8
 97 400 l 25
 97 500 l 29xf0
EndSplineSet
EndChar

StartChar: d
Encoding: 100 100 57
Width: 381
Flags: HW
HStem: 0 100<96.5 284.5> 300 100<246.5 284.5> 400 100<96.5 246.5> 680 20G<284.5 359.5>
VStem: 22 75<100 400> 246 112<300 400> 284 75<100 300 400 700>
LayerCount: 2
Back
Fore
SplineSet
97 100 m 29xbc
 284 100 l 25
 284 300 l 25xda
 246 300 l 25
 246 400 l 25xdc
 97 400 l 25
 97 100 l 29xbc
284 700 m 25
 359 700 l 25
 359 0 l 25xda
 60 0 l 25
 60 100 l 25
 22 100 l 25
 22 400 l 25
 60 400 l 25
 60 500 l 25
 246 500 l 25xbc
 246 400 l 25xdc
 284 400 l 25
 284 700 l 25
EndSplineSet
EndChar

StartChar: e
Encoding: 101 101 58
Width: 381
Flags: HW
HStem: 0 100<96.5 321.5> 200 100<96.5 284.5> 400 100<96.5 284.5>
VStem: 22 75<100 200 300 400> 284 75<300 400>
CounterMasks: 1 e0
LayerCount: 2
Back
Fore
SplineSet
97 400 m 1
 97 300 l 1
 284 300 l 1
 284 400 l 1
 97 400 l 1
60 400 m 1
 60 500 l 1
 322 500 l 1
 322 400 l 25
 359 400 l 25
 359 200 l 1
 97 200 l 1
 97 100 l 1
 322 100 l 1
 322 0 l 1
 60 0 l 1
 60 100 l 1
 22 100 l 1
 22 400 l 5
 60 400 l 1
EndSplineSet
EndChar

StartChar: f
Encoding: 102 102 59
Width: 381
Flags: HW
HStem: 0 21G<96.5 171.5> 300 100<21.5 96.5 171.5 284.5> 600 100<171.5 359.5>
VStem: 96 75<0 300 400 600>
LayerCount: 2
Back
Fore
SplineSet
134 600 m 29
 134 700 l 25
 360 700 l 25
 360 600 l 25
 171 600 l 25
 171 400 l 25
 284 400 l 25
 284 300 l 25
 171 300 l 25
 171 0 l 25
 96 0 l 25
 96 300 l 25
 22 300 l 25
 22 400 l 25
 96 400 l 25
 96 600 l 25
 134 600 l 29
EndSplineSet
EndChar

StartChar: g
Encoding: 103 103 60
Width: 381
Flags: HW
HStem: -200 100<59.5 284.5> 0 100<96.5 246.5> 100 100<246.5 284.5> 300 100<246.5 284.5> 400 100<96.5 246.5>
VStem: 22 75<100 400> 60 188<0 100 400 498> 246 112<100 200 300 400> 284 75<-100 100 200 300 400 500>
LayerCount: 2
Back
Fore
SplineSet
97 400 m 29x8c
 97 100 l 25xcc
 246 100 l 25xca
 246 200 l 25xa1
 284 200 l 25
 284 300 l 25xb080
 246 300 l 25xb1
 246 400 l 25xb2
 97 400 l 29x8c
60 400 m 25xaa
 60 498 l 25xaa
 246 500 l 25xa9
 246 400 l 25
 284 400 l 25x9280
 284 500 l 25
 359 500 l 25
 359 -100 l 25
 322 -100 l 25
 322 -200 l 25
 60 -200 l 25
 60 -100 l 25
 284 -100 l 25
 284 100 l 25xaa80
 246 100 l 25
 246 0 l 25
 60 0 l 25xc280
 60 100 l 25xa280
 22 100 l 25
 22 400 l 25xac
 60 400 l 25xaa
EndSplineSet
EndChar

StartChar: h
Encoding: 104 104 61
Width: 381
Flags: HW
HStem: 0 21G<21.5 96.5 284.5 359.5> 300 100<96.5 134.5> 400 100<134.5 284.5> 680 20G<21.5 96.5>
VStem: 22 112<300 400> 22 75<0 300 400 700> 284 75<0 400>
LayerCount: 2
Back
Fore
SplineSet
22 700 m 29xd6
 97 700 l 25
 97 400 l 25xd6
 134 400 l 25xda
 134 500 l 25
 322 500 l 25
 322 400 l 25
 359 400 l 25
 359 0 l 25
 284 0 l 25
 284 400 l 25xba
 134 400 l 25
 134 300 l 25xda
 97 300 l 25
 97 0 l 25
 22 0 l 25
 22 700 l 29xd6
EndSplineSet
EndChar

StartChar: i
Encoding: 105 105 62
Width: 375
Flags: HW
HStem: 0 100<75.5 149.5 224.5 299.5> 400 100<112.5 149.5> 600 100<112.5 225.5>
VStem: 112 112<400 500 600 700> 150 75<100 400>
LayerCount: 2
Back
Fore
SplineSet
112 500 m 1xf0
 226 500 l 25xf0
 224 100 l 25
 300 100 l 25
 300 0 l 25
 76 0 l 25
 76 100 l 25
 150 100 l 25
 150 400 l 1xe8
 112 400 l 29
 112 500 l 1xf0
112 700 m 25
 226 700 l 25
 226 600 l 25
 112 600 l 25
 112 700 l 25
EndSplineSet
EndChar

StartChar: j
Encoding: 106 106 63
Width: 381
Flags: HW
HStem: -200 100<96.5 284.5> -100 100<21.5 59.5> 400 100<246.5 284.5> 600 100<246.5 358.5>
VStem: 22 75<-100 0> 246 112<400 500 600 700> 284 75<-100 400>
LayerCount: 2
Back
Fore
SplineSet
246 400 m 29xbc
 246 500 l 25
 359 500 l 25xbc
 359 -100 l 25
 322 -100 l 25x7a
 322 -200 l 25
 60 -200 l 25xba
 60 -100 l 25
 22 -100 l 25
 22 0 l 25
 97 0 l 25x7a
 97 -100 l 25
 284 -100 l 25
 284 400 l 25xba
 246 400 l 29xbc
246 700 m 25
 358 700 l 25
 359 600 l 25
 246 600 l 25
 246 700 l 25
EndSplineSet
EndChar

StartChar: k
Encoding: 107 107 64
Width: 375
Flags: HW
HStem: 0 100<262.5 337.5> 200 100<112.5 187.5> 400 100<262.5 337.5> 680 20G<37.5 112.5>
VStem: 38 75<0 200 300 700> 188 75<100 200 300 400> 226 112<0 100 400 500>
LayerCount: 2
Back
Fore
SplineSet
38 700 m 29xfc
 113 700 l 25
 113 300 l 25
 188 300 l 25
 188 400 l 25xfc
 226 400 l 25
 226 500 l 25
 338 500 l 25
 338 400 l 25xfa
 263 400 l 25
 263 300 l 25xfc
 226 300 l 25
 226 200 l 25xfa
 263 200 l 25
 263 100 l 25xfc
 338 100 l 25
 338 0 l 25
 226 0 l 25
 226 100 l 25xfa
 188 100 l 25
 188 200 l 25
 113 200 l 25
 113 0 l 25
 38 0 l 25
 38 700 l 29xfc
EndSplineSet
EndChar

StartChar: l
Encoding: 108 108 65
Width: 375
Flags: HW
HStem: 0 100<37.5 149.5 225.5 337.5> 650 100<75.5 149.5>
VStem: 150 75<100 650>
LayerCount: 2
Back
Fore
SplineSet
76 750 m 29
 226 750 l 25
 226 100 l 25
 338 100 l 25
 338 0 l 25
 38 0 l 25
 38 100 l 25
 150 100 l 25
 150 650 l 25
 76 650 l 25
 76 750 l 29
EndSplineSet
EndChar

StartChar: m
Encoding: 109 109 66
Width: 375
Flags: HW
HStem: 0 21G<-0.5 75.5 149.5 225.5 299.5 375.5> 400 100<75.5 149.5 225.5 299.5>
VStem: -0 75<0 400> 150 75<0 400> 300 75<0 400>
CounterMasks: 1 38
LayerCount: 2
Back
Fore
SplineSet
-0 0 m 29
 -0 500 l 25
 336 500 l 25
 338 400 l 25
 376 400 l 25
 376 0 l 25
 300 0 l 25
 300 400 l 25
 226 400 l 25
 226 0 l 25
 150 0 l 25
 150 400 l 25
 76 400 l 25
 76 0 l 25
 -0 0 l 29
EndSplineSet
EndChar

StartChar: n
Encoding: 110 110 67
Width: 381
Flags: HW
HStem: 0 21G<21.5 96.5 284.5 359.5> 300 100<96.5 134.5> 400 100<134.5 284.5>
VStem: 22 112<300 400> 22 75<0 300 400 500> 284 75<0 400>
LayerCount: 2
Back
Fore
SplineSet
22 0 m 29xcc
 22 500 l 25
 97 500 l 25xac
 97 400 l 25xcc
 134 400 l 25xd4
 134 500 l 25
 322 500 l 25
 322 400 l 25
 359 400 l 25
 359 0 l 25
 284 0 l 25
 284 400 l 25xb4
 134 400 l 25
 134 300 l 25xd4
 97 300 l 25
 97 0 l 25
 22 0 l 29xcc
EndSplineSet
EndChar

StartChar: o
Encoding: 111 111 68
Width: 381
Flags: HW
HStem: 0 100<96.5 284.5> 400 100<96.5 284.5>
VStem: 22 75<100 400> 284 75<100 400>
LayerCount: 2
Back
Fore
SplineSet
97 400 m 29
 97 100 l 25
 284 100 l 25
 284 400 l 25
 97 400 l 29
60 500 m 25
 322 500 l 25
 322 400 l 25
 359 400 l 25
 359 100 l 25
 322 100 l 25
 322 0 l 25
 60 0 l 25
 60 100 l 25
 22 100 l 25
 22 400 l 25
 60 400 l 25
 60 500 l 25
EndSplineSet
EndChar

StartChar: p
Encoding: 112 112 69
Width: 381
Flags: HW
HStem: -200 21G<21.5 96.5> 0 100<134.5 284.5> 100 100<96.5 134.5> 300 100<96.5 134.5> 400 100<134.5 284.5>
VStem: 22 112<100 200 300 400> 22 75<-200 100 200 300 400 500> 134 188<0 100 400 500> 284 75<100 400>
LayerCount: 2
Back
Fore
SplineSet
134 300 m 29x9480
 97 300 l 25
 97 200 l 25xb2
 134 200 l 25xb4
 134 100 l 25
 284 100 l 25
 284 400 l 25xcc80
 134 400 l 25
 134 300 l 29x9480
22 500 m 25xaa
 97 500 l 25xaa
 97 400 l 25x92
 134 400 l 25x94
 134 500 l 25
 322 500 l 25
 322 400 l 25x89
 359 400 l 25
 359 100 l 25xa880
 322 100 l 25xa9
 322 0 l 25
 134 0 l 25xc1
 134 100 l 25xc4
 97 100 l 25
 97 -200 l 25
 22 -200 l 25
 22 500 l 25xaa
EndSplineSet
EndChar

StartChar: q
Encoding: 113 113 70
Width: 381
Flags: HW
HStem: -200 21G<284.5 359.5> 0 100<96.5 246.5> 100 100<246.5 284.5> 300 100<246.5 284.5> 400 100<96.5 246.5>
VStem: 22 75<100 400> 60 188<0 100 400 500> 246 112<100 200 300 400> 284 75<-200 100 200 300 400 500>
LayerCount: 2
Back
Fore
SplineSet
97 400 m 29x8c
 97 100 l 25xcc
 246 100 l 25xca
 246 200 l 25xa1
 284 200 l 25
 284 300 l 25xb080
 246 300 l 25xb1
 246 400 l 25xb2
 97 400 l 29x8c
60 500 m 25xaa
 246 500 l 25xaa
 246 400 l 25
 284 400 l 25x9280
 284 500 l 25
 359 500 l 25
 359 -200 l 25
 284 -200 l 25
 284 100 l 25xaa80
 246 100 l 25
 246 0 l 25
 60 0 l 25xc280
 60 100 l 25xa280
 22 100 l 25
 22 400 l 25xac
 60 400 l 25
 60 500 l 25xaa
EndSplineSet
EndChar

StartChar: r
Encoding: 114 114 71
Width: 381
Flags: HW
HStem: 0 21G<21.5 96.5> 300 100<96.5 171.5> 400 100<171.5 359.5>
VStem: 22 75<0 300 400 500>
LayerCount: 2
Back
Fore
SplineSet
22 0 m 29xd0
 22 500 l 25
 97 500 l 25xb0
 97 400 l 25
 172 400 l 25xd0
 172 500 l 25
 360 500 l 25
 360 400 l 25xb0
 172 400 l 25
 172 300 l 25
 97 300 l 25
 97 0 l 25
 22 0 l 29xd0
EndSplineSet
EndChar

StartChar: s
Encoding: 115 115 72
Width: 381
Flags: HW
HStem: 0 100<59.5 284.5> 100 100<321.5 359.5> 200 100<96.5 284.5> 300 100<21.5 59.5> 400 100<96.5 321.5>
VStem: 22 75<300 400> 60 262<0 100 200 300 400 500> 284 75<100 200>
LayerCount: 2
Back
Fore
SplineSet
322 400 m 1x0a
 97 400 l 1
 97 300 l 1x2c
 322 300 l 1
 322 200 l 25x52
 359 200 l 25
 359 100 l 25x51
 322 100 l 25x52
 322 0 l 1
 60 0 l 5
 60 100 l 1x82
 284 100 l 1
 284 200 l 1xa1
 60 200 l 1xa2
 60 300 l 1x12
 22 300 l 1
 22 400 l 1x14
 60 400 l 1x12
 60 500 l 1
 322 500 l 1
 322 400 l 1x0a
EndSplineSet
EndChar

StartChar: t
Encoding: 116 116 73
Width: 381
Flags: HW
HStem: 0 100<171.5 359.5> 400 100<21.5 96.5 171.5 284.5> 680 20G<96.5 171.5>
VStem: 96 75<100 400 500 700>
LayerCount: 2
Back
Fore
SplineSet
96 700 m 25
 171 700 l 25
 171 500 l 1
 284 500 l 5
 284 400 l 1
 171 400 l 1
 171 100 l 25
 360 100 l 25
 360 0 l 25
 134 0 l 25
 134 100 l 25
 96 100 l 25
 96 400 l 25
 22 400 l 25
 22 500 l 25
 96 500 l 25
 96 700 l 25
EndSplineSet
EndChar

StartChar: u
Encoding: 117 117 74
Width: 381
Flags: HW
HStem: 0 100<96.5 246.5> 100 100<246.5 284.5> 480 20G<21.5 96.5 284.5 359.5>
VStem: 22 75<100 500> 246 112<100 200> 284 75<0 100 200 500>
LayerCount: 2
Back
Fore
SplineSet
22 500 m 29x78
 97 500 l 25
 97 100 l 25
 246 100 l 25xb8
 246 200 l 25x78
 284 200 l 25x74
 284 500 l 25
 359 500 l 25
 359 0 l 25
 284 0 l 25xb4
 284 100 l 25x74
 246 100 l 25
 246 0 l 25
 60 0 l 25xb8
 60 100 l 25
 22 100 l 25
 22 500 l 29x78
EndSplineSet
EndChar

StartChar: v
Encoding: 118 118 75
Width: 375
Flags: HW
HStem: 0 21G<149.5 225.5> 400 100<-0.5 37.5 337.5 375.5>
VStem: -0 75<400 500> 38 75<300 400> 76 75<200 300> 150 75<0 100> 226 75<200 300> 262 75<300 400> 300 75<400 500>
LayerCount: 2
Back
Fore
SplineSet
-0 500 m 29xe0
 76 500 l 25
 76 400 l 25xe0
 113 400 l 25
 113 300 l 25xd0
 150 300 l 25
 150 200 l 25
 226 200 l 25
 226 300 l 25xca
 262 300 l 25
 262 400 l 25xc1
 300 400 l 25
 300 500 l 25
 376 500 l 25
 376 400 l 25xc080
 337 400 l 25
 337 300 l 25xc1
 300 300 l 25
 300 200 l 25xc2
 262 200 l 25
 262 100 l 25
 226 100 l 25
 226 0 l 25
 150 0 l 25
 150 100 l 25
 113 100 l 25
 113 200 l 25xd5
 76 200 l 25
 76 300 l 25xc8
 38 300 l 25
 38 400 l 25xd0
 -0 400 l 25
 -0 500 l 29xe0
EndSplineSet
EndChar

StartChar: w
Encoding: 119 119 76
Width: 375
Flags: HW
HStem: 0 100<112.5 149.5 225.5 262.5> 480 20G<-0.5 75.5 299.5 375.5>
VStem: -0 75<200 500> 38 75<100 200> 150 75<100 400> 262 75<100 200> 300 75<200 500>
LayerCount: 2
Back
Fore
SplineSet
300 500 m 29xca
 376 500 l 25
 376 200 l 25xca
 337 200 l 25
 337 100 l 25xcc
 300 100 l 25
 300 0 l 25
 226 0 l 25
 226 100 l 25
 150 100 l 25
 150 0 l 25
 76 0 l 25
 76 100 l 25xea
 38 100 l 25
 38 200 l 25xd8
 -0 200 l 25
 -0 500 l 25
 76 500 l 25
 76 200 l 25xe8
 113 200 l 25
 113 100 l 25
 150 100 l 25
 150 400 l 25
 226 400 l 25
 226 100 l 25
 262 100 l 25
 262 200 l 25xdc
 300 200 l 25
 300 500 l 29xca
EndSplineSet
EndChar

StartChar: x
Encoding: 120 120 77
Width: 375
Flags: HW
HStem: 0 100<-0.5 75.5 299.5 375.5> 200 100<149.5 225.5> 400 100<-0.5 75.5 299.5 375.5>
VStem: -0 112<0 100 400 500> 76 75<100 200 300 400> 226 75<100 200 300 400> 262 112<0 100 400 500>
CounterMasks: 1 e0
LayerCount: 2
Back
Fore
SplineSet
-0 500 m 29xf0
 112 500 l 25
 112 400 l 25xf0
 150 400 l 25
 150 300 l 25
 226 300 l 25
 226 400 l 25xec
 262 400 l 25
 262 500 l 25
 376 500 l 25
 376 400 l 25xe2
 300 400 l 25
 300 300 l 25xe4
 262 300 l 25
 262 200 l 25xe2
 300 200 l 25
 300 100 l 25xe4
 376 100 l 25
 376 0 l 25
 262 0 l 25
 262 100 l 25xe2
 226 100 l 25
 226 200 l 25
 150 200 l 25
 150 100 l 25xec
 112 100 l 25
 112 0 l 25
 -0 0 l 25
 -0 100 l 25xf0
 76 100 l 25
 76 200 l 25xe8
 112 200 l 25
 112 300 l 25xf0
 76 300 l 25
 76 400 l 25xe8
 -0 400 l 25
 -0 500 l 29xf0
EndSplineSet
EndChar

StartChar: y
Encoding: 121 121 78
Width: 381
Flags: HW
HStem: -200 100<21.5 96.5> 400 100<21.5 59.5 321.5 359.5>
VStem: 22 75<400 500> 60 75<300 400> 96 75<-100 0 200 300> 134 112<100 200> 134 75<0 100> 210 75<200 300> 246 75<300 400> 284 75<400 500>
LayerCount: 2
Back
Fore
SplineSet
22 500 m 29xe0
 97 500 l 25
 97 400 l 25xe0
 135 400 l 25
 135 300 l 25xd0
 171 300 l 25
 171 200 l 25
 209 200 l 25
 209 300 l 25xc9
 246 300 l 25
 246 400 l 25xc080
 285 400 l 25
 285 500 l 25
 359 500 l 25
 359 400 l 25xc040
 321 400 l 25
 321 300 l 25xc080
 285 300 l 25
 285 200 l 25xc1
 246 200 l 25
 246 100 l 25xc4
 209 100 l 25
 209 0 l 25xc2
 171 0 l 25
 171 -100 l 25xc8
 135 -100 l 25
 135 -200 l 25
 22 -200 l 25
 22 -100 l 25xe2
 97 -100 l 25
 97 0 l 25xc8
 135 0 l 25xc2
 135 200 l 25xc4
 97 200 l 25
 97 300 l 25xc8
 60 300 l 25
 60 400 l 25xd0
 22 400 l 25
 22 500 l 29xe0
EndSplineSet
EndChar

StartChar: z
Encoding: 122 122 79
Width: 375
Flags: HW
HStem: 0 100<37.5 112.5 187.5 337.5> 400 100<37.5 187.5 262.5 337.5>
VStem: 112 75<100 200> 150 75<200 300> 188 75<300 400>
LayerCount: 2
Back
Fore
SplineSet
38 500 m 29xc8
 338 500 l 25
 338 400 l 25
 263 400 l 25
 263 300 l 25xc8
 226 300 l 25
 226 200 l 25xd0
 187 200 l 25
 187 100 l 25
 338 100 l 25
 338 0 l 25
 38 0 l 25
 38 100 l 25
 112 100 l 25
 112 200 l 25xe0
 150 200 l 25
 150 300 l 25xd0
 187 300 l 25
 187 400 l 25
 38 400 l 25
 38 500 l 29xc8
EndSplineSet
EndChar

StartChar: edieresis
Encoding: 235 235 82
Width: 381
Flags: HW
HStem: 0 100<96.5 321.5> 200 100<96.5 284.5> 400 100<96.5 284.5> 600 100<59.5 134.5 246.5 321.5>
VStem: 22 75<100 200 300 400> 60 75<600 700> 246 75<600 700> 284 75<300 400>
LayerCount: 2
Back
Fore
SplineSet
246 700 m 25xf2
 321 700 l 25
 321 600 l 25
 246 600 l 25
 246 700 l 25xf2
60 700 m 25xf4
 135 700 l 25
 135 600 l 25
 60 600 l 25
 60 700 l 25xf4
97 400 m 1xf9
 97 300 l 1
 284 300 l 1
 284 400 l 1
 97 400 l 1xf9
60 400 m 1xf4
 60 500 l 1
 321 500 l 1
 321 400 l 25xf6
 359 400 l 25
 359 200 l 1
 97 200 l 1
 97 100 l 1xf9
 321 100 l 1
 321 0 l 1
 60 0 l 1
 60 100 l 1xf6
 22 100 l 1
 22 400 l 5xf8
 60 400 l 1xf4
EndSplineSet
EndChar

StartChar: uni0401
Encoding: 1025 1025 97
Width: 381
Flags: HW
HStem: 0 100<96.5 359.5> 300 100<96.5 284.5> 500 100<96.5 359.5> 700 100<59.5 134.5 246.5 321.5>
VStem: 22 75<100 300 400 500> 60 75<700 800> 246 75<700 800>
LayerCount: 2
Back
Fore
SplineSet
246 700 m 25xf2
 246 800 l 25
 321 800 l 25
 321 700 l 25
 246 700 l 25xf2
60 700 m 25xf6
 60 800 l 25
 135 800 l 25
 135 700 l 25
 60 700 l 25xf6
360 500 m 1
 97 500 l 1
 97 400 l 1
 284 400 l 25
 284 300 l 25
 97 300 l 25
 97 100 l 25
 360 100 l 25
 360 0 l 25
 22 0 l 1
 22 600 l 1xfa
 360 600 l 1
 360 500 l 1
EndSplineSet
EndChar

StartChar: uni0402
Encoding: 1026 1026 98
Width: 381
Flags: HW
HStem: 0 100<209.5 321.5> 300 100<171.5 321.5> 600 100<-15.5 96.5 171.5 284.5>
VStem: 96 75<0 300 400 600> 322 75<100 300>
CounterMasks: 1 e0
LayerCount: 2
Back
Fore
SplineSet
96 0 m 29
 96 600 l 25
 -16 600 l 25
 -16 700 l 25
 284 700 l 25
 284 600 l 25
 171 600 l 25
 171 400 l 25
 360 400 l 25
 360 300 l 25
 397 300 l 25
 397 100 l 25
 360 100 l 25
 360 0 l 25
 210 0 l 25
 210 100 l 25
 322 100 l 25
 322 300 l 25
 171 300 l 25
 171 0 l 25
 96 0 l 29
EndSplineSet
EndChar

StartChar: uni0403
Encoding: 1027 1027 99
Width: 381
Flags: HW
HStem: 0 21G<21.5 96.5> 500 100<96.5 134.5 209.5 359.5> 700 100<209.5 246.5>
VStem: 22 75<0 500> 134 75<600 700> 172 75<700 800>
LayerCount: 2
Back
Fore
SplineSet
22 0 m 29xf8
 22 600 l 25
 134 600 l 25
 134 700 l 25xf8
 172 700 l 25
 172 800 l 25
 247 800 l 25
 247 700 l 25xf4
 209 700 l 25
 209 600 l 25
 360 600 l 25
 360 500 l 25
 97 500 l 25
 97 0 l 25
 22 0 l 29xf8
EndSplineSet
EndChar

StartChar: uni0404
Encoding: 1028 1028 100
Width: 368
Flags: HW
HStem: 0 100<128 278> 100 100<315 353> 300 100<90 240> 500 100<315 353> 600 100<128 278>
VStem: 15 75<200 300 400 500> 53 75<100 200 500 600> 90 225<0 100 600 700> 278 75<100 200 500 600>
LayerCount: 2
Back
Fore
SplineSet
128 500 m 29x3280
 90 500 l 25
 90 400 l 25
 240 400 l 25
 240 300 l 25
 90 300 l 25
 90 200 l 25x74
 128 200 l 25x72
 128 100 l 25
 278 100 l 25xa280
 278 200 l 25
 353 200 l 25
 353 100 l 25x6280
 315 100 l 25x61
 315 0 l 25
 90 0 l 25xa1
 90 100 l 25x61
 53 100 l 25
 53 200 l 25x62
 15 200 l 25
 15 500 l 25x74
 53 500 l 25x72
 53 600 l 25x2a
 90 600 l 25
 90 700 l 25
 315 700 l 25x29
 315 600 l 25x31
 353 600 l 25
 353 500 l 25
 278 500 l 25x3080
 278 600 l 25
 128 600 l 25x2a80
 128 500 l 29x3280
EndSplineSet
EndChar

StartChar: uni0405
Encoding: 1029 1029 101
Width: 381
Flags: HW
HStem: 0 100<59.5 284.5> 300 100<96.5 284.5> 600 100<96.5 321.5>
VStem: 22 75<400 600> 60 262<0 100 300 400 600 700> 284 75<100 300>
CounterMasks: 1 e0
LayerCount: 2
Back
Fore
SplineSet
60 600 m 29xe8
 60 700 l 25
 322 700 l 25
 322 600 l 25xe8
 97 600 l 25
 97 400 l 25xf0
 322 400 l 25
 322 300 l 25xe8
 359 300 l 25
 359 100 l 25xe4
 322 100 l 25
 322 0 l 25
 60 0 l 25
 60 100 l 25xe8
 284 100 l 25
 284 300 l 25xe4
 60 300 l 25
 60 400 l 25xe8
 22 400 l 25
 22 600 l 25xf0
 60 600 l 29xe8
EndSplineSet
EndChar

StartChar: uni0406
Encoding: 1030 1030 102
Width: 375
Flags: HW
HStem: 0 100<37.5 149.5 225.5 337.5> 600 100<37.5 149.5 225.5 337.5>
VStem: 150 75<100 600>
LayerCount: 2
Back
Fore
SplineSet
38 700 m 29
 338 700 l 25
 338 600 l 25
 226 600 l 25
 226 100 l 25
 338 100 l 25
 338 0 l 25
 38 0 l 25
 38 100 l 25
 150 100 l 25
 150 600 l 25
 38 600 l 25
 38 700 l 29
EndSplineSet
EndChar

StartChar: uni0407
Encoding: 1031 1031 103
Width: 375
Flags: HMW
LayerCount: 2
Back
Fore
SplineSet
226 650 m 29
 226 750 l 25
 300 750 l 25
 300 650 l 25
 226 650 l 29
76 650 m 25
 76 750 l 25
 150 750 l 25
 150 650 l 25
 76 650 l 25
38 500 m 25
 38 600 l 25
 338 600 l 25
 338 500 l 25
 226 500 l 25
 226 100 l 25
 338 100 l 25
 338 0 l 25
 38 0 l 25
 38 100 l 25
 150 100 l 25
 150 500 l 25
 38 500 l 25
EndSplineSet
EndChar

StartChar: uni0408
Encoding: 1032 1032 104
Width: 381
Flags: HW
HStem: 0 100<96.5 284.5> 100 100<21.5 59.5> 680 20G<284.5 359.5>
VStem: 22 75<100 200> 284 75<100 700>
LayerCount: 2
Back
Fore
SplineSet
284 700 m 29xb8
 359 700 l 25
 359 100 l 25
 322 100 l 25x78
 322 0 l 25
 60 0 l 25xb8
 60 100 l 25
 22 100 l 25
 22 200 l 25
 97 200 l 25x78
 97 100 l 25
 284 100 l 25
 284 700 l 29xb8
EndSplineSet
EndChar

StartChar: uni0409
Encoding: 1033 1033 105
Width: 381
Flags: HW
HStem: 0 100<-15.5 21.5 246.5 321.5> 300 100<246.5 321.5> 600 100<96.5 171.5>
VStem: -16 75<0 100> 22 75<100 600> 172 188<0 50 300 400> 172 75<100 300 400 600> 322 75<100 300>
CounterMasks: 1 e0
LayerCount: 2
Back
Fore
SplineSet
247 100 m 29xe3
 322 100 l 25
 322 300 l 25
 247 300 l 25
 247 100 l 29xe3
-16 0 m 25xf0
 -16 100 l 25xf0
 22 100 l 25
 22 600 l 25xe8
 59 600 l 25
 59 700 l 25
 247 700 l 25
 247 400 l 25xf2
 360 400 l 25
 360 300 l 25xe4
 397 300 l 25
 397 50 l 25xe1
 360 50 l 25
 360 0 l 25
 172 0 l 25xe4
 172 600 l 25
 97 600 l 25
 97 100 l 25xea
 59 100 l 25
 59 0 l 25
 -16 0 l 25xf0
EndSplineSet
EndChar

StartChar: uni040A
Encoding: 1034 1034 106
Width: 381
Flags: HW
HStem: 0 100<246.5 321.5> 300 100<59.5 171.5 246.5 321.5> 680 20G<-15.5 59.5 171.5 246.5>
VStem: -16 75<0 300 400 700> 172 75<100 300 400 700> 322 75<100 300>
LayerCount: 2
Back
Fore
SplineSet
247 300 m 29
 247 100 l 25
 322 100 l 25
 322 300 l 25
 247 300 l 29
-16 700 m 25
 59 700 l 25
 59 400 l 25
 172 400 l 25
 172 700 l 25
 247 700 l 25
 247 400 l 25
 360 400 l 25
 360 300 l 25
 397 300 l 25
 397 50 l 25
 360 50 l 25
 360 0 l 25
 172 0 l 25
 172 300 l 25
 59 300 l 25
 59 0 l 25
 -16 0 l 25
 -16 700 l 25
EndSplineSet
EndChar

StartChar: uni040B
Encoding: 1035 1035 107
Width: 381
Flags: HW
HStem: 0 21G<96.5 171.5 321.5 396.5> 300 100<171.5 321.5> 600 100<-15.5 96.5 171.5 284.5>
VStem: 96 75<0 300 400 600> 322 75<0 300>
LayerCount: 2
Back
Fore
SplineSet
-16 600 m 29
 -16 700 l 25
 284 700 l 25
 284 600 l 25
 171 600 l 25
 171 400 l 25
 360 400 l 25
 360 300 l 25
 397 300 l 25
 397 0 l 25
 322 0 l 25
 322 300 l 25
 171 300 l 25
 171 0 l 25
 96 0 l 25
 96 600 l 25
 -16 600 l 29
EndSplineSet
EndChar

StartChar: uni040C
Encoding: 1036 1036 108
Width: 375
Flags: HW
HStem: 0 100<262.5 337.5> 100 100<187.5 225.5> 400 100<187.5 225.5> 500 100<262.5 337.5> 600 100<149.5 187.5> 700 100<225.5 262.5>
VStem: 38 150<200 400> 38 75<0 200 400 600> 150 75<600 700> 188 75<700 800> 226 112<0 100 500 600>
LayerCount: 2
Back
Fore
SplineSet
38 0 m 29x8180
 38 600 l 25
 113 600 l 25
 113 400 l 25
 150 400 l 25xa980
 150 500 l 25x1180
 226 500 l 25x2020
 226 600 l 25x2880
 338 600 l 25
 338 500 l 25x1020
 263 500 l 25x1040
 263 400 l 25x2040
 188 400 l 25
 188 200 l 25x62
 263 200 l 25x6040
 263 100 l 25x8040
 338 100 l 25
 338 0 l 25
 226 0 l 25x8020
 226 100 l 25x4020
 150 100 l 25
 150 200 l 25
 113 200 l 25x4180
 113 0 l 25
 38 0 l 29x8180
150 600 m 25
 150 700 l 25x0880
 188 700 l 25x0840
 188 800 l 25
 263 800 l 25
 263 700 l 25x0440
 226 700 l 25x0480
 226 600 l 25
 150 600 l 25
EndSplineSet
EndChar

StartChar: uni040E
Encoding: 1038 1038 109
Width: 381
Flags: HW
HStem: 0 100<96.5 284.5> 100 100<21.5 59.5> 300 100<96.5 284.5> 680 20G<21.5 96.5 284.5 359.5> 700 100<171.5 209.5>
VStem: 22 75<100 200 400 700> 172 38<700 800> 284 75<100 300 400 700>
CounterMasks: 1 07
LayerCount: 2
Back
Fore
SplineSet
172 700 m 29x2f
 172 800 l 25
 210 800 l 25
 210 700 l 25
 172 700 l 29x2f
22 700 m 25xb7
 97 700 l 25
 97 400 l 25
 284 400 l 25
 284 700 l 25
 359 700 l 25
 359 100 l 25
 322 100 l 25x77
 322 0 l 25
 60 0 l 25xa7
 60 100 l 25
 22 100 l 25
 22 200 l 25
 97 200 l 25x67
 97 100 l 25
 284 100 l 25
 284 300 l 25
 60 300 l 25
 60 400 l 25
 22 400 l 25
 22 700 l 25xb7
EndSplineSet
EndChar

StartChar: uni040F
Encoding: 1039 1039 110
Width: 387
Flags: HW
HStem: -200 21G<155.5 231.5> 0 100<81.5 155.5 231.5 305.5> 680 20G<5.5 81.5 305.5 381.5>
VStem: 6 75<100 700> 156 75<-200 0> 306 75<100 700>
CounterMasks: 1 1c
LayerCount: 2
Back
Fore
SplineSet
6 0 m 29
 6 700 l 25
 82 700 l 25
 82 100 l 25
 306 100 l 25
 306 700 l 25
 382 700 l 25
 382 0 l 25
 232 0 l 25
 232 -200 l 25
 156 -200 l 25
 156 0 l 25
 6 0 l 29
EndSplineSet
EndChar

StartChar: uni0410
Encoding: 1040 1040 111
Width: 375
Flags: HW
HStem: 0 21G<-0.5 75.5 299.5 375.5> 200 100<75.5 299.5> 600 100<149.5 225.5>
VStem: -0 75<0 200 300 400> 38 75<400 500> 76 75<500 600> 226 75<500 600> 262 75<400 500> 300 75<0 200 300 400>
LayerCount: 2
Back
Fore
SplineSet
76 400 m 29xf0
 76 300 l 25
 300 300 l 25
 300 400 l 25xf080
 262 400 l 25
 262 500 l 25xe1
 226 500 l 25
 226 600 l 25
 150 600 l 25
 150 500 l 25xe6
 113 500 l 25
 113 400 l 25xe8
 76 400 l 29xf0
76 0 m 25
 -0 0 l 25
 -0 400 l 25xf080
 38 400 l 25
 38 500 l 25xe8
 76 500 l 25
 76 600 l 25xe4
 113 600 l 25
 113 700 l 25
 262 700 l 25
 262 600 l 25xe9
 300 600 l 25
 300 500 l 25xe2
 337 500 l 25
 337 400 l 25xe1
 376 400 l 25
 376 0 l 25
 300 0 l 25
 300 200 l 25
 76 200 l 25
 76 0 l 25
EndSplineSet
EndChar

StartChar: uni0411
Encoding: 1041 1041 112
Width: 381
Flags: HW
HStem: 0 100<96.5 284.5> 300 100<96.5 284.5> 600 100<96.5 321.5>
VStem: 22 300<0 100 300 400 600 700> 22 75<100 300 400 600> 284 75<100 300>
CounterMasks: 1 e0
LayerCount: 2
Back
Fore
SplineSet
97 100 m 29xec
 284 100 l 25
 284 300 l 25
 97 300 l 25
 97 100 l 29xec
22 700 m 25xf0
 322 700 l 25
 322 600 l 25xf0
 97 600 l 25
 97 400 l 25xe8
 322 400 l 25
 322 300 l 25xf0
 359 300 l 25
 359 100 l 25xe4
 322 100 l 25
 322 0 l 25
 22 0 l 25
 22 700 l 25xf0
EndSplineSet
EndChar

StartChar: uni0412
Encoding: 1042 1042 113
Width: 381
Flags: HW
HStem: 0 100<96.5 284.5> 300 100<96.5 284.5> 600 100<96.5 284.5>
VStem: 22 300<0 100 300 400 600 700> 22 75<100 300 400 600> 284 75<100 300 400 600>
CounterMasks: 1 e0
LayerCount: 2
Back
Fore
SplineSet
97 600 m 29xec
 97 400 l 25
 284 400 l 25
 284 600 l 25
 97 600 l 29xec
97 300 m 25
 97 100 l 25
 284 100 l 25
 284 300 l 25
 97 300 l 25
22 0 m 25xf0
 22 700 l 25
 322 700 l 25
 322 600 l 25xf0
 359 600 l 25
 359 400 l 25xe4
 322 400 l 25
 322 300 l 25xf0
 359 300 l 25
 359 100 l 25xe4
 322 100 l 25
 322 0 l 25
 22 0 l 25xf0
EndSplineSet
EndChar

StartChar: uni0413
Encoding: 1043 1043 114
Width: 381
Flags: HW
HStem: 0 21G<21.5 96.5> 600 100<96.5 359.5>
VStem: 22 75<0 600>
LayerCount: 2
Back
Fore
SplineSet
22 700 m 29
 360 700 l 25
 360 600 l 25
 97 600 l 25
 97 0 l 25
 22 0 l 25
 22 700 l 29
EndSplineSet
EndChar

StartChar: uni0414
Encoding: 1044 1044 115
Width: 381
Flags: HW
HStem: 0 100<134.5 246.5> 600 100<171.5 246.5>
VStem: 22 75<-100 0> 60 75<100 500> 96 75<500 600> 246 75<100 600> 284 75<-100 0>
LayerCount: 2
Back
Fore
SplineSet
171 600 m 29xcc
 171 500 l 25xcc
 135 500 l 25
 135 100 l 25xd0
 246 100 l 25
 246 600 l 25
 171 600 l 29xcc
97 500 m 25
 97 600 l 25xc8
 135 600 l 25
 135 700 l 25
 321 700 l 25
 321 100 l 25xd4
 359 100 l 25
 359 -100 l 25
 284 -100 l 25
 284 0 l 25
 97 0 l 25
 97 -100 l 25
 22 -100 l 25
 22 100 l 25xe2
 60 100 l 25
 60 500 l 25xd0
 97 500 l 25
EndSplineSet
EndChar

StartChar: uni0415
Encoding: 1045 1045 116
Width: 381
Flags: HW
HStem: 0 100<96.5 359.5> 300 100<96.5 284.5> 600 100<96.5 359.5>
VStem: 22 75<100 300 400 600>
CounterMasks: 1 e0
LayerCount: 2
Back
Fore
SplineSet
360 600 m 29
 97 600 l 29
 97 400 l 29
 284 400 l 29
 284 300 l 29
 97 300 l 29
 97 100 l 29
 360 100 l 29
 360 0 l 29
 22 0 l 29
 22 700 l 29
 360 700 l 29
 360 600 l 29
EndSplineSet
EndChar

StartChar: uni0416
Encoding: 1046 1046 117
Width: 375
Flags: HW
HStem: 0 21G<-0.5 75.5 149.5 225.5 299.5 375.5> 300 100<112.5 149.5 225.5 262.5> 680 20G<-0.5 74.5 149.5 225.5 299.5 375.5>
VStem: -0 75<0 200 500 700> 38 75<200 300 400 500> 150 75<0 300 400 700> 262 75<200 300 400 500> 300 75<0 200 500 700>
LayerCount: 2
Back
Fore
SplineSet
-0 700 m 29xf4
 75 700 l 25
 76 500 l 25xf4
 112 500 l 25
 113 400 l 25
 150 400 l 25
 150 700 l 25
 226 700 l 25
 226 400 l 25
 262 400 l 25
 262 500 l 25xee
 300 500 l 25
 300 700 l 25
 376 700 l 25
 376 500 l 25xe5
 337 500 l 25
 337 400 l 25xe6
 300 400 l 25xe5
 300 300 l 25
 337 300 l 25
 337 200 l 25xe6
 376 200 l 25
 376 0 l 25
 300 0 l 25
 300 200 l 25xe5
 262 200 l 25
 262 300 l 25
 226 300 l 25
 226 0 l 25
 150 0 l 25
 150 300 l 25
 113 300 l 25
 113 200 l 25xee
 76 200 l 25
 76 0 l 25
 -0 0 l 25
 -0 200 l 25xf4
 38 200 l 25
 38 300 l 25xec
 76 300 l 25
 76 400 l 25xf4
 38 400 l 25
 38 500 l 25xec
 -0 500 l 25
 -0 700 l 29xf4
EndSplineSet
EndChar

StartChar: uni0417
Encoding: 1047 1047 118
Width: 381
Flags: HW
HStem: 0 100<96.5 284.5> 100 100<21.5 59.5> 300 100<134.5 284.5> 500 100<21.5 59.5> 600 100<96.5 284.5>
VStem: 22 75<100 200 500 600> 284 75<100 300 400 600>
LayerCount: 2
Back
Fore
SplineSet
22 500 m 29x36
 22 600 l 1
 60 600 l 25x36
 60 700 l 25
 322 700 l 25
 322 600 l 25
 359 600 l 25
 359 400 l 25
 322 400 l 25
 322 300 l 25
 359 300 l 25
 359 100 l 25
 322 100 l 25x6e
 322 0 l 25
 60 0 l 25xa6
 60 100 l 25
 22 100 l 25
 22 200 l 25
 96 200 l 25x66
 97 100 l 25
 284 100 l 25
 284 300 l 25
 134 300 l 25
 134 400 l 25
 284 400 l 25
 284 600 l 25
 97 600 l 25xae
 97 500 l 1
 22 500 l 29x36
EndSplineSet
EndChar

StartChar: uni0418
Encoding: 1048 1048 119
Width: 375
Flags: HW
HStem: 0 21G<-0.5 112.5 299.5 375.5> 680 20G<-0.5 75.5 262.5 375.5>
VStem: -0 112<0 100> -0 75<200 700> 112 75<200 300> 150 75<300 400> 188 75<400 500> 262 112<600 700> 300 75<0 500>
LayerCount: 2
Back
Fore
SplineSet
-0 700 m 29xd0
 76 700 l 29
 76 200 l 29
 112 200 l 29
 112 300 l 29xd8
 150 300 l 29
 150 400 l 29xc4
 187 400 l 29
 187 500 l 29xc2
 226 500 l 29
 226 600 l 29
 263 600 l 29
 263 700 l 29
 376 700 l 29xc5
 376 0 l 29
 300 0 l 29
 300 500 l 29
 263 500 l 29
 263 400 l 29xc280
 226 400 l 29
 226 300 l 29xc4
 187 300 l 29
 187 200 l 29xc8
 150 200 l 29
 150 100 l 29
 112 100 l 29
 112 0 l 29
 -0 0 l 29xe4
 -0 700 l 29xd0
EndSplineSet
EndChar

StartChar: uni0419
Encoding: 1049 1049 120
Width: 375
Flags: HW
HStem: 0 21G<-0.5 112.5 299.5 375.5> 680 20G<-0.5 75.5 262.5 375.5> 700 100<149.5 187.5>
VStem: -0 112<0 100> -0 75<200 700> 112 75<200 300> 150 75<300 400> 150 38<700 800> 188 75<400 500> 262 112<600 700> 300 75<0 500>
LayerCount: 2
Back
Fore
SplineSet
150 700 m 29xa1
 150 800 l 25
 187 800 l 25
 187 700 l 25
 150 700 l 29xa1
-0 700 m 25xc8
 76 700 l 25
 76 200 l 25
 112 200 l 25
 112 300 l 25xcc
 150 300 l 25
 150 400 l 25xc2
 187 400 l 25
 187 500 l 25xc080
 226 500 l 25
 226 600 l 25
 263 600 l 25
 263 700 l 25
 376 700 l 25xc240
 376 0 l 25
 300 0 l 25
 300 500 l 25
 263 500 l 25
 263 400 l 25xc0a0
 226 400 l 25
 226 300 l 25xc2
 187 300 l 25
 187 200 l 25xc4
 150 200 l 25
 150 100 l 25
 112 100 l 25
 112 0 l 25
 -0 0 l 25xd1
 -0 700 l 25xc8
EndSplineSet
EndChar

StartChar: uni041A
Encoding: 1050 1050 121
Width: 381
Flags: HW
HStem: 0 100<284.5 359.5> 200 100<171.5 209.5> 300 100<96.5 134.5> 400 100<171.5 209.5> 600 100<284.5 359.5>
VStem: 22 75<0 300 400 700> 134 112<200 300 400 500> 210 75<100 200 500 600> 246 112<0 100 600 700>
LayerCount: 2
Back
Fore
SplineSet
22 700 m 29xae
 97 700 l 25
 97 400 l 25
 134 400 l 25xae
 134 500 l 25x9e
 210 500 l 25
 210 600 l 25x9d
 246 600 l 25
 246 700 l 25
 360 700 l 25
 360 600 l 25x9c80
 285 600 l 25
 285 500 l 25x9d
 246 500 l 25
 246 400 l 25
 172 400 l 25
 172 300 l 25xde
 246 300 l 25xae
 246 200 l 25xce
 285 200 l 25
 285 100 l 25xcd
 360 100 l 25
 360 0 l 25
 246 0 l 25
 246 100 l 25xcc80
 210 100 l 25
 210 200 l 25xcd
 134 200 l 25xce
 134 300 l 25
 97 300 l 25
 97 0 l 25
 22 0 l 25
 22 700 l 29xae
EndSplineSet
EndChar

StartChar: uni041B
Encoding: 1051 1051 122
Width: 381
Flags: HW
HStem: 0 100<21.5 59.5> 600 100<171.5 284.5>
VStem: 22 75<0 100> 60 75<100 200> 96 75<200 600> 284 75<0 600>
LayerCount: 2
Back
Fore
SplineSet
22 0 m 29xe4
 22 100 l 25xe4
 60 100 l 25
 60 200 l 25xd4
 97 200 l 25
 97 600 l 25xcc
 135 600 l 25
 135 700 l 25xd4
 359 700 l 25
 359 0 l 25
 284 0 l 25
 284 600 l 25
 171 600 l 25
 171 200 l 25xcc
 135 200 l 25
 135 100 l 25xd4
 97 100 l 25
 97 0 l 25
 22 0 l 29xe4
EndSplineSet
EndChar

StartChar: uni041C
Encoding: 1052 1052 123
Width: 375
Flags: HW
HStem: 0 21G<-0.5 75.5 299.5 375.5> 680 20G<-0.5 112.5 262.5 375.5>
VStem: -0 112<600 700> -0 75<0 500> 150 75<300 400> 262 112<600 700> 300 75<0 500>
LayerCount: 2
Back
Fore
SplineSet
76 0 m 29xd8
 -0 0 l 25xd8
 -0 700 l 25
 112 700 l 25
 112 600 l 25
 150 600 l 25
 150 500 l 25
 226 500 l 25
 226 600 l 25
 262 600 l 25
 262 700 l 25
 376 700 l 25xec
 376 0 l 25
 300 0 l 25
 300 500 l 25xca
 262 500 l 25
 262 400 l 25
 226 400 l 25
 226 300 l 25
 150 300 l 25
 150 400 l 25
 112 400 l 25
 112 500 l 25xec
 76 500 l 25
 76 0 l 29xd8
EndSplineSet
EndChar

StartChar: uni041D
Encoding: 1053 1053 124
Width: 381
Flags: HW
HStem: 0 21G<21.5 96.5 284.5 359.5> 300 100<96.5 284.5> 680 20G<21.5 96.5 284.5 359.5>
VStem: 22 75<0 300 400 700> 284 75<0 300 400 700>
LayerCount: 2
Back
Fore
SplineSet
22 700 m 29
 97 700 l 25
 97 400 l 25
 284 400 l 25
 284 700 l 25
 359 700 l 25
 359 0 l 25
 284 0 l 25
 284 300 l 25
 97 300 l 25
 97 0 l 25
 22 0 l 25
 22 700 l 29
EndSplineSet
EndChar

StartChar: uni041E
Encoding: 1054 1054 125
Width: 375
Flags: HW
HStem: 0 100<112.5 262.5> 600 100<112.5 262.5>
VStem: -0 75<200 500> 38 75<100 200 500 600> 76 225<0 100 600 700> 262 75<100 200 500 600> 300 75<200 500>
LayerCount: 2
Back
Fore
SplineSet
262 100 m 29xd4
 262 200 l 25xd4
 300 200 l 25
 300 500 l 25xc2
 262 500 l 25
 262 600 l 25
 113 600 l 25
 113 500 l 25xd4
 76 500 l 25
 76 200 l 25xe0
 113 200 l 25
 113 100 l 25
 262 100 l 29xd4
300 0 m 25xc8
 76 0 l 25
 76 100 l 25xc8
 38 100 l 25
 38 200 l 25xd0
 -0 200 l 25
 -0 500 l 25xe0
 38 500 l 25
 38 600 l 25xd0
 76 600 l 25
 76 700 l 25
 300 700 l 25
 300 600 l 25xc8
 337 600 l 25
 337 500 l 25xc4
 376 500 l 25
 376 200 l 25xc2
 337 200 l 25
 337 100 l 25xc4
 300 100 l 25
 300 0 l 25xc8
EndSplineSet
EndChar

StartChar: uni041F
Encoding: 1055 1055 126
Width: 381
Flags: HW
HStem: 0 21G<21.5 96.5 284.5 359.5> 600 100<96.5 284.5>
VStem: 22 75<0 600> 284 75<0 600>
LayerCount: 2
Back
Fore
SplineSet
22 700 m 29
 359 700 l 25
 359 0 l 25
 284 0 l 25
 284 600 l 25
 97 600 l 25
 97 0 l 25
 22 0 l 25
 22 700 l 29
EndSplineSet
EndChar

StartChar: uni0420
Encoding: 1056 1056 127
Width: 381
Flags: HW
HStem: 0 21G<21.5 96.5> 300 100<96.5 284.5> 600 100<96.5 284.5>
VStem: 22 75<0 300 400 600> 284 75<400 600>
LayerCount: 2
Back
Fore
SplineSet
97 600 m 29
 97 400 l 25
 284 400 l 25
 284 600 l 25
 97 600 l 29
22 700 m 25
 322 700 l 25
 322 650 l 25
 359 650 l 25
 359 400 l 25
 322 400 l 25
 322 300 l 25
 97 300 l 25
 97 0 l 25
 22 0 l 25
 22 700 l 25
EndSplineSet
EndChar

StartChar: uni0421
Encoding: 1057 1057 128
Width: 381
Flags: HW
HStem: 0 100<134.5 284.5> 100 100<321.5 359.5> 500 100<321.5 359.5> 600 100<134.5 284.5>
VStem: 22 75<200 500> 60 75<100 200 500 600> 96 225<0 100 600 700> 284 75<100 200 500 600>
LayerCount: 2
Back
Fore
SplineSet
97 700 m 29x12
 321 700 l 25x12
 321 600 l 25x22
 359 600 l 25
 359 500 l 25
 284 500 l 25x21
 284 600 l 25
 135 600 l 25x15
 135 500 l 25x25
 97 500 l 25
 97 200 l 25x68
 135 200 l 25x64
 135 100 l 25
 284 100 l 25x85
 284 200 l 25
 359 200 l 25
 359 100 l 25x45
 321 100 l 25x42
 321 0 l 25
 97 0 l 25x82
 97 100 l 25x42
 60 100 l 25
 60 200 l 25x44
 22 200 l 25
 22 500 l 25x68
 60 500 l 25x64
 60 600 l 25x14
 97 600 l 25
 97 700 l 29x12
EndSplineSet
EndChar

StartChar: uni0422
Encoding: 1058 1058 129
Width: 375
Flags: HW
HStem: 0 21G<149.5 225.5> 600 100<-0.5 149.5 225.5 375.5>
VStem: 150 75<0 600>
LayerCount: 2
Back
Fore
SplineSet
-0 700 m 1
 376 700 l 5
 376 600 l 1
 226 600 l 1
 226 0 l 25
 150 0 l 25
 150 600 l 1
 -0 600 l 1
 -0 700 l 1
EndSplineSet
EndChar

StartChar: uni0423
Encoding: 1059 1059 130
Width: 381
Flags: HW
HStem: 0 100<96.5 284.5> 100 100<21.5 59.5> 300 100<96.5 284.5> 680 20G<21.5 96.5 284.5 359.5>
VStem: 22 75<100 200 400 700> 284 75<100 300 400 700>
LayerCount: 2
Back
Fore
SplineSet
22 700 m 29xbc
 97 700 l 25
 97 400 l 25
 284 400 l 25
 284 700 l 25
 359 700 l 25
 359 100 l 25
 322 100 l 25x7c
 322 0 l 25
 60 0 l 25xbc
 60 100 l 25
 22 100 l 25
 22 200 l 25
 97 200 l 25x7c
 97 100 l 25
 284 100 l 25
 284 300 l 25
 60 300 l 25
 60 400 l 25
 22 400 l 25
 22 700 l 29xbc
EndSplineSet
EndChar

StartChar: uni0424
Encoding: 1060 1060 131
Width: 375
Flags: HW
HStem: 0 21G<149.5 225.5> 100 100<75.5 149.5 225.5 299.5> 500 100<75.5 149.5 225.5 299.5> 680 20G<149.5 225.5>
VStem: -0 75<200 500> 150 75<0 100 200 500 600 700> 300 75<200 500>
CounterMasks: 1 0e
LayerCount: 2
Back
Fore
SplineSet
226 500 m 29
 226 200 l 25
 300 200 l 25
 300 500 l 25
 226 500 l 29
76 500 m 25
 76 200 l 25
 150 200 l 25
 150 500 l 25
 76 500 l 25
150 600 m 25
 150 700 l 1
 226 700 l 25
 226 600 l 25
 338 600 l 25
 338 500 l 25
 376 500 l 25
 376 200 l 25
 338 200 l 25
 338 100 l 25
 226 100 l 25
 226 0 l 25
 150 0 l 25
 150 100 l 25
 38 100 l 25
 38 200 l 25
 -0 200 l 25
 -0 500 l 25
 38 500 l 25
 38 600 l 1
 150 600 l 25
EndSplineSet
EndChar

StartChar: uni0425
Encoding: 1061 1061 132
Width: 375
Flags: HW
HStem: 0 100<37.5 75.5 299.5 337.5> 600 100<37.5 75.5 299.5 337.5>
VStem: 38 75<0 100 600 700> 76 75<100 200 500 600> 112 150<200 300 400 500> 226 75<100 200 500 600> 262 75<0 100 600 700>
LayerCount: 2
Back
Fore
SplineSet
38 700 m 29xe0
 113 700 l 25
 113 600 l 25xe0
 150 600 l 25
 150 500 l 25
 226 500 l 25
 226 600 l 25xd4
 262 600 l 25
 262 700 l 25
 337 700 l 25
 337 600 l 25xc2
 300 600 l 25
 300 500 l 25xc4
 262 500 l 25
 262 400 l 25xc8
 226 400 l 25
 226 300 l 25xc4
 262 300 l 25
 262 200 l 25xc8
 300 200 l 25
 300 100 l 25xc4
 337 100 l 25
 337 0 l 25
 262 0 l 25
 262 100 l 25xc2
 226 100 l 25
 226 200 l 25
 150 200 l 25
 150 100 l 25xd4
 113 100 l 25
 113 0 l 25
 38 0 l 25
 38 100 l 25xe0
 76 100 l 25
 76 200 l 25xd0
 113 200 l 25
 113 300 l 25xc8
 150 300 l 25
 150 400 l 25xd0
 113 400 l 25
 113 500 l 25xc8
 76 500 l 25
 76 600 l 25xd0
 38 600 l 25
 38 700 l 29xe0
EndSplineSet
EndChar

StartChar: uni0426
Encoding: 1062 1062 133
Width: 381
Flags: HW
HStem: 0 100<96.5 209.5> 680 20G<21.5 96.5 209.5 284.5>
VStem: 22 75<100 700> 210 75<100 700> 284 75<-100 0>
LayerCount: 2
Back
Fore
SplineSet
22 700 m 29xe8
 97 700 l 25
 97 100 l 25
 210 100 l 25
 210 700 l 25
 285 700 l 25
 285 100 l 25xf0
 359 100 l 25
 359 -100 l 25
 285 -100 l 25
 285 0 l 25
 22 0 l 25
 22 700 l 29xe8
EndSplineSet
EndChar

StartChar: uni0427
Encoding: 1063 1063 134
Width: 381
Flags: HW
HStem: 0 21G<284.5 359.5> 300 100<134.5 284.5> 680 20G<21.5 96.5 284.5 359.5>
VStem: 22 75<500 700> 60 75<400 500> 284 75<0 300 400 700>
LayerCount: 2
Back
Fore
SplineSet
22 700 m 29xf4
 97 700 l 25
 97 500 l 25xf4
 135 500 l 25
 135 400 l 25xec
 284 400 l 25
 284 700 l 25
 359 700 l 25
 359 0 l 25
 284 0 l 25
 284 300 l 25
 97 300 l 25
 97 400 l 25xf4
 60 400 l 25
 60 500 l 25xec
 22 500 l 25
 22 700 l 29xf4
EndSplineSet
EndChar

StartChar: uni0428
Encoding: 1064 1064 135
Width: 375
Flags: HW
HStem: 0 100<75.5 149.5 225.5 299.5> 680 20G<-0.5 75.5 149.5 225.5 299.5 375.5>
VStem: -0 75<100 700> 150 75<100 700> 300 75<100 700>
CounterMasks: 1 38
LayerCount: 2
Back
Fore
SplineSet
-0 700 m 29
 76 700 l 25
 76 100 l 25
 150 100 l 25
 150 700 l 25
 226 700 l 25
 226 100 l 25
 300 100 l 25
 300 700 l 25
 376 700 l 25
 376 0 l 25
 -0 0 l 25
 -0 700 l 29
EndSplineSet
EndChar

StartChar: uni0429
Encoding: 1065 1065 136
Width: 381
Flags: HW
HStem: 0 100<59.5 134.5 209.5 284.5> 680 20G<-15.5 59.5 134.5 209.5 284.5 359.5>
VStem: -16 75<100 700> 134 75<100 700> 284 75<100 700> 322 75<-100 0>
LayerCount: 2
Back
Fore
SplineSet
-16 700 m 29xf4
 59 700 l 25
 59 100 l 25
 134 100 l 25
 134 700 l 25
 209 700 l 25
 209 100 l 25
 284 100 l 25
 284 700 l 25
 359 700 l 25
 359 100 l 25xf8
 397 100 l 25
 397 -100 l 25
 322 -100 l 25
 322 0 l 25
 -16 0 l 25
 -16 700 l 29xf4
EndSplineSet
EndChar

StartChar: uni042A
Encoding: 1066 1066 137
Width: 375
Flags: HW
HStem: 0 100<149.5 299.5> 300 100<149.5 299.5> 600 100<-0.5 75.5>
VStem: 76 75<100 300 400 600> 300 75<100 300>
CounterMasks: 1 e0
LayerCount: 2
Back
Fore
SplineSet
150 300 m 29
 150 100 l 25
 300 100 l 25
 300 300 l 25
 150 300 l 29
-0 700 m 25
 150 700 l 25
 150 400 l 25
 338 400 l 25
 338 300 l 25
 376 300 l 25
 376 100 l 25
 338 100 l 25
 338 0 l 25
 76 0 l 25
 76 600 l 25
 -0 600 l 25
 -0 700 l 25
EndSplineSet
EndChar

StartChar: uni042B
Encoding: 1067 1067 138
Width: 375
Flags: HW
HStem: 0 100<75.5 187.5> 300 100<75.5 187.5> 680 20G<-0.5 75.5 299.5 375.5>
VStem: -0 225<0 100 300 400> -0 75<100 300 400 700> 188 75<100 300> 300 75<0 700>
LayerCount: 2
Back
Fore
SplineSet
188 300 m 29xee
 76 300 l 25
 76 100 l 25
 188 100 l 25
 188 300 l 29xee
300 700 m 25
 376 700 l 25
 376 0 l 25
 300 0 l 25
 300 700 l 25
-0 700 m 25
 76 700 l 25
 76 400 l 25xea
 226 400 l 25
 226 300 l 25xf2
 263 300 l 25
 263 100 l 25xe6
 226 100 l 25
 226 0 l 25
 -0 0 l 25xf2
 -0 700 l 25
EndSplineSet
EndChar

StartChar: uni042C
Encoding: 1068 1068 139
Width: 387
Flags: HW
HStem: 0 100<118.5 268.5> 300 100<118.5 268.5> 680 20G<43.5 117.5>
VStem: 44 74<100 300 400 700> 268 75<101 300>
LayerCount: 2
Back
Fore
SplineSet
118 100 m 29
 268 100 l 25
 268 300 l 25
 118 300 l 25
 118 100 l 29
44 700 m 25
 118 700 l 25
 118 400 l 25
 306 400 l 25
 306 300 l 25
 342 300 l 25
 343 101 l 25
 306 100 l 25
 306 0 l 25
 44 0 l 25
 44 700 l 25
EndSplineSet
EndChar

StartChar: uni042D
Encoding: 1069 1069 140
Width: 381
Flags: HW
HStem: 0 100<96.5 246.5> 100 100<21.5 59.5> 300 100<134.5 284.5> 500 100<21.5 59.5> 600 100<96.5 246.5>
VStem: 22 75<100 200 500 600> 60 225<0 100 600 700> 246 75<100 200 500 600> 284 75<200 300 400 500>
LayerCount: 2
Back
Fore
SplineSet
22 500 m 29x35
 22 600 l 25x35
 60 600 l 25x32
 60 700 l 25
 285 700 l 25
 285 600 l 25x2a
 321 600 l 25x29
 321 500 l 25x31
 359 500 l 25
 359 200 l 25x7080
 321 200 l 25
 321 100 l 25x71
 285 100 l 25x72
 285 0 l 25
 60 0 l 25xa2
 60 100 l 25x62
 22 100 l 25
 22 200 l 25
 97 200 l 25x64
 97 100 l 25
 246 100 l 25xa5
 246 200 l 25x65
 285 200 l 25
 285 300 l 25
 134 300 l 25
 134 400 l 25
 285 400 l 25
 285 500 l 25x7080
 246 500 l 25x71
 246 600 l 25
 97 600 l 25x2d
 97 500 l 25
 22 500 l 29x35
EndSplineSet
EndChar

StartChar: uni042E
Encoding: 1070 1070 141
Width: 381
Flags: HW
HStem: 0 100<209.5 284.5> 300 100<96.5 134.5> 600 100<209.5 284.5>
VStem: 22 75<0 300 400 700> 134 75<100 300 400 600> 172 150<0 100 600 700> 284 75<100 600>
CounterMasks: 1 e0
LayerCount: 2
Back
Fore
SplineSet
209 600 m 29xfa
 209 100 l 25
 284 100 l 25
 284 600 l 25
 209 600 l 29xfa
22 700 m 25
 97 700 l 25
 97 400 l 25
 134 400 l 25
 134 600 l 25xf8
 172 600 l 25
 172 700 l 25
 322 700 l 25
 322 600 l 25xf4
 359 600 l 25
 359 100 l 25xf2
 322 100 l 25
 322 0 l 25
 172 0 l 25
 172 100 l 25xf4
 134 100 l 25
 134 300 l 25
 97 300 l 25
 97 0 l 25
 22 0 l 25
 22 700 l 25
EndSplineSet
EndChar

StartChar: uni042F
Encoding: 1071 1071 142
Width: 381
Flags: HW
HStem: 0 100<21.5 96.5> 300 100<96.5 171.5> 600 100<96.5 284.5>
VStem: 22 75<400 600> 96 112<100 200> 284 75<0 200 400 600>
CounterMasks: 1 e0
LayerCount: 2
Back
Fore
SplineSet
97 600 m 29xf4
 97 400 l 25
 284 400 l 25
 284 600 l 25
 97 600 l 29xf4
60 700 m 25
 359 700 l 25
 359 0 l 25
 284 0 l 25
 284 200 l 25
 210 200 l 25
 210 100 l 25xec
 172 100 l 25
 172 0 l 25
 22 0 l 25
 22 100 l 25xf4
 97 100 l 25
 97 200 l 25xec
 172 200 l 25
 172 300 l 25
 60 300 l 25
 60 400 l 25
 22 400 l 25
 22 600 l 25
 60 600 l 25
 60 700 l 25
EndSplineSet
EndChar

StartChar: uni0430
Encoding: 1072 1072 143
Width: 375
Flags: HW
HStem: 0 100<75.5 262.5 337.5 374.5> 100 100<-0.5 37.5> 200 100<75.5 262.5> 400 100<37.5 262.5>
VStem: -0 75<100 200> 262 75<100 200 300 400>
LayerCount: 2
Back
Fore
SplineSet
76 200 m 29xbc
 76 100 l 25
 262 100 l 25
 262 200 l 25
 76 200 l 29xbc
38 500 m 25
 300 500 l 25
 300 400 l 25
 337 400 l 25
 337 100 l 25
 374 100 l 25
 376 0 l 25
 38 0 l 25xbc
 38 100 l 25
 -0 100 l 25
 -0 200 l 25
 38 200 l 25x5c
 38 300 l 25
 262 300 l 25
 262 400 l 25
 38 400 l 25
 38 500 l 25
EndSplineSet
EndChar

StartChar: uni0431
Encoding: 1073 1073 144
Width: 381
Flags: HW
HStem: 0 100<96.5 284.5> 300 200<171.5 284.5> 300 100<96.5 171.5> 600 100<59.5 96.5 171.5 359.5>
VStem: 22 75<100 300> 96 75<500 600> 172 112<400 500> 284 75<100 300>
LayerCount: 2
Back
Fore
SplineSet
97 300 m 29xb9
 97 100 l 25
 284 100 l 25
 284 300 l 25xd9
 97 300 l 29xb9
60 700 m 25
 359 700 l 25
 359 600 l 25
 171 600 l 25
 171 500 l 25xd5
 284 500 l 25xd2
 284 400 l 25xb2
 322 400 l 25
 322 300 l 25
 359 300 l 25
 359 100 l 25xb1
 322 100 l 25
 322 0 l 25
 60 0 l 25
 60 100 l 25
 22 100 l 25
 22 300 l 25
 60 300 l 25
 60 400 l 25
 171 400 l 25xba
 171 500 l 25
 97 500 l 25
 97 600 l 25xd4
 60 600 l 25
 60 700 l 25
EndSplineSet
EndChar

StartChar: uni0432
Encoding: 1074 1074 145
Width: 381
Flags: HW
HStem: 0 100<96.5 284.5> 100 100<321.5 359.5> 200 100<96.5 284.5> 300 100<321.5 359.5> 400 100<96.5 284.5>
VStem: 22 300<0 100 200 300 400 500> 22 75<100 200 300 400> 284 75<100 200 300 400>
LayerCount: 2
Back
Fore
SplineSet
97 200 m 29xa3
 97 100 l 25
 284 100 l 25
 284 200 l 25
 97 200 l 29xa3
97 400 m 25x2b
 97 300 l 25
 284 300 l 25
 284 400 l 25
 97 400 l 25x2b
22 500 m 25x8c
 322 500 l 25x8c
 322 400 l 25x14
 359 400 l 25
 359 300 l 25x11
 322 300 l 25
 322 200 l 25x54
 359 200 l 25
 359 100 l 25x51
 322 100 l 25x54
 322 0 l 25
 22 0 l 25
 22 500 l 25x8c
EndSplineSet
EndChar

StartChar: uni0433
Encoding: 1075 1075 146
Width: 381
Flags: HW
HStem: 0 21G<21.5 96.5> 400 100<96.5 359.5>
VStem: 22 75<0 400>
LayerCount: 2
Back
Fore
SplineSet
22 0 m 29
 22 500 l 25
 360 500 l 25
 360 401 l 25
 97 400 l 25
 97 0 l 25
 22 0 l 29
EndSplineSet
EndChar

StartChar: uni0434
Encoding: 1076 1076 147
Width: 375
Flags: HW
HStem: -100 200<-0.5 74.5 299.5 375.5> -1 101<74.5 75.5 149.5 225.5> 400 100<149.5 225.5>
VStem: -0 75<-100 -1> 76 75<100 400> 226 75<100 400> 300 75<-100 0>
LayerCount: 2
Back
Fore
SplineSet
150 400 m 29x6c
 150 100 l 25
 226 100 l 25
 226 400 l 25
 150 400 l 29x6c
112 500 m 25
 300 500 l 25x6a
 300 100 l 25xa4
 376 100 l 25
 376 -100 l 25
 300 -100 l 25xa2
 300 0 l 25
 75 -1 l 25x62
 76 -100 l 25
 -0 -100 l 25
 -0 100 l 25xb2
 76 100 l 25
 76 400 l 25
 112 400 l 25
 112 500 l 25
EndSplineSet
EndChar

StartChar: uni0435
Encoding: 1077 1077 148
Width: 381
Flags: HW
HStem: 0 100<96.5 321.5> 200 100<96.5 284.5> 400 100<96.5 284.5>
VStem: 22 75<100 200 300 400> 284 75<300 400>
CounterMasks: 1 e0
LayerCount: 2
Back
Fore
SplineSet
97 400 m 1
 97 300 l 1
 284 300 l 1
 284 400 l 1
 97 400 l 1
60 400 m 1
 60 500 l 1
 322 500 l 1
 322 400 l 25
 359 400 l 25
 359 200 l 1
 97 200 l 1
 97 100 l 1
 322 100 l 1
 322 0 l 1
 60 0 l 1
 60 100 l 1
 22 100 l 1
 22 400 l 5
 60 400 l 1
EndSplineSet
EndChar

StartChar: uni0436
Encoding: 1078 1078 149
Width: 375
Flags: HW
HStem: 0 100<-0.5 37.5 337.5 375.5> 200 100<112.5 149.5 225.5 262.5> 400 100<-0.5 37.5 337.5 375.5>
VStem: -0 75<0 100 400 500> 38 75<100 200 300 400> 150 75<0 200 300 500> 262 75<100 200 300 400> 300 75<0 100 400 500>
CounterMasks: 1 e0
LayerCount: 2
Back
Fore
SplineSet
-0 500 m 29xf4
 76 500 l 25
 76 400 l 25xf4
 113 400 l 25
 113 300 l 25
 150 300 l 25
 150 500 l 25
 226 500 l 25
 226 300 l 25
 262 300 l 25
 262 400 l 25xee
 300 400 l 25
 300 500 l 25
 376 500 l 25
 376 400 l 25xe5
 337 400 l 25
 337 300 l 25xe6
 300 300 l 25
 300 200 l 25xe5
 337 200 l 25
 337 100 l 25xe6
 376 100 l 25
 376 0 l 25
 300 0 l 25
 300 100 l 25xe5
 262 100 l 25
 262 200 l 25
 226 200 l 25
 226 0 l 25
 150 0 l 25
 150 200 l 25
 113 200 l 25
 113 100 l 25xee
 76 100 l 25
 76 0 l 25
 -0 0 l 25
 -0 100 l 25xf4
 38 100 l 25
 38 200 l 25xec
 76 200 l 25
 76 300 l 25xf4
 38 300 l 25
 38 400 l 25xec
 -0 400 l 25
 -0 500 l 29xf4
EndSplineSet
EndChar

StartChar: uni0437
Encoding: 1079 1079 150
Width: 381
Flags: HW
HStem: 0 100<96.5 284.5> 100 100<21.5 59.5 321.5 359.5> 300 100<21.5 59.5 321.5 359.5> 400 100<96.5 284.5>
VStem: 22 75<100 200 300 400> 284 75<100 200 300 400>
LayerCount: 2
Back
Fore
SplineSet
22 400 m 29x2c
 60 400 l 1x2c
 60 500 l 25
 322 500 l 25x1c
 322 400 l 25
 359 400 l 25
 359 300 l 25
 322 300 l 25
 322 200 l 25
 359 200 l 25
 359 100 l 25
 322 100 l 25x6c
 322 0 l 25
 60 0 l 25x8c
 60 100 l 25
 22 100 l 25
 22 200 l 25
 97 200 l 25x4c
 97 100 l 25
 284 100 l 25x8c
 284 200 l 25
 172 200 l 25
 172 300 l 25
 284 300 l 25x6c
 284 400 l 25
 97 400 l 25x1c
 97 300 l 25
 22 300 l 1
 22 400 l 29x2c
EndSplineSet
EndChar

StartChar: uni0438
Encoding: 1080 1080 151
Width: 381
Flags: HW
HStem: 0 100<96.5 134.5> 100 100<134.5 171.5> 200 100<171.5 209.5> 300 100<209.5 246.5> 400 100<246.5 284.5>
VStem: 22 112<0 100> 22 75<100 500> 134 38<100 200> 172 38<200 300> 210 38<300 400> 246 112<400 500> 284 75<0 400>
LayerCount: 2
Back
Fore
SplineSet
22 0 m 29x84
 22 500 l 5
 97 500 l 29
 97 100 l 29x8a
 134 100 l 29x8c
 134 200 l 29
 172 200 l 29x41
 172 300 l 29
 210 300 l 29x2080
 210 400 l 29
 246 400 l 29x1040
 246 500 l 29
 359 500 l 29x0820
 359 0 l 29
 284 0 l 29
 284 400 l 29x8810
 246 400 l 29
 246 300 l 29x1050
 210 300 l 29
 210 200 l 29x2080
 172 200 l 29
 172 100 l 29x41
 134 100 l 29
 134 0 l 5
 22 0 l 29x84
EndSplineSet
EndChar

StartChar: uni0439
Encoding: 1081 1081 152
Width: 381
Flags: HW
HStem: 0 100<96.5 134.5> 100 100<134.5 171.5> 200 100<171.5 209.5> 300 100<209.5 246.5> 400 100<246.5 284.5> 600 100<134.5 246.5> 700 100<59.5 96.5 284.5 321.5>
VStem: 22 75<100 500> 60 75<700 800> 134 38<100 200> 172 38<200 300> 210 38<300 400> 246 75<700 800> 284 75<0 400>
LayerCount: 2
Back
Fore
SplineSet
60 800 m 29x0280
 135 800 l 29x0280
 135 700 l 29
 246 700 l 29x0488
 246 800 l 29
 321 800 l 29
 321 700 l 29x0288
 284 700 l 29x0204
 284 600 l 29
 97 600 l 29x0504
 97 700 l 29x0304
 60 700 l 29
 60 800 l 29x0280
22 0 m 25x8140
 22 500 l 1
 97 500 l 25
 97 100 l 25
 135 100 l 25x8940
 135 200 l 25
 172 200 l 25x4140
 172 300 l 25
 210 300 l 25x2020
 210 400 l 25
 246 400 l 25x1010
 246 500 l 25x0808
 359 500 l 25
 359 0 l 25
 284 0 l 25
 284 400 l 25x8804
 246 400 l 25
 246 300 l 25x1014
 210 300 l 25
 210 200 l 25x2020
 172 200 l 25
 172 100 l 25x4040
 135 100 l 25
 135 0 l 1
 22 0 l 25x8140
EndSplineSet
EndChar

StartChar: uni043A
Encoding: 1082 1082 153
Width: 381
Flags: HW
HStem: 0 100<284.5 359.5> 200 100<96.5 209.5> 400 100<284.5 359.5>
VStem: 22 75<0 200 300 500> 210 75<100 200 300 400> 246 112<0 100 400 500>
CounterMasks: 1 e0
LayerCount: 2
Back
Fore
SplineSet
22 500 m 29xf8
 97 500 l 25
 97 300 l 25
 210 300 l 25
 210 400 l 25xf8
 246 400 l 25
 246 500 l 25
 360 500 l 25
 360 400 l 25xf4
 285 400 l 25
 285 300 l 25xf8
 246 300 l 25
 246 200 l 25xf4
 285 200 l 25
 285 100 l 25xf8
 360 100 l 25
 360 0 l 25
 246 0 l 25
 246 100 l 25xf4
 210 100 l 25
 210 200 l 25
 97 200 l 25
 97 0 l 25
 22 0 l 25
 22 500 l 29xf8
EndSplineSet
EndChar

StartChar: uni043B
Encoding: 1083 1083 154
Width: 381
Flags: HW
HStem: 0 100<21.5 59.5> 400 100<134.5 284.5>
VStem: 22 75<0 100> 60 75<100 400> 284 75<0 400>
LayerCount: 2
Back
Fore
SplineSet
22 100 m 29xe8
 60 100 l 25
 60 400 l 25xd8
 97 400 l 25
 97 500 l 25xe8
 359 500 l 25
 359 0 l 25
 284 0 l 25
 284 400 l 25
 135 400 l 25
 135 100 l 25xd8
 97 100 l 25
 97 0 l 25
 22 0 l 25
 22 100 l 29xe8
EndSplineSet
EndChar

StartChar: uni043C
Encoding: 1084 1084 155
Width: 381
Flags: HW
HStem: 0 21G<21.5 96.5 284.5 359.5> 480 20G<21.5 134.5 246.5 359.5>
VStem: 22 112<400 500> 22 75<0 300> 134 112<200 300> 246 112<400 500> 284 75<0 300>
LayerCount: 2
Back
Fore
SplineSet
22 0 m 29xda
 22 500 l 25
 134 500 l 25
 134 400 l 25
 172 400 l 25
 172 300 l 25
 210 300 l 25
 210 400 l 25
 246 400 l 25
 246 500 l 25
 359 500 l 25xe4
 359 0 l 25
 284 0 l 25
 284 300 l 25
 246 300 l 25
 246 200 l 25
 210 200 l 25
 210 100 l 25
 172 100 l 25
 172 200 l 25
 134 200 l 25
 134 300 l 25
 97 300 l 25
 97 0 l 25
 22 0 l 29xda
EndSplineSet
EndChar

StartChar: uni043D
Encoding: 1085 1085 156
Width: 375
Flags: HW
HStem: 0 21G<37.5 112.5 262.5 337.5> 200 100<112.5 262.5> 480 20G<37.5 112.5 262.5 337.5>
VStem: 38 75<0 200 300 500> 262 75<0 200 300 500>
LayerCount: 2
Back
Fore
SplineSet
38 500 m 25
 113 500 l 25
 113 300 l 1
 262 300 l 1
 262 500 l 5
 337 500 l 1
 337 0 l 1
 262 0 l 1
 262 200 l 1
 113 200 l 1
 113 0 l 25
 38 0 l 25
 38 500 l 25
EndSplineSet
EndChar

StartChar: uni043E
Encoding: 1086 1086 157
Width: 381
Flags: HW
HStem: 0 100<96.5 284.5> 400 100<96.5 284.5>
VStem: 22 75<100 400> 284 75<100 400>
LayerCount: 2
Back
Fore
SplineSet
97 400 m 29
 97 100 l 25
 284 100 l 25
 284 400 l 25
 97 400 l 29
60 500 m 25
 322 500 l 25
 322 400 l 25
 359 400 l 25
 359 100 l 25
 322 100 l 25
 322 0 l 25
 60 0 l 25
 60 100 l 25
 22 100 l 25
 22 400 l 25
 60 400 l 25
 60 500 l 25
EndSplineSet
EndChar

StartChar: uni043F
Encoding: 1087 1087 158
Width: 381
Flags: HW
HStem: 0 21G<21.5 96.5 284.5 359.5> 400 100<96.5 284.5>
VStem: 22 75<0 400> 284 75<0 400>
LayerCount: 2
Back
Fore
SplineSet
22 0 m 29
 22 500 l 25
 359 500 l 25
 359 0 l 25
 284 0 l 25
 284 400 l 25
 97 400 l 25
 97 0 l 25
 22 0 l 29
EndSplineSet
EndChar

StartChar: uni0440
Encoding: 1088 1088 159
Width: 381
Flags: HW
HStem: -200 21G<21.5 96.5> 0 100<134.5 284.5> 100 100<96.5 134.5> 300 100<96.5 134.5> 400 100<134.5 284.5>
VStem: 22 112<100 200 300 400> 22 75<-200 100 200 300 400 500> 134 188<0 100 400 500> 284 75<100 400>
LayerCount: 2
Back
Fore
SplineSet
134 300 m 29x9480
 97 300 l 25
 97 200 l 25xb2
 134 200 l 25xb4
 134 100 l 25
 284 100 l 25
 284 400 l 25xcc80
 134 400 l 25
 134 300 l 29x9480
22 500 m 25xaa
 97 500 l 25xaa
 97 400 l 25x92
 134 400 l 25x94
 134 500 l 25
 322 500 l 25
 322 400 l 25x89
 359 400 l 25
 359 100 l 25xa880
 322 100 l 25xa9
 322 0 l 25
 134 0 l 25xc1
 134 100 l 25xc4
 97 100 l 25
 97 -200 l 25
 22 -200 l 25
 22 500 l 25xaa
EndSplineSet
EndChar

StartChar: uni0441
Encoding: 1089 1089 160
Width: 381
Flags: HW
HStem: 0 100<134.5 359.5> 200 100<21.5 59.5> 400 100<134.5 359.5>
VStem: 22 75<200 300> 60 75<100 200 300 400>
CounterMasks: 1 e0
LayerCount: 2
Back
Fore
SplineSet
97 500 m 29xf0
 360 500 l 25
 360 400 l 25
 135 400 l 25
 135 300 l 25xe8
 97 300 l 25
 97 200 l 25xf0
 135 200 l 25
 135 100 l 25xe8
 360 100 l 25
 360 0 l 25
 97 0 l 25
 97 100 l 25xf0
 60 100 l 25
 60 200 l 25xe8
 22 200 l 25
 22 300 l 25xf0
 60 300 l 25
 60 400 l 25xe8
 97 400 l 25
 97 500 l 29xf0
EndSplineSet
EndChar

StartChar: uni0442
Encoding: 1090 1090 161
Width: 375
Flags: HW
HStem: 0 21G<149.5 225.5> 400 100<-0.5 149.5 225.5 375.5>
VStem: 150 75<0 400>
LayerCount: 2
Back
Fore
SplineSet
-0 500 m 1
 376 500 l 1
 376 400 l 5
 226 400 l 1
 226 0 l 25
 150 0 l 25
 150 400 l 1
 -0 400 l 1
 -0 500 l 1
EndSplineSet
EndChar

StartChar: uni0443
Encoding: 1091 1091 162
Width: 381
Flags: HW
HStem: -200 100<21.5 96.5> 400 100<21.5 59.5 321.5 359.5>
VStem: 22 75<400 500> 60 75<300 400> 96 75<-100 0 200 300> 134 112<100 200> 134 75<0 100> 210 75<200 300> 246 75<300 400> 284 75<400 500>
LayerCount: 2
Back
Fore
SplineSet
22 500 m 29xe0
 97 500 l 25
 97 400 l 25xe0
 135 400 l 25
 135 300 l 25xd0
 171 300 l 25
 171 200 l 25
 209 200 l 25
 209 300 l 25xc9
 246 300 l 25
 246 400 l 25xc080
 285 400 l 25
 285 500 l 25
 359 500 l 25
 359 400 l 25xc040
 321 400 l 25
 321 300 l 25xc080
 285 300 l 25
 285 200 l 25xc1
 246 200 l 25
 246 100 l 25xc4
 209 100 l 25
 209 0 l 25xc2
 171 0 l 25
 171 -100 l 25xc8
 135 -100 l 25
 135 -200 l 25
 22 -200 l 25
 22 -100 l 25xe2
 97 -100 l 25
 97 0 l 25xc8
 135 0 l 25xc2
 135 200 l 25xc4
 97 200 l 25
 97 300 l 25xc8
 60 300 l 25
 60 400 l 25xd0
 22 400 l 25
 22 500 l 29xe0
EndSplineSet
EndChar

StartChar: uni0444
Encoding: 1092 1092 163
Width: 375
Flags: HW
HStem: -200 21G<149.5 225.5> 0 100<75.5 149.5 225.5 299.5> 400 100<75.5 149.5 225.5 299.5> 680 20G<149.5 225.5>
VStem: -0 75<100 400> 150 75<-200 0 100 400 500 700> 300 75<100 400>
CounterMasks: 1 0e
LayerCount: 2
Back
Fore
SplineSet
150 400 m 29
 76 400 l 25
 76 100 l 25
 150 100 l 25
 150 400 l 29
226 400 m 25
 226 100 l 25
 300 100 l 25
 300 400 l 25
 226 400 l 25
150 700 m 25
 226 700 l 25
 226 500 l 25
 338 500 l 25
 338 400 l 25
 376 400 l 25
 376 100 l 25
 338 100 l 25
 338 0 l 25
 226 0 l 25
 226 -200 l 25
 150 -200 l 25
 150 0 l 25
 38 0 l 25
 38 100 l 25
 -0 100 l 25
 -0 400 l 25
 38 400 l 25
 38 500 l 25
 150 500 l 25
 150 700 l 25
EndSplineSet
EndChar

StartChar: uni0445
Encoding: 1093 1093 164
Width: 375
Flags: HW
HStem: 0 100<-0.5 75.5 299.5 375.5> 200 100<149.5 225.5> 400 100<-0.5 75.5 299.5 375.5>
VStem: -0 112<0 100 400 500> 76 75<100 200 300 400> 226 75<100 200 300 400> 262 112<0 100 400 500>
CounterMasks: 1 e0
LayerCount: 2
Back
Fore
SplineSet
-0 500 m 29xf0
 112 500 l 25
 112 400 l 25xf0
 150 400 l 25
 150 300 l 25
 226 300 l 25
 226 400 l 25xec
 262 400 l 25
 262 500 l 25
 376 500 l 25
 376 400 l 25xe2
 300 400 l 25
 300 300 l 25xe4
 262 300 l 25
 262 200 l 25xe2
 300 200 l 25
 300 100 l 25xe4
 376 100 l 25
 376 0 l 25
 262 0 l 25
 262 100 l 25xe2
 226 100 l 25
 226 200 l 25
 150 200 l 25
 150 100 l 25xec
 112 100 l 25
 112 0 l 25
 -0 0 l 25
 -0 100 l 25xf0
 76 100 l 25
 76 200 l 25xe8
 112 200 l 25
 112 300 l 25xf0
 76 300 l 25
 76 400 l 25xe8
 -0 400 l 25
 -0 500 l 29xf0
EndSplineSet
EndChar

StartChar: uni0446
Encoding: 1094 1094 165
Width: 381
Flags: HW
HStem: 0 100<96.5 209.5> 480 20G<21.5 96.5 209.5 284.5>
VStem: 22 75<100 500> 210 75<100 500> 284 75<-100 0>
LayerCount: 2
Back
Fore
SplineSet
22 500 m 29xe8
 97 500 l 25
 97 100 l 25
 210 100 l 25
 210 500 l 25
 285 500 l 25
 285 100 l 25xf0
 359 100 l 25
 359 -100 l 25
 285 -100 l 25
 285 0 l 25
 22 0 l 25
 22 500 l 29xe8
EndSplineSet
EndChar

StartChar: uni0447
Encoding: 1095 1095 166
Width: 381
Flags: HW
HStem: 0 21G<284.5 359.5> 200 100<96.5 284.5> 480 20G<21.5 96.5 284.5 359.5>
VStem: 22 75<300 500> 284 75<0 200 300 500>
LayerCount: 2
Back
Fore
SplineSet
22 500 m 29
 97 500 l 25
 97 300 l 25
 284 300 l 25
 284 500 l 25
 359 500 l 25
 359 0 l 25
 284 0 l 25
 284 200 l 25
 60 200 l 25
 60 300 l 25
 22 300 l 25
 22 500 l 29
EndSplineSet
EndChar

StartChar: uni0448
Encoding: 1096 1096 167
Width: 375
Flags: HW
HStem: 0 100<75.5 149.5 225.5 299.5> 480 20G<-0.5 75.5 149.5 225.5 299.5 375.5>
VStem: -0 75<100 500> 150 75<100 500> 300 75<100 500>
CounterMasks: 1 38
LayerCount: 2
Back
Fore
SplineSet
-0 500 m 29
 76 500 l 25
 76 100 l 25
 150 100 l 25
 150 500 l 25
 226 500 l 25
 226 100 l 25
 300 100 l 25
 300 500 l 25
 376 500 l 25
 376 0 l 25
 -0 0 l 25
 -0 500 l 29
EndSplineSet
EndChar

StartChar: uni0449
Encoding: 1097 1097 168
Width: 381
Flags: HW
HStem: 0 100<59.5 134.5 209.5 284.5> 480 20G<-15.5 59.5 134.5 209.5 284.5 359.5>
VStem: -16 75<100 500> 134 75<100 500> 284 75<100 500> 322 75<-100 0>
LayerCount: 2
Back
Fore
SplineSet
-16 500 m 29xf4
 59 500 l 25
 59 100 l 25
 134 100 l 25
 134 500 l 25
 209 500 l 25
 209 100 l 25
 284 100 l 25
 284 500 l 25
 359 500 l 25
 359 100 l 25xf8
 397 100 l 25
 397 -100 l 25
 322 -100 l 25
 322 0 l 25
 -16 0 l 25
 -16 500 l 29xf4
EndSplineSet
EndChar

StartChar: uni044A
Encoding: 1098 1098 169
Width: 375
Flags: HW
HStem: 0 100<149.5 299.5> 100 100<337.5 375.5> 200 100<149.5 299.5> 400 100<-0.5 75.5>
VStem: 76 75<100 200 300 400> 300 75<100 200>
LayerCount: 2
Back
Fore
SplineSet
150 200 m 29xbc
 150 100 l 25
 300 100 l 25
 300 200 l 25
 150 200 l 29xbc
-0 500 m 25
 150 500 l 25
 150 300 l 25
 338 300 l 25xbc
 338 200 l 25
 376 200 l 25
 376 100 l 25
 338 100 l 25x5c
 338 0 l 25
 76 0 l 25
 76 400 l 25
 -0 400 l 25
 -0 500 l 25
EndSplineSet
EndChar

StartChar: uni044B
Encoding: 1099 1099 170
Width: 375
Flags: HW
HStem: 0 100<75.5 187.5> 100 100<225.5 262.5> 200 100<75.5 187.5> 480 20G<-0.5 75.5 299.5 375.5>
VStem: -0 225<0 100 200 300> -0 75<100 200 300 500> 188 75<100 200> 300 75<0 500>
LayerCount: 2
Back
Fore
SplineSet
300 0 m 29x91
 300 500 l 25
 376 500 l 25
 376 0 l 25
 300 0 l 29x91
76 200 m 25xb7
 76 100 l 25
 188 100 l 25
 188 200 l 25
 76 200 l 25xb7
-0 500 m 25
 76 500 l 25
 76 300 l 25xb5
 226 300 l 25xb9
 226 200 l 25x59
 263 200 l 25
 263 100 l 25x53
 226 100 l 25x59
 226 0 l 25
 -0 0 l 25x99
 -0 500 l 25
EndSplineSet
EndChar

StartChar: uni044C
Encoding: 1100 1100 171
Width: 381
Flags: HW
HStem: 0 100<96.5 284.5> 100 100<321.5 359.5> 200 100<96.5 284.5> 480 20G<21.5 96.5>
VStem: 22 75<100 200 300 500> 284 75<100 200>
LayerCount: 2
Back
Fore
SplineSet
97 100 m 1xbc
 284 100 l 1
 284 200 l 1
 97 200 l 1
 97 100 l 1xbc
22 500 m 1
 97 500 l 1
 97 300 l 5
 322 300 l 1xbc
 322 200 l 25
 359 200 l 25
 359 100 l 25
 322 100 l 25x5c
 322 0 l 1
 22 0 l 1
 22 500 l 1
EndSplineSet
EndChar

StartChar: uni044D
Encoding: 1101 1101 172
Width: 381
Flags: HW
HStem: 0 100<96.5 284.5> 100 100<21.5 59.5> 200 100<171.5 284.5> 300 100<21.5 59.5> 400 100<96.5 284.5>
VStem: 22 75<100 200 300 400> 284 75<100 200 300 400>
LayerCount: 2
Back
Fore
SplineSet
22 300 m 29x16
 22 400 l 25
 60 400 l 25x16
 60 500 l 25
 322 500 l 25
 322 400 l 25
 359 400 l 25
 359 100 l 25
 322 100 l 25x4e
 322 0 l 25
 60 0 l 25x86
 60 100 l 25
 22 100 l 25
 22 200 l 25x46
 97 200 l 25
 97 100 l 25
 284 100 l 25
 284 200 l 25
 172 200 l 25
 172 300 l 25
 284 300 l 25
 284 400 l 25
 97 400 l 25xae
 97 300 l 25
 22 300 l 29x16
EndSplineSet
EndChar

StartChar: uni044E
Encoding: 1102 1102 173
Width: 381
Flags: HW
HStem: 0 100<209.5 284.5> 200 100<96.5 134.5> 400 100<209.5 284.5>
VStem: 22 75<0 200 300 500> 134 75<100 200 300 400> 172 150<0 100 400 500> 284 75<100 400>
CounterMasks: 1 e0
LayerCount: 2
Back
Fore
SplineSet
209 100 m 29xfa
 284 100 l 25
 284 400 l 25
 209 400 l 25
 209 100 l 29xfa
22 0 m 25
 22 500 l 25
 97 500 l 25
 97 300 l 25
 134 300 l 25
 134 400 l 25xf8
 172 400 l 25
 172 500 l 25
 322 500 l 25
 322 400 l 25xf4
 359 400 l 25
 359 100 l 25xf2
 322 100 l 25
 322 0 l 25
 172 0 l 25
 172 100 l 25xf4
 134 100 l 25
 134 200 l 25
 97 200 l 25
 97 0 l 25
 22 0 l 25
EndSplineSet
EndChar

StartChar: uni044F
Encoding: 1103 1103 174
Width: 368
Flags: HW
HStem: 0 100<53 128> 200 100<90 128 240 278> 300 100<15 53> 400 100<90 278>
VStem: 15 75<300 400> 53 112<0 100> 128 112<100 200> 278 75<0 200 300 400>
LayerCount: 2
Back
Fore
SplineSet
90 400 m 29xd9
 90 300 l 25
 278 300 l 25
 278 400 l 25
 90 400 l 29xd9
15 400 m 25xa9
 53 400 l 25xa5
 53 500 l 25x95
 353 500 l 25
 353 0 l 25
 278 0 l 25
 278 200 l 25
 240 200 l 25
 240 100 l 25xd3
 165 100 l 25
 165 0 l 25
 53 0 l 25
 53 100 l 25xd5
 128 100 l 25
 128 200 l 25xd3
 53 200 l 25xd5
 53 300 l 25xa5
 15 300 l 25
 15 400 l 25xa9
EndSplineSet
EndChar

StartChar: uni2116
Encoding: 8470 8470 175
Width: 375
Flags: HW
HStem: 0 21G<-37.5 37.5 112.5 187.5> 200 100<225.5 412.5> 400 100<299.5 337.5> 500 100<225.5 262.5 375.5 412.5> 600 100<299.5 337.5>
VStem: -38 112<400 600> -38 75<0 250 600 700> 76 112<100 250> 112 75<0 100 400 700> 226 75<500 600> 262 112<400 500 600 700> 338 75<500 600>
LayerCount: 2
Back
Fore
SplineSet
226 300 m 29xc050
 413 300 l 25
 413 200 l 25
 226 200 l 25
 226 300 l 29xc050
300 600 m 25xe850
 300 500 l 25
 338 500 l 25
 338 600 l 25
 300 600 l 25xe850
262 600 m 25xd020
 262 700 l 25
 376 700 l 25xc820
 376 600 l 25xd020
 413 600 l 25
 413 500 l 25xd010
 376 500 l 25xd020
 376 400 l 25
 262 400 l 25xe020
 262 500 l 25xd020
 226 500 l 25
 226 600 l 25xd040
 262 600 l 25xd020
-38 0 m 25xeb
 -38 700 l 25
 37 700 l 25
 37 600 l 25xeb
 76 600 l 25
 76 400 l 25
 112 400 l 25
 112 700 l 25
 188 700 l 25
 188 0 l 25
 112 0 l 25
 112 100 l 25xec80
 76 100 l 25
 76 250 l 25
 37 250 l 25
 37 0 l 25
 -38 0 l 25xeb
EndSplineSet
EndChar

StartChar: asciitilde
Encoding: 126 126 176
Width: 381
Flags: HW
HStem: 500 100<21.5 59.5 209.5 284.5> 600 100<96.5 171.5 321.5 359.5>
VStem: 22 75<501 600> 284 75<600 700>
LayerCount: 2
Back
Fore
SplineSet
22 600 m 29xb0
 60 600 l 25xb0
 60 700 l 25
 210 700 l 25x70
 210 600 l 25
 284 600 l 25xb0
 284 700 l 25
 359 700 l 25
 359 600 l 25
 322 600 l 25x70
 322 500 l 25
 172 500 l 25xb0
 172 600 l 25
 97 600 l 25x70
 97 500 l 25
 22 501 l 25
 22 600 l 29xb0
EndSplineSet
EndChar

StartChar: section
Encoding: 167 167 177
Width: 375
Flags: HW
HStem: 0 100<75.5 187.5> 100 100<-0.5 37.5> 200 100<149.5 187.5> 300 100<75.5 112.5 262.5 299.5> 400 100<187.5 225.5> 500 100<337.5 375.5> 600 100<187.5 299.5>
VStem: -0 75<100 200> 76 75<300 400> 112 75<500 600> 188 75<100 200> 226 75<300 400> 300 75<500 600>
LayerCount: 2
Back
Fore
SplineSet
226 400 m 29x0890
 150 400 l 25
 150 300 l 25x2890
 226 300 l 25x1090
 226 400 l 29x0890
300 500 m 25x0488
 300 600 l 25
 187 600 l 25
 187 500 l 25x0a48
 263 500 l 25
 263 400 l 25x1420
 300 400 l 25
 300 300 l 25x1410
 263 300 l 25
 263 100 l 25x5420
 226 100 l 25x5410
 226 0 l 25
 38 0 l 25x8010
 38 100 l 25
 -0 100 l 25
 -0 200 l 25x4110
 76 200 l 25
 76 100 l 25
 187 100 l 25
 187 200 l 25xa120
 112 200 l 25xa040
 112 300 l 25x1040
 76 300 l 25
 76 400 l 25x1080
 112 400 l 25
 112 600 l 25x1240
 150 600 l 25
 150 700 l 25
 338 700 l 25x1280
 338 600 l 25
 376 600 l 25
 376 500 l 25
 300 500 l 25x0488
EndSplineSet
EndChar

StartChar: parenleft
Encoding: 40 40 178
Width: 368
Flags: HW
HStem: 0 100<203 278> 600 100<203 278>
VStem: 90 75<200 500> 128 75<100 200 500 600> 165 112<0 100 600 700>
LayerCount: 2
Back
Fore
SplineSet
165 600 m 29xc8
 165 700 l 25
 278 700 l 25
 278 600 l 25xc8
 203 600 l 25
 203 500 l 25xd0
 165 500 l 25
 165 200 l 25xe0
 203 200 l 25
 203 100 l 25xd0
 278 100 l 25
 278 0 l 25
 165 0 l 25
 165 100 l 25xc8
 128 100 l 25
 128 200 l 25xd0
 90 200 l 25
 90 500 l 25xe0
 128 500 l 25
 128 600 l 25xd0
 165 600 l 29xc8
EndSplineSet
EndChar

StartChar: quotedbl
Encoding: 34 34 179
Width: 375
Flags: HW
HStem: 400 100<37.5 75.5 225.5 262.5> 600 100<37.5 75.5 225.5 262.5>
VStem: 38 75<400 500> 76 75<500 600> 226 75<400 500> 262 75<500 600>
LayerCount: 2
Back
Fore
SplineSet
226 400 m 29xc8
 226 500 l 29xc8
 262 500 l 29
 262 600 l 29xc4
 226 600 l 29
 226 700 l 29xc8
 337 700 l 29
 337 500 l 29xc4
 300 500 l 29
 300 400 l 29
 226 400 l 29xc8
38 600 m 29xe0
 38 700 l 29xe0
 150 700 l 29
 150 500 l 29xd0
 113 500 l 29
 113 400 l 29
 38 400 l 29
 38 500 l 29xe0
 76 500 l 29
 76 600 l 29xd0
 38 600 l 29xe0
EndSplineSet
EndChar

StartChar: numbersign
Encoding: 35 35 180
Width: 375
Flags: HW
HStem: 0 21G<75.5 149.5 225.5 299.5> 200 100<-0.5 75.5 149.5 225.5 299.5 375.5> 400 100<-0.5 75.5 149.5 225.5 299.5 375.5> 680 20G<75.5 149.5 225.5 299.5>
VStem: 76 75<0 200 300 400 500 700> 226 75<0 200 300 400 500 700>
LayerCount: 2
Back
Fore
SplineSet
150 300 m 29
 226 300 l 25
 226 400 l 25
 150 400 l 25
 150 300 l 29
76 700 m 25
 150 700 l 25
 150 500 l 25
 226 500 l 25
 226 700 l 25
 300 700 l 25
 300 500 l 25
 376 500 l 25
 376 400 l 25
 300 400 l 25
 300 300 l 25
 376 300 l 25
 376 200 l 25
 300 200 l 25
 300 0 l 25
 226 0 l 25
 226 200 l 25
 150 200 l 25
 150 0 l 25
 76 0 l 25
 76 200 l 25
 -0 200 l 25
 -0 300 l 25
 76 300 l 25
 76 400 l 25
 -0 400 l 25
 -0 500 l 25
 76 500 l 25
 76 700 l 25
EndSplineSet
EndChar

StartChar: dollar
Encoding: 36 36 181
Width: 375
Flags: HW
HStem: 0 100<75.5 149.5 225.5 299.5> 100 100<-0.5 37.5> 300 100<75.5 149.5 225.5 299.5> 500 100<337.5 375.5> 600 100<75.5 149.5 225.5 299.5>
VStem: -0 75<100 200 400 600> 38 300<0 100 300 400 600 700> 150 75<-100 0 100 300 400 600 700 800> 300 75<100 300 500 600>
LayerCount: 2
Back
Fore
SplineSet
300 100 m 29xa180
 300 300 l 25
 226 300 l 25
 226 100 l 25
 300 100 l 29xa180
150 600 m 25x2d
 76 600 l 25
 76 400 l 25
 150 400 l 25
 150 600 l 25x2d
226 800 m 25
 226 700 l 1xa9
 338 700 l 25xaa
 338 600 l 25x32
 376 600 l 25
 376 500 l 25
 300 500 l 25x3080
 300 600 l 25
 226 600 l 25
 226 400 l 25x2980
 338 400 l 25
 338 300 l 25x2a
 376 300 l 25
 376 100 l 25x6880
 338 100 l 25x6a
 338 0 l 25xa2
 226 0 l 25
 226 -100 l 25
 150 -100 l 25
 150 0 l 25xa1
 38 0 l 25xa2
 38 100 l 25x62
 -0 100 l 25
 -0 200 l 25
 76 200 l 25x64
 76 100 l 25
 150 100 l 25
 150 300 l 25xa5
 38 300 l 25
 38 400 l 25xa2
 -0 400 l 25
 -0 600 l 25xac
 38 600 l 25
 38 700 l 25xaa
 150 700 l 25
 150 800 l 1
 226 800 l 25
EndSplineSet
EndChar

StartChar: percent
Encoding: 37 37 182
Width: 375
Flags: HW
HStem: 0 100<37.5 75.5 299.5 337.5> 100 100<225.5 262.5 375.5 412.5> 200 100<299.5 337.5> 400 100<37.5 75.5> 500 100<-37.5 -0.5 112.5 149.5> 600 100<37.5 75.5 299.5 337.5>
VStem: -38 75<500 600> -0 112<400 500 600 700> 38 75<0 100> 76 75<100 200 500 600> 112 75<200 300> 150 75<300 400> 188 75<400 500> 226 75<100 200 500 600> 262 112<0 100 200 300> 262 75<600 700> 338 75<100 200>
LayerCount: 2
Back
Fore
SplineSet
263 700 m 29x0401
 337 700 l 25
 337 600 l 25x0401
 300 600 l 25x0404
 300 500 l 25x0804
 263 500 l 25x0808
 263 400 l 25x1008
 226 400 l 25
 226 300 l 25x3010
 187 300 l 25
 187 200 l 25x3020
 150 200 l 25x3040
 150 100 l 25x4040
 113 100 l 25x4080
 113 0 l 25
 37 0 l 25
 37 100 l 25x8080
 76 100 l 25
 76 200 l 25xa040
 113 200 l 25
 113 300 l 25xa020
 150 300 l 25
 150 400 l 25xb010
 187 400 l 25xb008
 187 500 l 25x0808
 226 500 l 25x0804
 226 600 l 25x0404
 263 600 l 25
 263 700 l 29x0401
300 100 m 25xa00480
 337 100 l 25
 337 200 l 25
 300 200 l 25
 300 100 l 25xa00480
263 300 m 25x2002
 376 300 l 25x2002
 376 200 l 25x4002
 413 200 l 25
 413 100 l 25x400080
 376 100 l 25x4002
 376 0 l 25
 263 0 l 25x8002
 263 100 l 25x4002
 226 100 l 25
 226 200 l 25x4004
 263 200 l 25x4002
 263 300 l 25x2002
37 600 m 25x1640
 37 500 l 25
 76 500 l 25
 76 600 l 25
 37 600 l 25x1640
-38 600 m 25x0a
 -0 600 l 25x09
 -0 700 l 25
 113 700 l 25x05
 113 600 l 25x09
 150 600 l 25
 150 500 l 25x0840
 113 500 l 25x09
 113 400 l 25
 -0 400 l 25x11
 -0 500 l 25x09
 -38 500 l 25
 -38 600 l 25x0a
EndSplineSet
EndChar

StartChar: ampersand
Encoding: 38 38 183
Width: 381
Flags: HW
HStem: 0 100<59.5 209.5 321.5 396.5> 100 100<-15.5 21.5 246.5 284.5> 200 100<321.5 359.5> 300 100<96.5 171.5> 600 100<96.5 171.5>
VStem: -16 75<100 200> 22 75<200 300 400 600> 60 150<300 400 600 700> 172 75<200 300 400 600> 284 112<0 100> 284 75<200 300>
LayerCount: 2
Back
Fore
SplineSet
97 300 m 29x1a80
 97 200 l 25x2a80
 59 200 l 25
 59 100 l 25xac
 210 100 l 25
 210 200 l 25xa9
 172 200 l 25xa880
 172 300 l 25
 97 300 l 29x1a80
97 600 m 25
 97 400 l 25
 172 400 l 25x1a80
 172 600 l 25
 97 600 l 25
59 700 m 25x59
 210 700 l 25
 210 600 l 25x59
 247 600 l 25
 247 400 l 25x5880
 210 400 l 25
 210 300 l 25x59
 247 300 l 25
 247 200 l 25
 284 200 l 25
 284 300 l 25x58a0
 359 300 l 25
 359 200 l 25x28a0
 322 200 l 25
 322 100 l 25
 396 100 l 25
 396 0 l 25
 284 0 l 25xa840
 284 100 l 25
 247 100 l 25x48c0
 247 0 l 25
 22 0 l 25x8ac0
 22 100 l 25x4ac0
 -16 100 l 25
 -16 200 l 25x4c
 22 200 l 25
 22 300 l 25x5a
 59 300 l 25
 59 400 l 25x59
 22 400 l 25
 22 600 l 25x5a
 59 600 l 25
 59 700 l 25x59
EndSplineSet
EndChar

StartChar: quotesingle
Encoding: 39 39 184
Width: 375
Flags: HW
HStem: 400 100<37.5 75.5 225.5 262.5> 600 100<37.5 75.5 225.5 262.5>
VStem: 38 75<400 500> 76 75<500 600> 226 75<400 500> 262 75<500 600>
LayerCount: 2
Back
Fore
SplineSet
226 400 m 29xc8
 226 500 l 29xc8
 262 500 l 29
 262 600 l 29xc4
 226 600 l 29
 226 700 l 29xc8
 337 700 l 29
 337 500 l 29xc4
 300 500 l 29
 300 400 l 29
 226 400 l 29xc8
38 600 m 29xe0
 38 700 l 29xe0
 150 700 l 29
 150 500 l 29xd0
 113 500 l 29
 113 400 l 29
 38 400 l 29
 38 500 l 29xe0
 76 500 l 29
 76 600 l 29xd0
 38 600 l 29xe0
EndSplineSet
EndChar

StartChar: parenright
Encoding: 41 41 185
Width: 381
Flags: HW
HStem: 0 100<96.5 171.5> 600 100<96.5 171.5>
VStem: 96 112<0 100 600 700> 172 75<100 200 500 600> 210 75<200 500>
LayerCount: 2
Back
Fore
SplineSet
96 700 m 29xe0
 210 700 l 25
 210 600 l 25xe0
 247 600 l 25
 247 500 l 25xd0
 285 500 l 25
 285 200 l 25xc8
 247 200 l 25
 247 100 l 25xd0
 210 100 l 25
 210 0 l 25
 96 0 l 25
 96 100 l 25xe0
 172 100 l 25
 172 200 l 25xd0
 210 200 l 25
 210 500 l 25xc8
 172 500 l 25
 172 600 l 25xd0
 96 600 l 25
 96 700 l 29xe0
EndSplineSet
EndChar

StartChar: braceleft
Encoding: 123 123 186
Width: 375
Flags: HW
HStem: 0 100<225.5 299.5> 300 100<75.5 149.5> 600 100<225.5 299.5>
VStem: 76 112<300 400> 150 75<100 300 400 600> 188 112<0 100 600 700>
CounterMasks: 1 e0
LayerCount: 2
Back
Fore
SplineSet
300 700 m 29xe4
 300 600 l 1xe4
 226 600 l 25
 226 400 l 25xe8
 188 400 l 25
 188 300 l 25xf0
 226 300 l 25
 226 100 l 25xe8
 300 100 l 25
 300 0 l 25
 188 0 l 25
 188 100 l 25xe4
 150 100 l 25
 150 300 l 25xe8
 76 300 l 25
 76 400 l 25xf0
 150 400 l 25
 150 600 l 25xe8
 188 600 l 25
 188 700 l 1
 300 700 l 29xe4
EndSplineSet
EndChar

StartChar: bar
Encoding: 124 124 187
Width: 375
Flags: HW
HStem: 0 21G<149.5 225.5> 680 20G<149.5 225.5>
VStem: 150 75<0 700>
LayerCount: 2
Back
Fore
SplineSet
150 700 m 29
 226 700 l 25
 226 0 l 25
 150 0 l 25
 150 700 l 29
EndSplineSet
EndChar

StartChar: braceright
Encoding: 125 125 188
Width: 375
Flags: HW
HStem: 0 100<75.5 149.5> 300 100<225.5 299.5> 600 100<75.5 149.5>
VStem: 76 112<0 100 600 700> 150 75<100 300 400 600> 188 112<300 400>
CounterMasks: 1 e0
LayerCount: 2
Back
Fore
SplineSet
76 700 m 29xf0
 188 700 l 25
 188 600 l 25xf0
 226 600 l 25
 226 400 l 25xe8
 300 400 l 25
 300 300 l 25xe4
 226 300 l 25
 226 100 l 25xe8
 188 100 l 25
 188 0 l 25
 76 0 l 25
 76 100 l 25xf0
 150 100 l 25
 150 300 l 25xe8
 188 300 l 25
 188 400 l 25xe4
 150 400 l 25
 150 600 l 25xe8
 76 600 l 25
 76 700 l 29xf0
EndSplineSet
EndChar

StartChar: uni0451
Encoding: 1105 1105 189
Width: 381
Flags: HW
HStem: 0 100<96.5 321.5> 200 100<96.5 284.5> 400 100<96.5 284.5> 600 100<59.5 134.5 246.5 321.5>
VStem: 22 75<100 200 300 400> 60 75<600 700> 246 75<600 700> 284 75<300 400>
LayerCount: 2
Back
Fore
SplineSet
246 700 m 25xf2
 321 700 l 25
 321 600 l 25
 246 600 l 25
 246 700 l 25xf2
60 700 m 25xf4
 135 700 l 25
 135 600 l 25
 60 600 l 25
 60 700 l 25xf4
97 400 m 1xf9
 97 300 l 1
 284 300 l 1
 284 400 l 1
 97 400 l 1xf9
60 400 m 1xf4
 60 500 l 1
 321 500 l 1
 321 400 l 25xf6
 359 400 l 25
 359 200 l 1
 97 200 l 1
 97 100 l 1xf9
 321 100 l 1
 321 0 l 1
 60 0 l 1
 60 100 l 1xf6
 22 100 l 1
 22 400 l 5xf8
 60 400 l 1xf4
EndSplineSet
EndChar

StartChar: underscore
Encoding: 95 95 190
Width: 375
Flags: HW
HStem: -100 100<-0.5 375.5>
LayerCount: 2
Back
Fore
SplineSet
-0 -100 m 29
 -0 0 l 1
 376 0 l 25
 376 -100 l 1
 -0 -100 l 29
EndSplineSet
EndChar

StartChar: asciicircum
Encoding: 94 94 191
Width: 381
Flags: HW
HStem: 400 100<59.5 96.5 284.5 321.5> 600 100<171.5 209.5>
VStem: 60 75<400 500> 96 75<500 600> 210 75<500 600> 246 75<400 500>
LayerCount: 2
Back
Fore
SplineSet
60 400 m 29xe0
 60 500 l 25xe0
 96 500 l 25
 96 600 l 25xd0
 135 600 l 25
 135 700 l 25
 246 700 l 25
 246 600 l 25xe4
 285 600 l 25
 285 500 l 25xc8
 321 500 l 25
 321 400 l 25
 246 400 l 25
 246 500 l 25xc4
 210 500 l 25
 210 600 l 25
 171 600 l 25
 171 500 l 25xd8
 135 500 l 25
 135 400 l 25
 60 400 l 29xe0
EndSplineSet
EndChar

StartChar: grave
Encoding: 96 96 192
Width: 362
Flags: HW
HStem: 400 100<219 256> 600 100<106 143>
VStem: 106 75<600 700> 143 75<500 600> 181 75<400 500>
LayerCount: 2
Back
Fore
SplineSet
106 700 m 29xe0
 181 700 l 25
 181 600 l 25xe0
 219 600 l 25
 219 500 l 25xd0
 256 500 l 25
 256 400 l 25
 181 400 l 25
 181 500 l 25xc8
 143 500 l 25
 143 600 l 25xd0
 106 600 l 25
 106 700 l 29xe0
EndSplineSet
EndChar

StartChar: bracketleft
Encoding: 91 91 193
Width: 375
Flags: HW
HStem: 0 100<187.5 262.5> 600 100<187.5 262.5>
VStem: 112 150<0 100 600 700> 112 75<100 600>
LayerCount: 2
Back
Fore
SplineSet
262 600 m 29xe0
 187 600 l 25
 187 100 l 25xd0
 262 100 l 25
 262 0 l 25
 112 0 l 25
 112 700 l 25
 262 700 l 25
 262 600 l 29xe0
EndSplineSet
EndChar

StartChar: bracketright
Encoding: 93 93 194
Width: 375
Flags: HW
HStem: 0 100<112.5 187.5> 600 100<112.5 187.5>
VStem: 112 150<0 100 600 700> 188 75<100 600>
LayerCount: 2
Back
Fore
SplineSet
112 700 m 29xe0
 262 700 l 1
 262 0 l 25
 112 0 l 25
 112 100 l 25xe0
 188 100 l 25
 188 600 l 25xd0
 112 600 l 1
 112 700 l 29xe0
EndSplineSet
EndChar

StartChar: backslash
Encoding: 92 92 195
Width: 375
Flags: HW
HStem: 0 100<299.5 337.5> 600 100<37.5 75.5>
VStem: 38 75<600 700> 76 75<500 600> 112 75<400 500> 150 75<300 400> 188 75<200 300> 226 75<100 200> 262 75<0 100>
LayerCount: 2
Back
Fore
SplineSet
38 600 m 29xe0
 38 700 l 25
 113 700 l 25
 113 600 l 25xe0
 150 600 l 25
 150 500 l 25xd0
 187 500 l 25
 187 400 l 25xc8
 226 400 l 25
 226 300 l 25xc4
 263 300 l 25
 263 200 l 25xc2
 300 200 l 25
 300 100 l 25xc1
 337 100 l 25
 337 0 l 25
 263 0 l 25
 263 100 l 25xc080
 226 100 l 25
 226 200 l 25xc1
 187 200 l 25
 187 300 l 25xc2
 150 300 l 25
 150 400 l 25xc4
 113 400 l 25
 113 500 l 25xc8
 76 500 l 25
 76 600 l 25xd0
 38 600 l 29xe0
EndSplineSet
EndChar

StartChar: Odieresis
Encoding: 214 214 196
Width: 375
Flags: HMW
LayerCount: 2
Back
Fore
SplineSet
112 500 m 29
 112 400 l 25
 76 400 l 25
 76 200 l 25
 112 200 l 25
 112 100 l 25
 262 100 l 25
 262 200 l 25
 300 200 l 25
 300 400 l 25
 262 400 l 25
 262 500 l 25
 112 500 l 29
76 600 m 25
 300 600 l 25
 300 500 l 25
 338 500 l 25
 338 400 l 25
 376 400 l 25
 376 200 l 25
 338 200 l 25
 338 100 l 25
 300 100 l 25
 300 0 l 25
 76 0 l 25
 76 100 l 25
 38 100 l 25
 38 200 l 25
 -0 200 l 25
 -0 400 l 25
 38 400 l 25
 38 500 l 25
 76 500 l 25
 76 600 l 25
226 700 m 25
 226 800 l 25
 300 800 l 25
 300 700 l 25
 226 700 l 25
76 700 m 25
 76 800 l 25
 150 800 l 25
 150 700 l 25
 76 700 l 25
EndSplineSet
EndChar

StartChar: acute
Encoding: 180 180 197
Width: 362
Flags: HW
HStem: 400 100<106 143> 600 100<219 256>
VStem: 106 75<400 500> 143 75<500 600> 181 75<600 700>
LayerCount: 2
Back
Fore
SplineSet
181 600 m 29xc8
 181 700 l 25
 256 700 l 25
 256 600 l 25xc8
 219 600 l 25
 219 500 l 25xd0
 181 500 l 25
 181 400 l 25
 106 400 l 25
 106 500 l 25xe0
 143 500 l 25
 143 600 l 25xd0
 181 600 l 29xc8
EndSplineSet
EndChar

StartChar: plusminus
Encoding: 177 177 198
Width: 375
Flags: HW
HStem: 100 100<37.5 337.5> 451 99<37.5 149.5 225.5 337.5> 680 20G<149.5 225.5>
VStem: 150 75<300 450 550 700>
LayerCount: 2
Back
Fore
SplineSet
38 200 m 29
 338 200 l 25
 338 101 l 25
 38 100 l 25
 38 200 l 29
38 550 m 25
 150 550 l 25
 150 700 l 25
 226 700 l 25
 226 550 l 25
 338 551 l 25
 338 450 l 25
 226 450 l 25
 226 300 l 25
 150 300 l 25
 150 451 l 25
 38 451 l 25
 38 550 l 25
EndSplineSet
EndChar

StartChar: uni20BD
Encoding: 8381 8381 199
Width: 368
Flags: HW
HStem: 0 21G<53 128> 150 100<-22 53 128 278> 300 100<-22 53 128 315> 600 100<128 315>
VStem: 53 75<0 150 250 300 400 600> 315 75<400 600>
LayerCount: 2
Back
Fore
SplineSet
128 400 m 25
 315 400 l 25
 315 600 l 25
 128 600 l 25
 128 400 l 25
53 700 m 25
 353 700 l 25
 353 650 l 25
 390 650 l 25
 390 400 l 25
 353 400 l 25
 353 300 l 25
 128 300 l 25
 128 250 l 1
 278 250 l 5
 278 150 l 1
 128 150 l 1
 128 0 l 25
 53 0 l 25
 53 150 l 25
 -22 150 l 25
 -22 250 l 25
 53 250 l 25
 53 300 l 25
 -22 300 l 25
 -22 400 l 25
 53 400 l 25
 53 700 l 25
EndSplineSet
EndChar

StartChar: Udieresis
Encoding: 220 220 200
Width: 381
Flags: HW
HStem: 0 100<96.5 284.5> 700 100<59.5 134.5 246.5 321.5>
VStem: 22 75<100 600> 60 75<700 800> 246 75<700 800> 284 75<100 600>
LayerCount: 2
Back
Fore
SplineSet
246 800 m 29xc8
 321 800 l 25
 321 700 l 25
 246 700 l 25
 246 800 l 29xc8
60 700 m 25xd0
 60 800 l 25
 135 800 l 25
 135 700 l 25
 60 700 l 25xd0
22 600 m 1xe0
 97 600 l 1
 97 100 l 1
 284 100 l 1
 284 600 l 1
 359 600 l 1
 359 100 l 1xe4
 321 100 l 25
 321 0 l 25
 60 0 l 25
 60 100 l 25xd8
 22 100 l 1
 22 600 l 1xe0
EndSplineSet
EndChar

StartChar: Adieresis
Encoding: 196 196 201
Width: 375
Flags: HW
HStem: 0 21G<-0.5 75.5 299.5 375.5> 200 100<75.5 299.5> 500 100<112.5 262.5> 700 100<75.5 149.5 225.5 299.5>
VStem: -0 75<0 200 300 400> 38 75<400 500> 76 75<700 800> 226 75<700 800> 262 75<400 500> 300 75<0 200 300 400>
LayerCount: 2
Back
Fore
SplineSet
226 700 m 25xf1
 226 800 l 25
 300 800 l 25
 300 700 l 25
 226 700 l 25xf1
76 700 m 25xf2
 76 800 l 25
 150 800 l 25
 150 700 l 25
 76 700 l 25xf2
76 300 m 25xf8
 300 300 l 25
 300 400 l 25xf840
 262 400 l 1
 262 500 l 25
 113 500 l 1
 113 400 l 29xf480
 76 400 l 1
 76 300 l 25xf8
-0 0 m 25
 -0 400 l 1xf840
 38 400 l 25
 38 500 l 25xf4
 76 500 l 25
 76 600 l 25
 300 600 l 25
 300 500 l 25xf240
 337 500 l 25
 337 400 l 25xf080
 376 400 l 25
 376 0 l 25
 300 0 l 25
 300 200 l 25
 76 200 l 25
 76 0 l 1
 -0 0 l 25
EndSplineSet
EndChar

StartChar: adieresis
Encoding: 228 228 202
Width: 375
Flags: HW
HStem: 0 100<75.5 262.5 337.5 374.5> 100 100<-0.5 37.5> 200 100<75.5 262.5> 400 100<37.5 262.5> 600 100<75.5 149.5 225.5 299.5>
VStem: -0 75<100 200> 76 75<600 700> 226 75<600 700> 262 75<100 200 300 400>
LayerCount: 2
Back
Fore
SplineSet
226 600 m 29x19
 226 700 l 29
 300 700 l 29
 300 600 l 29
 226 600 l 29x19
76 600 m 29x1a
 76 700 l 29
 150 700 l 29
 150 600 l 29
 76 600 l 29x1a
76 200 m 25xbc80
 76 100 l 25
 262 100 l 25
 262 200 l 25
 76 200 l 25xbc80
38 500 m 25
 300 500 l 25
 300 400 l 25x39
 337 400 l 25
 337 100 l 25
 374 100 l 25
 376 0 l 25
 38 0 l 25xb880
 38 100 l 25
 -0 100 l 25
 -0 200 l 25
 38 200 l 25x5c80
 38 300 l 25
 262 300 l 25
 262 400 l 25
 38 400 l 25
 38 500 l 25
EndSplineSet
EndChar

StartChar: odieresis
Encoding: 246 246 203
Width: 381
Flags: HW
HStem: 0 100<96.5 284.5> 400 100<96.5 284.5> 600 100<59.5 134.5 246.5 321.5>
VStem: 22 75<100 400> 60 75<600 700> 246 75<600 700> 284 75<100 400>
LayerCount: 2
Back
Fore
SplineSet
246 600 m 29xe4
 246 700 l 29
 321 700 l 29
 321 600 l 29
 246 600 l 29xe4
60 600 m 25xe8
 60 700 l 25
 135 700 l 25
 135 600 l 25
 60 600 l 25xe8
97 400 m 25xf2
 97 100 l 25
 284 100 l 25
 284 400 l 25
 97 400 l 25xf2
60 500 m 25xe8
 321 500 l 25
 321 400 l 25xec
 359 400 l 25
 359 100 l 25xe2
 321 100 l 25
 321 0 l 25
 60 0 l 25
 60 100 l 25xec
 22 100 l 25
 22 400 l 25xf0
 60 400 l 25
 60 500 l 25xe8
EndSplineSet
EndChar

StartChar: germandbls
Encoding: 223 223 204
Width: 381
Flags: HW
HStem: 0 100<134.5 284.5> 300 100<171.5 246.5> 600 100<134.5 246.5>
VStem: 22 75<0 500> 60 75<500 600> 172 112<300 400> 246 75<400 600> 284 75<100 300>
CounterMasks: 1 e0
LayerCount: 2
Back
Fore
SplineSet
97 600 m 25xf0
 97 700 l 1
 284 700 l 25
 284 600 l 25xf1
 321 600 l 25
 321 400 l 25xe2
 284 400 l 25
 284 300 l 25xe4
 359 300 l 25
 359 100 l 25xe1
 321 100 l 25
 321 0 l 25xe2
 135 0 l 25
 135 100 l 25
 284 100 l 25xe9
 284 300 l 25
 172 300 l 25
 172 400 l 25xe4
 246 400 l 25
 246 600 l 25
 135 600 l 25
 135 500 l 25xea
 97 500 l 25
 97 0 l 25
 22 0 l 25
 22 500 l 25xf0
 60 500 l 25
 60 600 l 1xe8
 97 600 l 25xf0
EndSplineSet
EndChar

StartChar: uniFFFD
Encoding: 65533 65533 205
Width: 375
Flags: HW
HStem: -200 21G<112.5 262.5> 100 100<149.5 225.5> 480 20G<149.5 225.5> 600 200<112.5 262.5>
VStem: -0 75<400 500> 38 112<0 100> 38 75<500 600> 76 225<-100 0 600 700> 112 150<-200 -100 700 800> 150 75<400 500> 226 112<0 100> 262 75<500 600> 300 112<300 400> 300 75<400 500>
LayerCount: 2
Back
Fore
SplineSet
150 200 m 29xf040
 262 200 l 25
 262 300 l 25xf050
 300 300 l 25xf008
 300 500 l 25xf004
 262 500 l 25
 262 600 l 25
 113 600 l 25
 113 500 l 25xf210
 76 500 l 25
 76 400 l 25
 150 400 l 25
 150 500 l 25
 226 500 l 25xf840
 226 300 l 25xf020
 150 300 l 25
 150 200 l 29xf040
150 0 m 25xf420
 226 0 l 25
 226 100 l 25
 150 100 l 25
 150 0 l 25xf420
-38 200 m 25
 -38 400 l 25
 -0 400 l 25
 -0 500 l 25xf8
 38 500 l 25
 38 600 l 25xf2
 76 600 l 25
 76 700 l 25xf1
 113 700 l 25
 113 800 l 25
 262 800 l 25
 262 700 l 25xf080
 300 700 l 25
 300 600 l 25xf1
 338 600 l 25
 338 500 l 25xf010
 376 500 l 25
 376 400 l 25xf004
 412 400 l 25
 412 200 l 25xf008
 376 200 l 25
 376 100 l 25xf004
 338 100 l 25
 338 0 l 25xf020
 300 0 l 25
 300 -100 l 25xf1
 262 -100 l 25
 262 -200 l 25
 113 -200 l 25
 113 -100 l 25xf080
 76 -100 l 25
 76 0 l 25xf1
 38 0 l 25
 38 100 l 25xf4
 -0 100 l 25
 -0 200 l 25xf8
 -38 200 l 25
EndSplineSet
EndChar

StartChar: Oslash
Encoding: 216 216 206
Width: 375
Flags: HW
HStem: 0 100<112.5 262.5> 600 100<112.5 262.5>
VStem: -0 75<200 500> 38 75<100 200 500 600> 76 225<0 100 600 700> 262 75<100 200 500 600> 300 75<200 500>
LayerCount: 2
Back
Fore
SplineSet
262 100 m 29xd4
 262 200 l 25xd4
 300 200 l 25
 300 500 l 25xc2
 262 500 l 25
 262 600 l 25
 113 600 l 25
 113 500 l 25xd4
 76 500 l 25
 76 200 l 25xe0
 113 200 l 25
 113 100 l 25
 262 100 l 29xd4
300 0 m 25xc8
 76 0 l 25
 76 100 l 25xc8
 38 100 l 25
 38 200 l 25xd0
 -0 200 l 25
 -0 500 l 25xe0
 38 500 l 25
 38 600 l 25xd0
 76 600 l 25
 76 700 l 25
 300 700 l 25
 300 600 l 25xc8
 337 600 l 25
 337 500 l 25xc4
 376 500 l 25
 376 200 l 25xc2
 337 200 l 25
 337 100 l 25xc4
 300 100 l 25
 300 0 l 25xc8
EndSplineSet
EndChar

StartChar: multiply
Encoding: 215 215 207
Width: 375
Flags: HMW
LayerCount: 2
Back
Fore
SplineSet
76 200 m 29
 76 300 l 25
 150 300 l 25
 150 400 l 25
 76 400 l 25
 76 500 l 25
 150 500 l 25
 150 400 l 25
 226 400 l 25
 226 500 l 25
 300 500 l 25
 300 400 l 25
 226 400 l 25
 226 300 l 25
 300 300 l 25
 300 200 l 25
 226 200 l 25
 226 300 l 25
 150 300 l 25
 150 200 l 25
 76 200 l 29
EndSplineSet
EndChar

StartChar: divide
Encoding: 247 247 208
Width: 375
Flags: HMW
LayerCount: 2
Back
Fore
SplineSet
150 100 m 29
 150 200 l 25
 226 200 l 25
 226 100 l 25
 150 100 l 29
38 300 m 25
 38 400 l 25
 338 400 l 25
 338 300 l 25
 38 300 l 25
150 500 m 25
 150 600 l 25
 226 600 l 25
 226 500 l 25
 150 500 l 25
EndSplineSet
EndChar

StartChar: brokenbar
Encoding: 166 166 209
Width: 375
Flags: HW
HStem: 0 21G<149.5 225.5> 680 20G<149.5 225.5>
VStem: 150 75<0 700>
LayerCount: 2
Back
Fore
SplineSet
150 700 m 29
 226 700 l 25
 226 0 l 25
 150 0 l 25
 150 700 l 29
EndSplineSet
EndChar

StartChar: degree
Encoding: 176 176 210
Width: 375
Flags: HMW
LayerCount: 2
Back
Fore
SplineSet
150 600 m 29
 150 500 l 25
 226 500 l 25
 226 600 l 25
 150 600 l 29
112 600 m 25
 112 700 l 25
 262 700 l 25
 262 600 l 25
 300 600 l 25
 300 500 l 25
 262 500 l 25
 262 400 l 25
 112 400 l 25
 112 500 l 25
 76 500 l 25
 76 600 l 25
 112 600 l 25
EndSplineSet
EndChar

StartChar: arrowright
Encoding: 8594 8594 211
Width: 368
Flags: HW
HStem: 100 100<165 203> 300 100<-22 203 315 390> 500 100<165 203>
VStem: 165 75<100 200 500 600> 203 112<200 300 400 500>
CounterMasks: 1 e0
LayerCount: 2
Back
Fore
SplineSet
165 500 m 29xf0
 165 600 l 25
 240 600 l 25
 240 500 l 25xf0
 315 500 l 25
 315 400 l 25
 390 400 l 25
 390 300 l 25
 315 300 l 25
 315 200 l 25xe8
 240 200 l 25
 240 100 l 25
 165 100 l 25
 165 200 l 25xf0
 203 200 l 25
 203 300 l 25
 -22 300 l 25
 -22 400 l 25
 203 400 l 25
 203 500 l 25xe8
 165 500 l 29xf0
EndSplineSet
EndChar

StartChar: arrowleft
Encoding: 8592 8592 212
Width: 387
Flags: HW
HStem: 100 100<193.5 231.5> 300 100<5.5 81.5 193.5 381.5> 500 100<193.5 231.5>
VStem: 82 112<200 300 400 500> 156 75<100 200 500 600>
CounterMasks: 1 e0
LayerCount: 2
Back
Fore
SplineSet
156 500 m 29xe8
 156 600 l 25
 232 600 l 25
 232 500 l 25xe8
 194 500 l 25
 194 400 l 25
 382 400 l 25
 382 300 l 25
 194 300 l 25
 194 200 l 25xf0
 232 200 l 25
 232 100 l 25
 156 100 l 25
 156 200 l 25xe8
 82 200 l 25
 82 300 l 25
 6 300 l 25
 6 400 l 25
 82 400 l 25
 82 500 l 25xf0
 156 500 l 29xe8
EndSplineSet
EndChar

StartChar: arrowup
Encoding: 8593 8593 213
Width: 375
Flags: HW
HStem: 0 21G<149.5 225.5> 300 100<37.5 75.5 299.5 337.5> 680 20G<149.5 225.5>
VStem: 38 75<300 400> 150 75<0 400 600 700> 262 75<300 400>
CounterMasks: 1 1c
LayerCount: 2
Back
Fore
SplineSet
113 300 m 29
 38 300 l 25
 38 400 l 25
 76 400 l 25
 76 500 l 25
 113 500 l 25
 113 600 l 25
 150 600 l 25
 150 700 l 25
 226 700 l 25
 226 600 l 25
 262 600 l 25
 262 500 l 25
 300 500 l 25
 300 400 l 25
 337 400 l 25
 337 300 l 25
 262 300 l 25
 262 400 l 25
 226 400 l 25
 226 0 l 25
 150 0 l 25
 150 400 l 25
 113 400 l 25
 113 300 l 29
EndSplineSet
EndChar

StartChar: arrowdown
Encoding: 8595 8595 214
Width: 375
Flags: HW
HStem: 0 21G<149.5 225.5> 300 100<37.5 75.5 299.5 337.5> 680 20G<149.5 225.5>
VStem: 38 75<300 400> 150 75<0 100 300 700> 262 75<300 400>
CounterMasks: 1 1c
LayerCount: 2
Back
Fore
SplineSet
150 300 m 29
 150 700 l 1
 226 700 l 25
 226 300 l 25
 262 300 l 25
 262 400 l 25
 337 400 l 25
 337 300 l 25
 300 300 l 25
 300 200 l 25
 262 200 l 25
 262 100 l 25
 226 100 l 25
 226 0 l 25
 150 0 l 25
 150 100 l 25
 113 100 l 25
 113 200 l 25
 76 200 l 25
 76 300 l 25
 38 300 l 25
 38 400 l 25
 113 400 l 25
 113 300 l 1
 150 300 l 29
EndSplineSet
EndChar

StartChar: arrowboth
Encoding: 8596 8596 215
Width: 450
Flags: HW
HStem: 100 100<75 150 300 375> 200 300<0 75 375 450> 300 100<-75 0 75 375 450 525> 500 100<75 150 300 375>
VStem: 0 75<200 300 400 500> 75 75<100 200 500 600> 300 75<100 200 500 600> 375 75<200 300 400 500>
LayerCount: 2
Back
Fore
SplineSet
-75 300 m 29x28
 -75 400 l 25
 0 400 l 25x28
 0 500 l 25
 75 500 l 25x48
 75 600 l 25
 150 600 l 25
 150 500 l 25x14
 75 500 l 25x48
 75 400 l 25
 375 400 l 25x29
 375 500 l 25x42
 300 500 l 25
 300 600 l 25
 375 600 l 25x12
 375 500 l 25x42
 450 500 l 25x41
 450 400 l 25
 525 400 l 25
 525 300 l 25
 450 300 l 25x21
 450 200 l 25x41
 375 200 l 25
 375 100 l 25
 300 100 l 25
 300 200 l 25
 375 200 l 25x82
 375 300 l 25
 75 300 l 25
 75 200 l 25xa9
 150 200 l 25
 150 100 l 25
 75 100 l 25xa4
 75 200 l 25xa8
 0 200 l 25x48
 0 300 l 25
 -75 300 l 29x28
EndSplineSet
EndChar

StartChar: arrowupdn
Encoding: 8597 8597 216
Width: 375
Flags: HW
HStem: 0 21G<112.5 262.5> 200 100<37.5 75.5 299.5 337.5> 400 100<37.5 75.5 299.5 337.5> 680 20G<112.5 262.5>
VStem: 38 75<200 300 400 500> 76 225<100 200 500 600> 112 150<0 100 600 700> 262 75<200 300 400 500>
LayerCount: 2
Back
Fore
SplineSet
38 200 m 29xf8
 38 300 l 25
 113 300 l 25
 113 200 l 25
 150 200 l 25
 150 500 l 25
 113 500 l 25
 113 400 l 25
 38 400 l 25
 38 500 l 25xf8
 76 500 l 25
 76 600 l 25xf4
 113 600 l 25
 113 700 l 25
 262 700 l 25
 262 600 l 25xf2
 300 600 l 25
 300 500 l 25xf4
 337 500 l 25
 337 400 l 25
 262 400 l 25
 262 500 l 25
 226 500 l 25
 226 200 l 25
 262 200 l 25
 262 300 l 25
 337 300 l 25
 337 200 l 25xf1
 300 200 l 25
 300 100 l 25xf4
 262 100 l 25
 262 0 l 25
 113 0 l 25
 113 100 l 25xf2
 76 100 l 25
 76 200 l 25xf4
 38 200 l 29xf8
EndSplineSet
EndChar

StartChar: uni2600
Encoding: 9728 9728 217
Width: 450
Flags: HW
HStem: -100 100<187 263> 0 100<0 75 375 450> 200 300<113 187 263 337> 300 100<-150 -37 37 113 337 413 487 600> 600 100<-37 37 413 487> 700 100<187 263>
VStem: -150 112<300 400> -37 75<600 700> 0 75<0 100> 113 225<200 300 400 500> 187 75<-100 0 100 200 500 600 700 800> 375 75<0 100> 413 75<600 700> 487 112<300 400>
LayerCount: 2
Back
Fore
SplineSet
413 600 m 25x0808
 413 700 l 25
 487 700 l 25
 487 600 l 25
 413 600 l 25x0808
187 700 m 25x0420
 187 800 l 25
 263 800 l 25
 263 700 l 25
 187 700 l 25x0420
-37 600 m 25x09
 -37 700 l 25
 37 700 l 25
 37 600 l 25
 -37 600 l 25x09
487 300 m 1x1004
 487 400 l 25
 600 400 l 1
 600 300 l 25
 487 300 l 1x1004
-150 300 m 1x12
 -150 400 l 25
 -37 400 l 1
 -37 300 l 25
 -150 300 l 1x12
375 0 m 25x4010
 375 100 l 25
 450 100 l 25
 450 0 l 25
 375 0 l 25x4010
187 -100 m 25x8020
 187 0 l 25
 263 0 l 25
 263 -100 l 25
 187 -100 l 25x8020
0 0 m 25x4080
 0 100 l 25
 75 100 l 25
 75 0 l 25
 0 0 l 25x4080
37 300 m 25x1140
 37 400 l 1
 113 400 l 25x1140
 113 500 l 1x2140
 187 500 l 1
 187 600 l 1
 263 600 l 1
 263 500 l 25x2820
 337 500 l 25x2840
 337 400 l 25
 413 400 l 25
 413 300 l 25
 337 300 l 25x1048
 337 200 l 25x2048
 263 200 l 25
 263 100 l 25
 187 100 l 25
 187 200 l 25x6020
 113 200 l 25x6040
 113 300 l 1
 37 300 l 25x1140
EndSplineSet
EndChar

StartChar: uni2601
Encoding: 9729 9729 218
Width: 375
Flags: HW
HStem: 100 300<37.5 112.5 225.5 337.5> 200 100<-37.5 37.5 375.5 412.5> 480 20G<112.5 225.5>
VStem: 112 112<400 500>
LayerCount: 2
Back
Fore
SplineSet
-38 200 m 29x70
 -38 300 l 25
 38 300 l 25x70
 38 400 l 25
 112 400 l 25
 112 500 l 25
 226 500 l 25
 226 400 l 25
 338 400 l 25xb0
 338 300 l 25
 412 300 l 25
 412 200 l 25
 376 200 l 25x70
 376 100 l 25
 38 100 l 25xb0
 38 200 l 25
 -38 200 l 29x70
EndSplineSet
EndChar

StartChar: uni2602
Encoding: 9730 9730 219
Width: 375
Flags: HW
HStem: -100 100<75.5 149.5> 400 200<37.5 112.5 262.5 337.5> 400 100<-37.5 37.5 337.5 412.5> 680 20G<112.5 262.5>
VStem: 76 112<-100 0> 150 75<0 400>
LayerCount: 2
Back
Fore
SplineSet
-38 400 m 29xb4
 -38 500 l 25
 38 500 l 25xb4
 38 600 l 25
 112 600 l 25
 112 700 l 25
 262 700 l 25
 262 600 l 25
 338 600 l 25xd4
 338 500 l 25
 412 500 l 25
 412 400 l 25
 226 400 l 25
 226 0 l 25xb4
 188 0 l 25
 188 -100 l 25
 76 -100 l 25
 76 0 l 25xb8
 150 0 l 25
 150 400 l 25
 -38 400 l 29xb4
EndSplineSet
EndChar

StartChar: uni2603
Encoding: 9731 9731 220
Width: 375
Flags: HW
HStem: -100 100<-0.5 75.5 337.5 412.5> -100 50<149.5 187.5 225.5 262.5> 0 100<112.5 299.5> 50 50<-37.5 -0.5 375.5 412.5> 100 100<37.5 75.5 337.5 375.5> 150 50<-37.5 -0.5> 200 100<149.5 187.5 225.5 262.5> 250 50<-0.5 37.5 375.5 412.5> 350 50<-37.5 -0.5 375.5 412.5> 400 100<37.5 75.5 149.5 187.5 225.5 262.5 337.5 375.5> 500 100<-0.5 37.5 75.5 112.5 299.5 337.5 375.5 412.5> 600 200<149.5 262.5> 650 50<-0.5 37.5 337.5 375.5> 750 50<-37.5 -0.5 75.5 112.5 299.5 337.5 375.5 412.5>
VStem: -38 38<50 100 150 200 350 400 750 800> -0 38<250 300 500 600 650 700> 38 38<400 500> 76 75<300 400 500 600> 76 38<750 800> 112 75<400 500> 150 38<-100 -50> 226 75<400 500> 226 38<-100 -50> 262 75<300 400 500 600> 300 38<750 800> 338 38<400 500 650 700> 376 38<50 100 250 300 350 400 500 600 750 800>
LayerCount: 2
Back
Fore
SplineSet
150 500 m 29x225041
 187 500 l 29
 187 400 l 29x225010
 150 400 l 29
 150 300 l 29x225040
 187 300 l 29
 187 200 l 29x225008
 112 200 l 29
 112 100 l 29
 300 100 l 29
 300 200 l 29
 226 200 l 29
 226 300 l 29x22501280
 262 300 l 29
 262 400 l 29x225001
 226 400 l 29
 226 500 l 29x225004
 262 500 l 29
 262 600 l 29
 150 600 l 29
 150 500 l 29x225041
-0 -100 m 29x800110a0
 -0 0 l 29
 76 0 l 29
 76 100 l 29x880120
 38 100 l 29
 38 200 l 29x880080
 76 200 l 29x880020
 76 400 l 29
 112 400 l 29x884090
 112 500 l 29x002090
 76 500 l 29x004090
 76 600 l 29x002040
 112 600 l 29
 112 700 l 29x002810
 150 700 l 29x002808
 150 800 l 29
 262 800 l 29x001009
 262 700 l 29x000809
 300 700 l 29
 300 600 l 29x00280080
 337 600 l 29x002801
 337 500 l 29x004001
 300 500 l 29x002004
 300 400 l 29x004004
 337 400 l 29x004001
 337 200 l 29x08400040
 376 200 l 29x08400020
 376 100 l 29x10000020
 337 100 l 29
 337 0 l 29x88000040
 412 0 l 29
 412 -100 l 29x88000020
 300 -100 l 29
 300 0 l 29
 112 0 l 29
 112 -100 l 29x600010a0
 -0 -100 l 29x800110a0
38 500 m 29x0041
 76 500 l 29
 76 400 l 29
 38 400 l 29x004080
 38 500 l 29x0041
-0 600 m 29x0021
 38 600 l 29x0021
 38 500 l 29x0041
 -0 500 l 29
 -0 600 l 29x0021
-38 50 m 29x1002
 -38 100 l 5
 -0 100 l 29
 -0 50 l 5
 -38 50 l 29x1002
-38 150 m 29x0402
 -38 200 l 5
 -0 200 l 29
 -0 150 l 5
 -38 150 l 29x0402
-0 250 m 29x0101
 -0 300 l 5
 38 300 l 29
 38 250 l 5
 -0 250 l 29x0101
-38 350 m 29x0082
 -38 400 l 5
 -0 400 l 29
 -0 350 l 5
 -38 350 l 29x0082
150 -100 m 29x400008
 150 -50 l 29
 187 -50 l 29
 187 -100 l 29
 150 -100 l 29x400008
226 -100 m 29x400002
 226 -50 l 29
 262 -50 l 29
 262 -100 l 29
 226 -100 l 29x400002
376 50 m 29x10000020
 376 100 l 29
 412 100 l 29
 412 50 l 29
 376 50 l 29x10000020
376 250 m 29x01000020
 376 300 l 29
 412 300 l 29
 412 250 l 29
 376 250 l 29x01000020
376 350 m 29x00800020
 376 400 l 29x00800040
 412 400 l 29
 412 350 l 29
 376 350 l 29x00800020
337 400 m 29x004001
 337 500 l 29x004001
 376 500 l 29x00400040
 376 400 l 29x00800040
 337 400 l 29x004001
376 500 m 29x00400040
 376 600 l 29
 412 600 l 29
 412 500 l 29x00200020
 376 500 l 29x00400040
337 650 m 29x00080040
 337 700 l 29
 376 700 l 29
 376 650 l 29
 337 650 l 29x00080040
376 750 m 29x00040020
 376 800 l 29
 412 800 l 29
 412 750 l 29
 376 750 l 29x00040020
300 750 m 29x00040080
 300 800 l 29
 337 800 l 29
 337 750 l 29
 300 750 l 29x00040080
76 750 m 29x000420
 76 800 l 5
 112 800 l 29
 112 750 l 5
 76 750 l 29x000420
-38 750 m 29x0006
 -38 800 l 5
 -0 800 l 29
 -0 750 l 5
 -38 750 l 29x0006
-0 650 m 29x0009
 -0 700 l 5
 38 700 l 29
 38 650 l 5
 -0 650 l 29x0009
EndSplineSet
EndChar

StartChar: uni26C4
Encoding: 9924 9924 221
Width: 381
Flags: HW
HStem: -100 100<-15.5 59.5 321.5 396.5> 100 100<21.5 59.5 321.5 359.5> 200 100<134.5 171.5 209.5 246.5> 400 100<21.5 59.5 134.5 171.5 209.5 246.5 321.5 359.5> 500 100<-15.5 21.5 59.5 96.5 284.5 321.5 359.5 396.5> 600 200<134.5 246.5>
VStem: -16 38<500 600> 22 75<100 200> 22 38<400 500> 60 75<300 400 500 600> 96 75<400 500> 134 112<700 800> 210 75<400 500> 246 75<300 400 500 600> 284 75<100 200> 322 38<400 500> 360 38<500 600>
LayerCount: 2
Back
Fore
SplineSet
135 500 m 29xb444
 171 500 l 29
 171 400 l 29xb420
 135 400 l 29
 135 300 l 29xb440
 171 300 l 29
 171 200 l 29xb420
 97 200 l 29xb5
 97 100 l 29
 285 100 l 29xc102
 285 200 l 29xa102
 210 200 l 29
 210 300 l 29xa008
 246 300 l 29
 246 400 l 29xb004
 210 400 l 29
 210 500 l 29xb008
 246 500 l 29
 246 600 l 29
 135 600 l 29
 135 500 l 29xb444
-16 -100 m 29xd222
 -16 0 l 29
 60 0 l 29
 60 100 l 29xd240
 22 100 l 29
 22 200 l 29xd1
 60 200 l 29xd040
 60 400 l 29
 97 400 l 29xd0a0
 97 500 l 29x88a0
 60 500 l 29x90a0
 60 600 l 29x8840
 97 600 l 29
 97 700 l 29x8820
 135 700 l 29
 135 800 l 29
 246 800 l 29x8410
 246 700 l 29
 285 700 l 29
 285 600 l 29x8812
 321 600 l 29x8804
 321 500 l 29x9004
 285 500 l 29x8808
 285 400 l 29x9008
 321 400 l 29x9004
 321 200 l 29xd001
 359 200 l 5
 359 100 l 29xd002
 321 100 l 5
 321 0 l 29xd001
 396 0 l 29
 396 -100 l 29xd00080
 285 -100 l 29
 285 0 l 29
 97 0 l 29
 97 -100 l 29
 -16 -100 l 29xd222
22 500 m 29
 60 500 l 29
 60 400 l 29
 22 400 l 29x9080
 22 500 l 29
-16 600 m 29x8a
 22 600 l 29x8a
 22 500 l 29x92
 -16 500 l 29
 -16 600 l 29x8a
321 400 m 29x9004
 321 500 l 29x9004
 359 500 l 29
 359 400 l 29x9001
 321 400 l 29x9004
359 500 m 29x9001
 359 600 l 29
 396 600 l 29
 396 500 l 29x880080
 359 500 l 29x9001
EndSplineSet
EndChar

StartChar: uni2614
Encoding: 9748 9748 222
Width: 375
Flags: HW
HStem: -100 100<75.5 149.5> 0 100<-0.5 37.5 337.5 375.5> 150 100<-37.5 -0.5 375.5 412.5> 250 100<37.5 75.5 299.5 337.5> 400 200<37.5 112.5 262.5 337.5> 400 100<-37.5 37.5 337.5 412.5> 600 100<-37.5 -0.5 375.5 412.5> 700 100<37.5 75.5 299.5 337.5>
VStem: -38 38<150 250 600 700> -0 38<0 100> 38 38<250 350 700 800> 76 112<-100 0> 150 75<0 400> 300 38<250 350 700 800> 338 38<0 100> 376 38<150 250 600 700>
LayerCount: 2
Back
Fore
SplineSet
76 -100 m 29x8010
 76 0 l 25x8010
 150 0 l 25
 150 400 l 25
 -38 400 l 25
 -38 500 l 25
 38 500 l 25x84a8
 38 600 l 25
 112 600 l 25
 112 700 l 25
 262 700 l 25
 262 600 l 25
 338 600 l 25x09aa
 338 500 l 25x04aa
 412 500 l 25
 412 400 l 25
 226 400 l 25
 226 0 l 25x4409
 188 0 l 25x4410
 188 -100 l 25
 76 -100 l 29x8010
-0 0 m 1x4040
 -0 100 l 1
 38 100 l 1
 38 0 l 1
 -0 0 l 1x4040
338 0 m 1x4002
 338 100 l 1
 376 100 l 1
 376 0 l 1
 338 0 l 1x4002
-38 150 m 1x2080
 -38 250 l 1
 -0 250 l 1
 -0 150 l 1
 -38 150 l 1x2080
38 250 m 1x1020
 38 350 l 1
 76 350 l 1
 76 250 l 1
 38 250 l 1x1020
376 150 m 1x2001
 376 250 l 1
 412 250 l 1
 412 150 l 1
 376 150 l 1x2001
300 250 m 1x1004
 300 350 l 1
 338 350 l 1
 338 250 l 1
 300 250 l 1x1004
376 600 m 1x0201
 376 700 l 1
 412 700 l 1
 412 600 l 1
 376 600 l 1x0201
-38 600 m 1x0280
 -38 700 l 1
 -0 700 l 1
 -0 600 l 1
 -38 600 l 1x0280
300 700 m 1x0104
 300 800 l 1
 338 800 l 1
 338 700 l 1
 300 700 l 1x0104
38 700 m 1x0120
 38 800 l 1
 76 800 l 1
 76 700 l 1
 38 700 l 1x0120
EndSplineSet
EndChar

StartChar: uni2669
Encoding: 9833 9833 223
Width: 368
Flags: HW
HStem: 0 300<90 240> 100 100<53 90>
VStem: 240 75<300 800>
LayerCount: 2
Back
Fore
SplineSet
90 100 m 29x60
 53 100 l 25
 53 200 l 25
 90 200 l 25x60
 90 300 l 25
 240 300 l 25xa0
 240 800 l 25
 315 800 l 25
 315 100 l 25
 278 100 l 25x60
 278 0 l 25
 90 0 l 25xa0
 90 100 l 29x60
EndSplineSet
EndChar

StartChar: uni2757
Encoding: 10071 10071 225
Width: 375
Flags: HW
HStem: 0 100<149.5 225.5> 680 20G<149.5 225.5>
VStem: 150 75<0 100 200 700>
LayerCount: 2
Back
Fore
SplineSet
150 700 m 29
 226 700 l 25
 226 200 l 25
 150 200 l 25
 150 700 l 29
226 0 m 25
 150 0 l 1
 150 100 l 25
 226 100 l 1
 226 0 l 25
EndSplineSet
EndChar

StartChar: uni2753
Encoding: 10067 10067 226
Width: 381
Flags: HW
HStem: 0 100<171.5 246.5> 200 100<171.5 246.5> 300 100<246.5 284.5> 600 100<96.5 284.5>
VStem: 22 75<400 600> 172 75<0 100 200 300> 246 75<300 400> 284 75<400 600>
LayerCount: 2
Back
Fore
SplineSet
172 300 m 1xdc
 247 300 l 1
 247 200 l 1
 172 200 l 1
 172 300 l 1xdc
247 0 m 25
 172 0 l 1
 172 100 l 25
 247 100 l 1
 247 0 l 25
22 600 m 25
 60 600 l 25
 60 700 l 25
 321 700 l 25
 321 600 l 25xba
 359 600 l 25
 359 400 l 25xb9
 321 400 l 25
 321 300 l 25xba
 247 300 l 25xdc
 247 400 l 25xba
 284 400 l 25
 284 600 l 25
 97 600 l 25
 97 400 l 25
 22 400 l 25xb9
 22 600 l 25
EndSplineSet
EndChar

StartChar: uni2795
Encoding: 10133 10133 227
Width: 375
Flags: HW
HStem: 250 100<37.5 149.5 225.5 337.5>
VStem: 150 75<50 250 350 550>
LayerCount: 2
Back
Fore
SplineSet
150 550 m 29
 226 550 l 25
 226 350 l 25
 338 350 l 25
 338 250 l 25
 226 250 l 25
 226 50 l 25
 150 50 l 25
 150 250 l 25
 38 250 l 25
 38 350 l 25
 150 350 l 25
 150 550 l 29
EndSplineSet
EndChar

StartChar: uni2796
Encoding: 10134 10134 228
Width: 375
Flags: HW
HStem: 250 100<37.5 337.5>
LayerCount: 2
Back
Fore
SplineSet
38 250 m 29
 38 350 l 25
 338 350 l 25
 338 250 l 25
 38 250 l 29
EndSplineSet
EndChar

StartChar: uni231A
Encoding: 8986 8986 229
Width: 450
Flags: HW
HStem: -100 200<113 337> 0 100<75 113 337 375> 300 100<263 337> 480 20G<187 263> 600 200<113 337> 600 100<75 113 337 375>
VStem: -37 75<200 500> 0 75<100 200 500 600> 113 225<-100 0 700 800> 187 75<400 500> 375 75<100 200 500 600> 413 75<200 500>
LayerCount: 2
Back
Fore
SplineSet
187 500 m 29x3040
 263 500 l 25
 263 400 l 25x3040
 337 400 l 25
 337 300 l 25x3080
 187 300 l 25
 187 500 l 29x3040
75 600 m 25x7520
 75 500 l 25x7520
 37 500 l 25
 37 200 l 25x76
 75 200 l 25
 75 100 l 25
 375 100 l 25
 375 200 l 25x7520
 413 200 l 25
 413 500 l 25x7410
 375 500 l 25
 375 600 l 25
 75 600 l 25x7520
113 700 m 25x7680
 113 800 l 25
 337 800 l 25x3a80
 337 700 l 25
 413 700 l 25
 413 600 l 25x3690
 450 600 l 25
 450 500 l 25x3420
 487 500 l 25
 487 200 l 25x3410
 450 200 l 25
 450 100 l 25x7420
 413 100 l 25
 413 0 l 25
 337 0 l 25x7490
 337 -100 l 25
 113 -100 l 25xb090
 113 0 l 25
 37 0 l 25
 37 100 l 25x7290
 0 100 l 25
 0 200 l 25x71
 -37 200 l 25
 -37 500 l 25x72
 0 500 l 25
 0 600 l 25x75
 37 600 l 25
 37 700 l 25
 113 700 l 25x7680
EndSplineSet
EndChar

StartChar: uni2797
Encoding: 10135 10135 230
Width: 375
Flags: HW
HStem: 100 100<149.5 225.5> 300 100<37.5 337.5> 500 100<149.5 225.5>
VStem: 150 75<100 200 500 600>
CounterMasks: 1 e0
LayerCount: 2
Back
Fore
SplineSet
150 100 m 29
 150 200 l 25
 226 200 l 25
 226 100 l 25
 150 100 l 29
38 300 m 25
 38 400 l 25
 338 400 l 25
 338 300 l 25
 38 300 l 25
150 500 m 25
 150 600 l 25
 226 600 l 25
 226 500 l 25
 150 500 l 25
EndSplineSet
EndChar

StartChar: uni25B6
Encoding: 9654 9654 231
Width: 381
Flags: HMW
LayerCount: 2
Back
Fore
SplineSet
22 0 m 29
 22 700 l 25
 134 700 l 25
 134 600 l 25
 210 600 l 25
 210 500 l 25
 284 500 l 25
 284 400 l 25
 360 400 l 25
 360 300 l 25
 284 300 l 25
 284 200 l 25
 210 200 l 25
 210 100 l 25
 134 100 l 25
 134 0 l 25
 22 0 l 29
EndSplineSet
EndChar

StartChar: uni25C0
Encoding: 9664 9664 232
Width: 381
Flags: HMW
LayerCount: 2
Back
Fore
SplineSet
246 0 m 29
 246 100 l 25
 172 100 l 25
 172 200 l 25
 96 200 l 25
 96 300 l 25
 22 300 l 25
 22 400 l 25
 96 400 l 25
 96 500 l 25
 172 500 l 25
 172 600 l 25
 246 600 l 25
 246 700 l 25
 360 700 l 25
 360 0 l 25
 246 0 l 29
EndSplineSet
EndChar

StartChar: H18543
Encoding: 9642 9642 233
Width: 368
Flags: HMW
LayerCount: 2
Back
Fore
SplineSet
90 100 m 29
 90 400 l 25
 278 400 l 25
 278 100 l 25
 90 100 l 29
EndSplineSet
EndChar

StartChar: triagup
Encoding: 9650 9650 234
Width: 375
Flags: HMW
LayerCount: 2
Back
Fore
SplineSet
-0 100 m 29
 -0 200 l 29
 38 200 l 29
 38 300 l 29
 76 300 l 29
 76 400 l 29
 112 400 l 29
 112 500 l 29
 150 500 l 29
 150 600 l 29
 226 600 l 29
 226 500 l 29
 262 500 l 29
 262 400 l 29
 300 400 l 29
 300 300 l 29
 338 300 l 29
 338 200 l 29
 376 200 l 29
 376 100 l 29
 -0 100 l 29
EndSplineSet
EndChar

StartChar: triagdn
Encoding: 9660 9660 235
Width: 375
Flags: HMW
LayerCount: 2
Back
Fore
SplineSet
-0 500 m 29
 -0 600 l 25
 376 600 l 25
 376 500 l 25
 338 500 l 25
 338 400 l 25
 300 400 l 25
 300 300 l 25
 262 300 l 25
 262 200 l 25
 226 200 l 25
 226 100 l 25
 150 100 l 25
 150 200 l 25
 112 200 l 25
 112 300 l 25
 76 300 l 25
 76 400 l 25
 38 400 l 25
 38 500 l 25
 -0 500 l 29
EndSplineSet
EndChar

StartChar: H18551
Encoding: 9643 9643 236
Width: 368
Flags: HW
HStem: 100 100<128 240> 300 100<128 240>
VStem: 90 38<200 300> 240 38<200 300>
LayerCount: 2
Back
Fore
SplineSet
128 200 m 29
 240 200 l 25
 240 300 l 25
 128 300 l 25
 128 200 l 29
90 100 m 25
 90 400 l 25
 278 400 l 25
 278 100 l 25
 90 100 l 25
EndSplineSet
EndChar

StartChar: uni231B
Encoding: 8987 8987 237
Width: 456
Flags: HW
HStem: -100 300<22 59 172 284 397 434> -100 200<97 172 284 359> -100 100<-16 22 434 472> 200 100<97 134 322 359> 400 100<97 134 322 359> 600 200<97 359> 700 100<-16 22 434 472>
VStem: 22 75<100 200 500 600> 59 112<200 300> 284 112<200 300> 359 75<100 200 500 600>
LayerCount: 2
Back
Fore
SplineSet
284 100 m 29x4840
 359 100 l 25
 359 200 l 25x5820
 284 200 l 25x8840
 284 100 l 29x4840
172 300 m 25x18c0
 172 200 l 25
 284 200 l 25x88c0
 284 300 l 25
 172 300 l 25x18c0
97 100 m 25x59
 172 100 l 25x5880
 172 200 l 25x8880
 97 200 l 25
 97 100 l 25x59
209 400 m 25
 247 400 l 25
 247 500 l 25
 359 500 l 25
 359 600 l 25
 97 600 l 25
 97 500 l 25x0d20
 209 500 l 25
 209 400 l 25
-16 -100 m 25x2820
 -16 0 l 25
 22 0 l 25x2920
 22 200 l 25x8920
 59 200 l 25x8880
 59 300 l 25
 134 300 l 25
 134 400 l 25
 59 400 l 25
 59 500 l 25x1880
 22 500 l 25
 22 700 l 25
 -16 700 l 25
 -16 800 l 25
 472 800 l 25
 472 700 l 25
 434 700 l 25
 434 500 l 25x1b20
 397 500 l 25
 397 400 l 25
 322 400 l 25
 322 300 l 25
 397 300 l 25x1a40
 397 200 l 25x8840
 434 200 l 25x8820
 434 0 l 25
 472 0 l 25
 472 -100 l 25
 -16 -100 l 25x2820
EndSplineSet
EndChar

StartChar: uni23F3
Encoding: 9203 9203 238
Width: 456
Flags: HW
HStem: -100 200<97 359> -100 100<-16 22 434 472> 200 100<97 134 322 359> 400 100<97 134 322 359> 500 300<22 59 172 284 397 434> 600 200<97 172 284 359> 700 100<-16 22 434 472>
VStem: 22 75<100 200 500 600> 59 112<400 500> 284 112<400 500> 359 75<100 200 500 600>
LayerCount: 2
Back
Fore
SplineSet
97 100 m 29xa120
 359 100 l 25
 359 200 l 25
 247 200 l 25
 247 300 l 25
 209 300 l 25
 209 200 l 25
 97 200 l 25
 97 100 l 29xa120
284 500 m 25x2840
 359 500 l 25
 359 600 l 25x3420
 284 600 l 25x3440
 284 500 l 25x2840
172 400 m 25x30c0
 284 400 l 25x30c0
 284 500 l 25
 172 500 l 25x28c0
 172 400 l 25x30c0
97 500 m 25x35
 172 500 l 25x2880
 172 600 l 25x2480
 97 600 l 25
 97 500 l 25x35
-16 -100 m 25x7020
 -16 0 l 25
 22 0 l 25
 22 200 l 25x7120
 59 200 l 25
 59 300 l 25
 134 300 l 25
 134 400 l 25
 59 400 l 25x7080
 59 500 l 25x2880
 22 500 l 25x29
 22 700 l 25
 -16 700 l 25
 -16 800 l 25
 472 800 l 25
 472 700 l 25
 434 700 l 25x2320
 434 500 l 25x2920
 397 500 l 25x2840
 397 400 l 25
 322 400 l 25
 322 300 l 25
 397 300 l 25
 397 200 l 25x3040
 434 200 l 25
 434 0 l 25
 472 0 l 25
 472 -100 l 25
 -16 -100 l 25x7020
EndSplineSet
EndChar

StartChar: uni26D4
Encoding: 9940 9940 239
Width: 450
Flags: HW
HStem: -100 400<75 375> 400 400<75 375>
VStem: -75 112<300 400> 413 112<300 400>
LayerCount: 2
Back
Fore
SplineSet
37 300 m 29
 413 300 l 25
 413 400 l 25
 37 400 l 25
 37 300 l 29
75 -100 m 25
 75 0 l 25
 0 0 l 25
 0 100 l 25
 -37 100 l 25
 -37 200 l 25
 -75 200 l 25
 -75 500 l 25
 -37 500 l 25
 -37 600 l 25
 0 600 l 25
 0 700 l 25
 75 700 l 25
 75 800 l 25
 375 800 l 25
 375 700 l 25
 450 700 l 25
 450 600 l 25
 487 600 l 25
 487 500 l 25
 525 500 l 25
 525 200 l 25
 487 200 l 25
 487 100 l 25
 450 100 l 25
 450 0 l 25
 375 0 l 25
 375 -100 l 25
 75 -100 l 25
EndSplineSet
EndChar

StartChar: uni26C5
Encoding: 9925 9925 240
Width: 375
Flags: HW
HStem: 0 300<37.5 75.5 225.5 337.5> 100 100<-37.5 -0.5 375.5 412.5> 500 100<37.5 112.5>
VStem: -38 75<300 500> 112 75<400 500>
LayerCount: 2
Back
Fore
SplineSet
76 300 m 29xb8
 76 400 l 25
 112 400 l 25
 112 500 l 25
 37 500 l 25
 37 300 l 25
 76 300 l 29xb8
-38 300 m 25
 -38 500 l 25
 -0 500 l 25
 -0 600 l 25
 150 600 l 25
 150 500 l 25
 187 500 l 25
 187 400 l 25
 226 400 l 25
 226 300 l 25
 338 300 l 25xb8
 338 200 l 25
 412 200 l 25
 412 100 l 25
 376 100 l 25x78
 376 0 l 25
 37 0 l 25xb8
 37 100 l 25
 -38 100 l 25
 -38 200 l 25
 -0 200 l 25x78
 -0 300 l 25
 -38 300 l 25
EndSplineSet
EndChar

StartChar: musicalnote
Encoding: 9834 9834 241
Width: 368
Flags: HW
HStem: 0 300<15 165> 100 100<-22 15> 700 100<240 278>
VStem: 165 75<300 700> 278 75<600 700> 315 75<400 600>
LayerCount: 2
Back
Fore
SplineSet
15 0 m 29xb8
 15 100 l 25
 -22 100 l 25
 -22 200 l 25
 15 200 l 25x78
 15 300 l 25
 165 300 l 25
 165 800 l 25
 315 800 l 25
 315 700 l 25xb4
 353 700 l 25
 353 600 l 25xb8
 390 600 l 25
 390 400 l 25
 315 400 l 25
 315 600 l 25xb4
 278 600 l 25
 278 700 l 25
 240 700 l 25
 240 100 l 25
 203 100 l 25x78
 203 0 l 25
 15 0 l 29xb8
EndSplineSet
EndChar

StartChar: musicalnotedbl
Encoding: 9835 9835 242
Width: 443
Flags: HW
HStem: 0 300<-22.5 90.5 315.5 427.5> 100 100<-59.5 -22.5 277.5 315.5> 700 100<165.5 427.5>
VStem: 90 75<300 700> 428 75<300 700>
LayerCount: 2
Back
Fore
SplineSet
-60 100 m 29x78
 -60 200 l 5
 -22 200 l 29x78
 -22 300 l 29
 90 300 l 29xb8
 90 800 l 29
 503 800 l 29
 503 100 l 29
 466 100 l 29x78
 466 0 l 29
 316 0 l 29xb8
 316 100 l 29
 278 100 l 29
 278 200 l 29
 316 200 l 29x78
 316 300 l 29
 428 300 l 29xb8
 428 700 l 29
 165 700 l 29
 165 100 l 29
 128 100 l 29x78
 128 0 l 29
 -22 0 l 29xb8
 -22 100 l 5
 -60 100 l 29x78
EndSplineSet
EndChar

StartChar: uni266C
Encoding: 9836 9836 243
Width: 443
Flags: HW
HStem: 0 300<-22.5 90.5 315.5 427.5> 100 100<-59.5 -22.5 277.5 315.5> 500 100<165.5 427.5> 700 100<165.5 427.5>
VStem: 90 75<300 500 600 700> 428 75<300 500 600 700>
LayerCount: 2
Back
Fore
SplineSet
165 600 m 1x3c
 428 600 l 29
 428 700 l 1
 165 700 l 25
 165 600 l 1x3c
-60 100 m 25x7c
 -60 200 l 1
 -22 200 l 25x7c
 -22 300 l 25
 90 300 l 25xbc
 90 800 l 25
 503 800 l 25
 503 100 l 25
 466 100 l 25x7c
 466 0 l 25
 316 0 l 25xbc
 316 100 l 25
 278 100 l 25
 278 200 l 25
 316 200 l 25x7c
 316 300 l 25
 428 300 l 1xbc
 428 500 l 1
 165 500 l 1
 165 100 l 1
 128 100 l 25x7c
 128 0 l 25
 -22 0 l 25xbc
 -22 100 l 1
 -60 100 l 25x7c
EndSplineSet
EndChar

StartChar: Idieresis
Encoding: 207 207 244
Width: 375
Flags: HW
HStem: 0 100<37.5 149.5 225.5 337.5> 600 100<37.5 149.5 225.5 337.5>
VStem: 150 75<100 600>
LayerCount: 2
Back
Fore
SplineSet
38 700 m 29
 338 700 l 25
 338 600 l 25
 226 600 l 25
 226 100 l 25
 338 100 l 25
 338 0 l 25
 38 0 l 25
 38 100 l 25
 150 100 l 25
 150 600 l 25
 38 600 l 25
 38 700 l 29
EndSplineSet
EndChar

StartChar: idieresis
Encoding: 239 239 245
Width: 375
Flags: HW
HStem: 0 100<75.5 149.5 224.5 299.5> 400 100<112.5 149.5> 600 100<112.5 225.5>
VStem: 112 112<400 500 600 700> 150 75<100 400>
LayerCount: 2
Back
Fore
SplineSet
112 500 m 1xf0
 226 500 l 25xf0
 224 100 l 25
 300 100 l 25
 300 0 l 25
 76 0 l 25
 76 100 l 25
 150 100 l 25
 150 400 l 1xe8
 112 400 l 29
 112 500 l 1xf0
112 700 m 25
 226 700 l 25
 226 600 l 25
 112 600 l 25
 112 700 l 25
EndSplineSet
EndChar

StartChar: onequarter
Encoding: 188 188 246
Width: 375
Flags: HW
HStem: -200 21G<299.5 375.5> -100 100<225.5 299.5> 200 100<262.5 299.5> 500 100<-0.5 37.5> 680 20G<37.5 112.5>
VStem: -0 112<500 600> 38 75<200 500 600 700> 150 75<0 100> 188 75<100 200> 226 75<200 300> 300 75<-200 -100 0 100>
LayerCount: 2
Back
Fore
SplineSet
226 200 m 29xf840
 226 300 l 29
 300 300 l 29
 300 200 l 29xf840
 263 200 l 29
 263 100 l 29xf880
 226 100 l 29
 226 0 l 29
 300 0 l 29
 300 100 l 29
 376 100 l 29
 376 -200 l 29
 300 -200 l 29
 300 -100 l 29
 150 -100 l 29
 150 100 l 29xf920
 188 100 l 29
 188 200 l 29xf880
 226 200 l 29xf840
38 600 m 25xfa
 38 700 l 25
 113 700 l 25
 113 200 l 25
 38 200 l 25
 38 500 l 25xfa
 -0 500 l 25
 -0 600 l 25xfc
 38 600 l 25xfa
EndSplineSet
EndChar

StartChar: onehalf
Encoding: 189 189 247
Width: 375
Flags: HW
HStem: -200 100<149.5 187.5 262.5 375.5> 0 100<262.5 299.5> 100 100<149.5 187.5 337.5 375.5> 200 100<225.5 299.5> 500 100<-0.5 37.5> 680 20G<37.5 112.5>
VStem: -0 112<500 600> 38 75<200 500 600 700> 150 75<100 200> 188 75<-100 0> 262 75<0 100> 300 75<100 200>
LayerCount: 2
Back
Fore
SplineSet
150 100 m 29xac90
 150 200 l 25xac90
 188 200 l 25xac40
 188 300 l 25x9c40
 337 300 l 25x9c20
 337 200 l 25xac20
 376 200 l 25
 376 100 l 25xac10
 337 100 l 25xac20
 337 0 l 25xcc20
 263 0 l 25
 263 -100 l 25xcc40
 376 -100 l 25
 376 -200 l 25
 150 -200 l 25
 150 -100 l 25xcc90
 188 -100 l 25
 188 0 l 25
 263 0 l 25xcc40
 263 100 l 25xcc20
 300 100 l 25
 300 200 l 25
 226 200 l 25xdc90
 226 100 l 25
 150 100 l 29xac90
38 600 m 25x9d
 38 700 l 25
 113 700 l 25
 113 200 l 25
 38 200 l 25
 38 500 l 25x9d
 -0 500 l 25
 -0 600 l 25x9e
 38 600 l 25x9d
EndSplineSet
EndChar

StartChar: threequarters
Encoding: 190 190 248
Width: 381
Flags: HW
HStem: -200 21G<321.5 396.5> -100 100<246.5 321.5> 200 100<-15.5 96.5 284.5 321.5> 400 100<21.5 96.5> 600 100<-15.5 96.5>
VStem: 22 112<400 500> 96 75<300 400 500 600> 172 75<0 100> 210 75<100 200> 246 75<200 300> 322 75<-200 -100 0 100>
LayerCount: 2
Back
Fore
SplineSet
247 200 m 25xf840
 247 300 l 25
 321 300 l 25
 321 200 l 25xf840
 285 200 l 25
 285 100 l 25xf880
 247 100 l 25
 247 0 l 25
 321 0 l 25
 321 100 l 25
 397 100 l 25
 397 -200 l 25
 321 -200 l 25
 321 -100 l 25
 171 -100 l 25
 171 100 l 25xf920
 210 100 l 25
 210 200 l 25xf880
 247 200 l 25xf840
-16 600 m 1
 -16 700 l 1
 171 700 l 1xf9
 171 500 l 25xfa
 134 500 l 25
 134 400 l 25xfc
 171 400 l 25
 171 300 l 25xfa
 134 300 l 25
 134 200 l 1xfc
 -16 200 l 1
 -16 300 l 1
 96 300 l 1
 96 400 l 25xfa
 22 400 l 25
 22 500 l 25xfc
 96 500 l 25
 96 600 l 1xfa
 -16 600 l 1
EndSplineSet
EndChar

StartChar: udieresis
Encoding: 252 252 249
Width: 381
Flags: HW
HStem: 0 100<96.5 246.5> 100 100<246.5 284.5> 480 20G<21.5 96.5 284.5 359.5>
VStem: 22 75<100 500> 246 112<100 200> 284 75<0 100 200 500>
LayerCount: 2
Back
Fore
SplineSet
22 500 m 29x78
 97 500 l 25
 97 100 l 25
 246 100 l 25xb8
 246 200 l 25x78
 284 200 l 25x74
 284 500 l 25
 359 500 l 25
 359 0 l 25
 284 0 l 25xb4
 284 100 l 25x74
 246 100 l 25
 246 0 l 25
 60 0 l 25xb8
 60 100 l 25
 22 100 l 25
 22 500 l 29x78
EndSplineSet
EndChar

StartChar: oslash
Encoding: 248 248 250
Width: 381
Flags: HW
HStem: 0 100<96.5 284.5> 400 100<96.5 284.5>
VStem: 22 75<100 400> 284 75<100 400>
LayerCount: 2
Back
Fore
SplineSet
97 400 m 29
 97 100 l 25
 284 100 l 25
 284 400 l 25
 97 400 l 29
60 500 m 25
 322 500 l 25
 322 400 l 25
 359 400 l 25
 359 100 l 25
 322 100 l 25
 322 0 l 25
 60 0 l 25
 60 100 l 25
 22 100 l 25
 22 400 l 25
 60 400 l 25
 60 500 l 25
EndSplineSet
EndChar

StartChar: copyright
Encoding: 169 169 251
Width: 375
Flags: HW
HStem: 0 100<75.5 299.5> 200 100<149.5 262.5> 300 100<75.5 112.5> 400 100<149.5 262.5> 600 100<75.5 299.5>
VStem: -38 75<200 500> -0 75<100 200 500 600> 76 75<300 400> 112 150<200 300 400 500> 300 75<100 200 500 600> 338 75<200 500>
LayerCount: 2
Back
Fore
SplineSet
112 400 m 29xa880
 112 500 l 1
 262 500 l 25
 262 400 l 25x9880
 150 400 l 25
 150 300 l 25xd9
 262 300 l 25
 262 200 l 25
 112 200 l 25xd880
 112 300 l 25xa880
 76 300 l 25
 76 400 l 1xa9
 112 400 l 29xa880
76 500 m 25xda40
 37 500 l 25
 37 200 l 25xdc
 76 200 l 25
 76 100 l 25
 300 100 l 25
 300 200 l 25xda40
 338 200 l 25
 338 500 l 25xd820
 300 500 l 25
 300 600 l 25
 76 600 l 25
 76 500 l 25xda40
37 600 m 25
 37 700 l 25
 338 700 l 25
 338 600 l 25xdc20
 376 600 l 25
 376 500 l 25xd840
 413 500 l 25
 413 200 l 25xd820
 376 200 l 25
 376 100 l 25xd840
 338 100 l 25
 338 0 l 25
 37 0 l 25
 37 100 l 25xdc20
 -0 100 l 25
 -0 200 l 25xda
 -38 200 l 25
 -38 500 l 25xdc
 -0 500 l 25
 -0 600 l 25xda
 37 600 l 25
EndSplineSet
EndChar

StartChar: registered
Encoding: 174 174 252
Width: 375
Flags: HW
HStem: 0 100<75.5 299.5> 200 100<225.5 299.5> 400 100<225.5 262.5> 600 100<75.5 299.5>
VStem: -38 75<200 500> -0 75<100 200 500 600> 112 112<300 400> 112 75<200 300> 226 75<200 300> 300 75<100 200 500 600> 338 75<200 500>
LayerCount: 2
Back
Fore
SplineSet
112 200 m 29xf1
 112 500 l 25xf1
 262 500 l 25
 262 400 l 25
 226 400 l 25
 226 300 l 25xf2
 300 300 l 25
 300 200 l 25
 226 200 l 25xf080
 226 300 l 25xf2
 187 300 l 25
 187 200 l 25
 112 200 l 29xf1
76 500 m 25xf440
 37 500 l 25
 37 200 l 25xf8
 76 200 l 25
 76 100 l 25
 300 100 l 25xf440
 300 200 l 25
 338 200 l 25
 338 500 l 25xf0a0
 300 500 l 25
 300 600 l 25
 76 600 l 25
 76 500 l 25xf440
37 600 m 25
 37 700 l 25
 338 700 l 25
 338 600 l 25xf820
 376 600 l 25
 376 500 l 25xf040
 413 500 l 25
 413 200 l 25xf020
 376 200 l 25
 376 100 l 25xf040
 338 100 l 25
 338 0 l 25
 37 0 l 25
 37 100 l 25xf820
 -0 100 l 25
 -0 200 l 25xf4
 -38 200 l 25
 -38 500 l 25xf8
 -0 500 l 25
 -0 600 l 25xf4
 37 600 l 25
EndSplineSet
EndChar

StartChar: uni00B2
Encoding: 178 178 253
Width: 375
Flags: HW
HStem: 300 100<75.5 112.5 187.5 299.5> 500 100<187.5 225.5> 600 100<75.5 112.5 262.5 299.5> 700 100<149.5 225.5>
VStem: 76 75<600 700> 112 75<400 500> 188 75<500 600> 226 75<600 700>
LayerCount: 2
Back
Fore
SplineSet
112 700 m 29xa4
 112 800 l 25x94
 263 800 l 25x92
 263 700 l 25xa2
 300 700 l 25
 300 600 l 25xa1
 263 600 l 25xa2
 263 500 l 25xc2
 187 500 l 25
 187 400 l 25xc4
 300 400 l 25
 300 300 l 25
 76 300 l 25
 76 400 l 25xc9
 112 400 l 25
 112 500 l 25
 187 500 l 25xc4
 187 600 l 25xc2
 226 600 l 25
 226 700 l 25
 150 700 l 25xd9
 150 600 l 25
 76 600 l 25
 76 700 l 25xa9
 112 700 l 29xa4
EndSplineSet
EndChar

StartChar: uni00B3
Encoding: 179 179 254
Width: 375
Flags: HW
HStem: 300 100<75.5 225.5> 400 100<262.5 299.5> 500 100<149.5 225.5> 700 100<75.5 225.5>
VStem: 150 112<500 600> 226 75<400 500 600 700>
LayerCount: 2
Back
Fore
SplineSet
76 700 m 29xb4
 76 800 l 29
 300 800 l 29
 300 600 l 29xb4
 262 600 l 29xb8
 262 500 l 29x58
 300 500 l 29
 300 400 l 29x54
 262 400 l 29x58
 262 300 l 29x98
 76 300 l 29
 76 400 l 29
 226 400 l 29
 226 500 l 29xb4
 150 500 l 29
 150 600 l 29xb8
 226 600 l 29
 226 700 l 29
 76 700 l 29xb4
EndSplineSet
EndChar

StartChar: uni00B9
Encoding: 185 185 255
Width: 381
Flags: HW
HStem: 600 100<134.5 171.5>
VStem: 134 112<600 700> 172 75<400 600 700 800>
LayerCount: 2
Back
Fore
SplineSet
172 700 m 29xa0
 172 800 l 25
 246 800 l 25
 246 400 l 25
 172 400 l 25
 172 600 l 25xa0
 134 600 l 25
 134 700 l 25xc0
 172 700 l 29xa0
EndSplineSet
EndChar

StartChar: Euro
Encoding: 8364 8364 256
Width: 375
Flags: HW
HStem: 0 100<149.5 299.5> 100 100<337.5 375.5> 200 100<-0.5 37.5 149.5 262.5> 400 100<-0.5 37.5 149.5 262.5> 500 100<337.5 375.5> 600 100<149.5 299.5>
VStem: 76 75<100 200 500 600> 112 225<0 100 600 700> 300 75<100 200 500 600>
LayerCount: 2
Back
Fore
SplineSet
150 500 m 29x1680
 262 500 l 25
 262 400 l 25
 112 400 l 25
 112 300 l 25x35
 262 300 l 25
 262 200 l 25
 150 200 l 25
 150 100 l 25
 300 100 l 25
 300 200 l 25xb680
 376 200 l 25
 376 100 l 25x4280
 337 100 l 25x41
 337 0 l 25
 112 0 l 25x81
 112 100 l 25x41
 76 100 l 25x42
 76 200 l 25
 -0 200 l 25
 -0 300 l 25
 38 300 l 25
 38 400 l 25
 -0 400 l 25
 -0 500 l 25x32
 76 500 l 25x0a
 76 600 l 25x06
 112 600 l 25
 112 700 l 25
 337 700 l 25x05
 337 600 l 25x09
 376 600 l 25
 376 500 l 25
 300 500 l 25x0880
 300 600 l 25
 150 600 l 25
 150 500 l 29x1680
EndSplineSet
EndChar

StartChar: uni20B4
Encoding: 8372 8372 257
Width: 381
Flags: HW
HStem: 0 100<96.5 284.5> 100 100<321.5 359.5> 300 100<96.5 284.5> 500 100<21.5 59.5> 600 100<96.5 284.5>
VStem: 22 75<100 300 500 600> 60 262<0 100 300 400 600 700> 284 75<100 200 400 600>
LayerCount: 2
Back
Fore
SplineSet
22 500 m 29x35
 22 600 l 25x35
 60 600 l 25x32
 60 700 l 25
 322 700 l 25
 322 600 l 25x2a
 359 600 l 25
 359 400 l 25x29
 322 400 l 25
 322 300 l 25x2a
 97 300 l 25
 97 100 l 25
 284 100 l 25xad
 284 200 l 25
 359 200 l 25
 359 100 l 25x65
 322 100 l 25x62
 322 0 l 25
 60 0 l 25xa2
 60 100 l 25x62
 22 100 l 25
 22 300 l 25x64
 60 300 l 25
 60 400 l 25x62
 284 400 l 25
 284 600 l 25
 97 600 l 25x6d
 97 500 l 25
 22 500 l 29x35
EndSplineSet
EndChar

StartChar: radical
Encoding: 8730 8730 258
Width: 375
Flags: HW
HStem: 0 100<75.5 112.5> 600 100<225.5 412.5>
VStem: -38 75<200 400> -0 75<100 200> 112 75<100 300> 150 75<300 600>
LayerCount: 2
Back
Fore
SplineSet
-38 200 m 29xe0
 -38 400 l 25
 37 400 l 25
 37 200 l 25xe0
 76 200 l 25
 76 100 l 25
 112 100 l 25
 112 300 l 25xd8
 150 300 l 25
 150 600 l 25xc4
 187 600 l 25
 187 700 l 25xc8
 412 700 l 25
 412 600 l 25
 226 600 l 25
 226 300 l 25xc4
 187 300 l 25
 187 100 l 25xc8
 150 100 l 25
 150 0 l 25
 37 0 l 25
 37 100 l 25xe4
 -0 100 l 25
 -0 200 l 25xd0
 -38 200 l 29xe0
EndSplineSet
EndChar

StartChar: infinity
Encoding: 8734 8734 259
Width: 456
Flags: HW
HStem: 100 100<22 134 322 434> 200 300<-53 -16 172 209 247 284 472 509> 500 100<22 134 322 434>
VStem: -53 75<200 500> -16 188<100 200 500 600> 134 75<200 300 400 500> 247 75<200 300 400 500> 284 188<100 200 500 600> 434 75<200 500>
LayerCount: 2
Back
Fore
SplineSet
284 300 m 29xa1
 322 300 l 25
 322 200 l 25
 434 200 l 25
 434 500 l 25
 322 500 l 25
 322 400 l 25xa280
 284 400 l 25
 284 300 l 29xa1
22 200 m 25xb4
 134 200 l 25
 134 300 l 25xb4
 172 300 l 25
 172 400 l 25xa8
 134 400 l 25
 134 500 l 25
 22 500 l 25
 22 200 l 25xb4
-53 200 m 25x50
 -53 500 l 25x50
 -16 500 l 25x48
 -16 600 l 25
 172 600 l 25x28
 172 500 l 25x48
 209 500 l 25
 209 400 l 25
 247 400 l 25
 247 500 l 25x46
 284 500 l 25x41
 284 600 l 25
 472 600 l 25x21
 472 500 l 25x41
 509 500 l 25
 509 200 l 25x4080
 472 200 l 25x41
 472 100 l 25
 284 100 l 25x81
 284 200 l 25x41
 247 200 l 25
 247 300 l 25
 209 300 l 25
 209 200 l 25x46
 172 200 l 25x48
 172 100 l 25
 -16 100 l 25x88
 -16 200 l 25x48
 -53 200 l 25x50
EndSplineSet
EndChar

StartChar: uni2B50
Encoding: 11088 11088 260
Width: 375
Flags: HW
HStem: 0 100<-0.5 37.5 337.5 375.5> 400 200<37.5 112.5 262.5 337.5> 500 100<-37.5 37.5 337.5 412.5>
VStem: -0 75<0 100> 38 112<100 200> 112 150<300 400 600 700> 226 112<100 200> 300 75<0 100>
LayerCount: 2
Back
Fore
SplineSet
-0 0 m 29xd0
 -0 100 l 25xd0
 38 100 l 25
 38 200 l 25xc8
 76 200 l 25
 76 300 l 25
 112 300 l 25
 112 400 l 25xd4
 38 400 l 25xc8
 38 500 l 25
 -38 500 l 25
 -38 600 l 25xa8
 112 600 l 25
 112 700 l 25xc4
 150 700 l 25
 150 800 l 25
 226 800 l 25
 226 700 l 25xca
 262 700 l 25
 262 600 l 25xc4
 412 600 l 25
 412 500 l 25
 338 500 l 25xa2
 338 400 l 25xc2
 262 400 l 25
 262 300 l 25
 300 300 l 25
 300 200 l 25xc5
 338 200 l 25
 338 100 l 25xc2
 376 100 l 25
 376 0 l 25
 300 0 l 25
 300 100 l 25xc1
 226 100 l 25
 226 200 l 25
 150 200 l 25
 150 100 l 25xca
 76 100 l 25
 76 0 l 25
 -0 0 l 29xd0
EndSplineSet
EndChar

StartChar: uni274C
Encoding: 10060 10060 261
Width: 375
Flags: HW
HStem: 100 100<-0.5 75.5 299.5 375.5> 200 100<75.5 112.5 262.5 299.5> 400 100<75.5 112.5 262.5 299.5> 500 100<-0.5 75.5 299.5 375.5>
VStem: -0 75<100 200 500 600> 76 75<200 300 400 500> 226 75<200 300 400 500> 300 75<100 200 500 600>
LayerCount: 2
Back
Fore
SplineSet
76 400 m 29x64
 76 500 l 25x68
 150 500 l 25x14
 150 400 l 25
 226 400 l 25x26
 226 500 l 25x16
 300 500 l 25x26
 300 600 l 25
 376 600 l 25
 376 500 l 25x11
 300 500 l 25
 300 400 l 25
 262 400 l 25
 262 300 l 25
 300 300 l 25x62
 300 200 l 25x82
 376 200 l 25
 376 100 l 25
 300 100 l 25x81
 300 200 l 25x82
 226 200 l 25
 226 300 l 25
 150 300 l 25
 150 200 l 25x46
 76 200 l 25
 76 100 l 25
 -0 100 l 25
 -0 200 l 25
 76 200 l 25x88
 76 300 l 25
 112 300 l 25
 112 400 l 25
 76 400 l 29x64
-0 500 m 25x18
 -0 600 l 25
 76 600 l 25x18
 76 500 l 25x28
 -0 500 l 25x18
EndSplineSet
EndChar

StartChar: uni2713
Encoding: 10003 10003 262
Width: 381
Flags: HW
HStem: 0 100<96.5 134.5> 200 100<-15.5 21.5> 600 100<359.5 396.5>
VStem: -16 75<200 300> 22 75<100 200> 134 75<100 200> 172 75<200 300> 210 75<300 400> 246 75<400 500> 284 75<500 600> 322 75<600 700>
LayerCount: 2
Back
Fore
SplineSet
-16 200 m 29xf0
 -16 300 l 1
 59 300 l 25
 59 200 l 25xf0
 97 200 l 25
 97 100 l 25
 134 100 l 25
 134 200 l 25xec
 172 200 l 25
 172 300 l 25xe2
 209 300 l 25
 209 400 l 25xe1
 247 400 l 25
 247 500 l 25xe080
 285 500 l 25
 285 600 l 25xe040
 321 600 l 25
 321 700 l 25
 397 700 l 25
 397 600 l 25xe020
 359 600 l 25
 359 500 l 25xe040
 321 500 l 25
 321 400 l 25xe080
 285 400 l 25
 285 300 l 25xe1
 247 300 l 25
 247 200 l 25xe2
 209 200 l 25
 209 100 l 25xe4
 172 100 l 25
 172 0 l 25
 59 0 l 25
 59 100 l 25xf2
 22 100 l 25
 22 200 l 1xe8
 -16 200 l 29xf0
EndSplineSet
EndChar

StartChar: uni2699
Encoding: 9881 9881 263
Width: 450
Flags: HW
HStem: 0 100<37 75 375 413> 300 100<-37 75 375 487> 600 100<37 75 375 413>
VStem: 37 75<0 100 601 700> 75 112<200 300 400 500> 187 75<-100 100 600 800> 263 112<200 300 400 500> 337 75<0 100 600 700>
CounterMasks: 1 e0
LayerCount: 2
Back
Fore
SplineSet
150 300 m 29xea
 187 300 l 25
 187 200 l 25
 263 200 l 25
 263 300 l 25
 300 300 l 25
 300 400 l 25
 263 400 l 25
 263 500 l 25
 187 500 l 25
 187 400 l 25
 150 400 l 25
 150 300 l 29xea
-37 300 m 25
 -37 400 l 25
 75 400 l 25
 75 601 l 25xe8
 37 600 l 25
 37 700 l 25
 113 700 l 25
 113 600 l 25
 187 600 l 25
 187 800 l 25
 263 800 l 25
 263 600 l 25
 337 600 l 25
 337 700 l 25
 413 700 l 25
 413 600 l 25xf5
 375 600 l 25
 375 400 l 25
 487 400 l 25
 487 300 l 25
 375 300 l 25
 375 100 l 25xe2
 413 100 l 25
 413 0 l 25
 337 0 l 25
 337 100 l 25
 263 100 l 25
 263 -100 l 25
 187 -100 l 25
 187 100 l 25
 113 100 l 25
 113 0 l 25
 37 0 l 25
 37 100 l 25xf5
 75 100 l 25
 75 300 l 25
 -37 300 l 25
EndSplineSet
EndChar

StartChar: uni2139
Encoding: 8505 8505 264
Width: 462
Flags: HW
HStem: -100 100<43 419> 500 100<193 269> 700 100<43 419>
VStem: -69 75<100 600> -31 75<0 100 600 700> 193 75<100 400 500 600> 419 75<0 100 600 700> 456 75<100 600>
LayerCount: 2
Back
Fore
SplineSet
193 100 m 25xe4
 193 400 l 25
 269 400 l 25
 269 100 l 25
 193 100 l 25xe4
193 500 m 25
 193 600 l 25
 269 600 l 25
 269 500 l 25
 193 500 l 25
456 600 m 29xe5
 419 600 l 25
 419 700 l 25
 43 700 l 25
 43 600 l 25xee
 6 600 l 25
 6 100 l 25xf4
 43 100 l 25
 43 0 l 25
 419 0 l 25
 419 100 l 25xee
 456 100 l 25
 456 600 l 29xe5
-69 100 m 25xf4
 -69 600 l 25xf4
 -31 600 l 25
 -31 700 l 25xec
 6 700 l 25
 6 800 l 25
 456 800 l 25
 456 700 l 25xf5
 493 700 l 25
 493 600 l 25xe6
 531 600 l 25
 531 100 l 25xe5
 493 100 l 25
 493 0 l 25xe6
 456 0 l 25
 456 -100 l 25
 6 -100 l 25
 6 0 l 25xf5
 -31 0 l 25
 -31 100 l 25xec
 -69 100 l 25xf4
EndSplineSet
EndChar

StartChar: uni2605
Encoding: 9733 9733 265
Width: 375
Flags: HW
HStem: 0 100<-0.5 37.5 337.5 375.5> 400 200<37.5 112.5 262.5 337.5> 500 100<-37.5 37.5 337.5 412.5>
VStem: -0 75<0 100> 38 112<100 200> 112 150<300 400 600 700> 226 112<100 200> 300 75<0 100>
LayerCount: 2
Back
Fore
SplineSet
-0 0 m 29xd0
 -0 100 l 25xd0
 38 100 l 25
 38 200 l 25xc8
 76 200 l 25
 76 300 l 25
 112 300 l 25
 112 400 l 25xd4
 38 400 l 25xc8
 38 500 l 25
 -38 500 l 25
 -38 600 l 25xa8
 112 600 l 25
 112 700 l 25xc4
 150 700 l 25
 150 800 l 25
 226 800 l 25
 226 700 l 25xca
 262 700 l 25
 262 600 l 25xc4
 412 600 l 25
 412 500 l 25
 338 500 l 25xa2
 338 400 l 25xc2
 262 400 l 25
 262 300 l 25
 300 300 l 25
 300 200 l 25xc5
 338 200 l 25
 338 100 l 25xc2
 376 100 l 25
 376 0 l 25
 300 0 l 25
 300 100 l 25xc1
 226 100 l 25
 226 200 l 25
 150 200 l 25
 150 100 l 25xca
 76 100 l 25
 76 0 l 25
 -0 0 l 29xd0
EndSplineSet
EndChar

StartChar: uni23CF
Encoding: 9167 9167 266
Width: 375
Flags: HW
HStem: 0 100<-0.5 375.5> 200 100<-0.5 37.5 337.5 375.5> 680 20G<149.5 225.5>
VStem: 150 75<600 700>
LayerCount: 2
Back
Fore
SplineSet
-0 0 m 25
 -0 100 l 25
 376 100 l 25
 376 0 l 25
 -0 0 l 25
-0 200 m 29
 -0 300 l 29
 38 300 l 29
 38 400 l 29
 76 400 l 29
 76 500 l 29
 112 500 l 29
 112 600 l 29
 150 600 l 29
 150 700 l 29
 226 700 l 29
 226 600 l 29
 262 600 l 29
 262 500 l 29
 300 500 l 29
 300 400 l 29
 338 400 l 29
 338 300 l 29
 376 300 l 29
 376 200 l 29
 -0 200 l 29
EndSplineSet
EndChar

StartChar: uni23E9
Encoding: 9193 9193 267
Width: 456
Flags: HW
HStem: 0 21G<-91 -16 247 322> 200 300<59 134 397 472> 300 100<134 209 472 547> 680 20G<-91 -16 247 322>
VStem: -91 225<200 300 400 500> -91 150<100 200 500 600> -91 75<0 100 600 700> 247 225<200 300 400 500> 247 150<100 200 500 600> 247 75<0 100 600 700>
LayerCount: 2
Back
Fore
SplineSet
-91 700 m 29xd2
 -16 700 l 29
 -16 600 l 29xd2
 59 600 l 29
 59 500 l 29xd4
 134 500 l 29xd8
 134 400 l 29
 209 400 l 29
 209 300 l 29
 134 300 l 29xb8
 134 200 l 29xd8
 59 200 l 29
 59 100 l 29xd4
 -16 100 l 29
 -16 0 l 29
 -91 0 l 29
 -91 700 l 29xd2
247 700 m 25xd040
 322 700 l 25
 322 600 l 25xd040
 397 600 l 25
 397 500 l 25xd080
 472 500 l 25xd1
 472 400 l 25
 547 400 l 25
 547 300 l 25
 472 300 l 25xb1
 472 200 l 25xd1
 397 200 l 25
 397 100 l 25xd080
 322 100 l 25
 322 0 l 25
 247 0 l 25
 247 700 l 25xd040
EndSplineSet
EndChar

StartChar: uni23EA
Encoding: 9194 9194 268
Width: 456
Flags: HW
HStem: 0 21G<134 209 472 547> 200 300<-16 59 322 397> 300 100<-91 -16 247 322> 680 20G<134 209 472 547>
VStem: -16 225<200 300 400 500> 59 150<100 200 500 600> 134 75<0 100 600 700> 322 225<200 300 400 500> 397 150<100 200 500 600> 472 75<0 100 600 700>
LayerCount: 2
Back
Fore
SplineSet
547 700 m 25xd040
 547 0 l 25
 472 0 l 25
 472 100 l 25xd040
 397 100 l 25
 397 200 l 25xd080
 322 200 l 25xd1
 322 300 l 25
 247 300 l 25
 247 400 l 25
 322 400 l 25xb1
 322 500 l 25xd1
 397 500 l 25
 397 600 l 25xd080
 472 600 l 25
 472 700 l 25
 547 700 l 25xd040
209 700 m 29xd2
 209 0 l 29
 134 0 l 29
 134 100 l 29xd2
 59 100 l 29
 59 200 l 29xd4
 -16 200 l 29xd8
 -16 300 l 29
 -91 300 l 29
 -91 400 l 29
 -16 400 l 29xb8
 -16 500 l 29xd8
 59 500 l 29
 59 600 l 29xd4
 134 600 l 29
 134 700 l 29
 209 700 l 29xd2
EndSplineSet
EndChar

StartChar: uni23ED
Encoding: 9197 9197 269
Width: 456
Flags: HW
HStem: 0 21G<-166 -91 172 247 509 622> 200 300<-16 59 322 397> 300 100<59 134 397 472> 680 20G<-166 -91 172 247 509 622>
VStem: -166 225<200 300 400 500> -166 150<100 200 500 600> -166 75<0 100 600 700> 172 225<200 300 400 500> 172 150<100 200 500 600> 172 75<0 100 600 700> 509 112<0 700>
LayerCount: 2
Back
Fore
SplineSet
509 700 m 29x9020
 622 700 l 29
 622 0 l 29
 509 0 l 29
 509 700 l 29x9020
172 700 m 25xd060
 247 700 l 25
 247 600 l 25xd060
 322 600 l 25
 322 500 l 25xd0a0
 397 500 l 25xd120
 397 400 l 25
 472 400 l 25
 472 300 l 25
 397 300 l 25xb120
 397 200 l 25xd120
 322 200 l 25
 322 100 l 25xd0a0
 247 100 l 25
 247 0 l 25
 172 0 l 25
 172 700 l 25xd060
-166 700 m 25xd220
 -91 700 l 25
 -91 600 l 25xd220
 -16 600 l 25
 -16 500 l 25xd420
 59 500 l 25xd820
 59 400 l 25
 134 400 l 25
 134 300 l 25
 59 300 l 25xb820
 59 200 l 25xd820
 -16 200 l 25
 -16 100 l 25xd420
 -91 100 l 25
 -91 0 l 25
 -166 0 l 25
 -166 700 l 25xd220
EndSplineSet
EndChar

StartChar: uni23EE
Encoding: 9198 9198 270
Width: 456
Flags: HW
HStem: 0 21G<-166 -53 209 284 547 622> 200 300<59 134 397 472> 300 100<-16 59 322 397> 680 20G<-166 -53 209 284 547 622>
VStem: -166 112<0 700> 59 225<200 300 400 500> 134 150<100 200 500 600> 209 75<0 100 600 700> 397 225<200 300 400 500> 472 150<100 200 500 600> 547 75<0 100 600 700>
LayerCount: 2
Back
Fore
SplineSet
-166 700 m 29x98
 -53 700 l 29
 -53 0 l 29
 -166 0 l 29
 -166 700 l 29x98
622 700 m 25xd820
 622 0 l 25
 547 0 l 25
 547 100 l 25xd820
 472 100 l 25
 472 200 l 25xd840
 397 200 l 25xd880
 397 300 l 25
 322 300 l 25
 322 400 l 25
 397 400 l 25xb880
 397 500 l 25xd880
 472 500 l 25
 472 600 l 25xd840
 547 600 l 25
 547 700 l 25
 622 700 l 25xd820
284 700 m 25xd9
 284 0 l 25
 209 0 l 25
 209 100 l 25xd9
 134 100 l 25
 134 200 l 25xda
 59 200 l 25xdc
 59 300 l 25
 -16 300 l 25
 -16 400 l 25
 59 400 l 25xbc
 59 500 l 25xdc
 134 500 l 25
 134 600 l 25xda
 209 600 l 25
 209 700 l 25
 284 700 l 25xd9
EndSplineSet
EndChar

StartChar: uni23EF
Encoding: 9199 9199 271
Width: 456
Flags: HW
HStem: 0 21G<-128 -53 247 359 472 584> 300 100<97 172> 680 20G<-128 -53 247 359 472 584>
VStem: -128 225<200 300 400 500> -128 150<100 200 500 600> -128 75<0 100 600 700> 247 112<0 700> 472 112<0 700>
LayerCount: 2
Back
Fore
SplineSet
-128 700 m 25xe7
 -53 700 l 25
 -53 600 l 25xe7
 22 600 l 25
 22 500 l 25xeb
 97 500 l 25
 97 400 l 25
 172 400 l 25
 172 300 l 25
 97 300 l 25
 97 200 l 25xf3
 22 200 l 25
 22 100 l 25xeb
 -53 100 l 25
 -53 0 l 25
 -128 0 l 25
 -128 700 l 25xe7
247 700 m 29
 359 700 l 29
 359 0 l 29
 247 0 l 29
 247 700 l 29
472 700 m 29
 584 700 l 29
 584 0 l 29
 472 0 l 29
 472 700 l 29
EndSplineSet
EndChar

StartChar: uni23F8
Encoding: 9208 9208 273
Width: 381
Flags: HW
HStem: 0 21G<21.5 134.5 246.5 359.5> 680 20G<21.5 134.5 246.5 359.5>
VStem: 22 112<0 700> 246 112<0 700>
LayerCount: 2
Back
Fore
SplineSet
22 700 m 29
 134 700 l 29
 134 0 l 29
 22 0 l 29
 22 700 l 29
246 700 m 29
 360 700 l 29
 360 0 l 29
 246 0 l 29
 246 700 l 29
EndSplineSet
EndChar

StartChar: uni23F9
Encoding: 9209 9209 274
Width: 381
Flags: HW
HStem: 0 21G<-15.5 396.5> 680 20G<-15.5 396.5>
VStem: -16 412<0 700>
LayerCount: 2
Back
Fore
SplineSet
-16 700 m 29
 396 700 l 25
 396 0 l 25
 -16 0 l 25
 -16 700 l 29
EndSplineSet
EndChar

StartChar: uni23FA
Encoding: 9210 9210 275
Width: 375
Flags: HW
HStem: 0 21G<75.5 299.5> 680 20G<75.5 299.5>
VStem: 76 225<0 100 600 700>
LayerCount: 2
Back
Fore
SplineSet
-38 500 m 29
 -0 500 l 25
 -0 600 l 25
 76 600 l 25
 76 700 l 25
 300 700 l 25
 300 600 l 25
 376 600 l 25
 376 500 l 25
 412 500 l 25
 412 200 l 25
 376 200 l 25
 376 100 l 25
 300 100 l 25
 300 0 l 25
 76 0 l 25
 76 100 l 25
 -0 100 l 25
 -0 200 l 25
 -38 200 l 25
 -38 500 l 29
EndSplineSet
EndChar

StartChar: uni23FD
Encoding: 9213 9213 276
Width: 462
Flags: HW
HStem: -100 100<81 381> 500 100<81 119 343 381>
VStem: -31 75<100 400> 6 75<0 100 400 500> 43 75<500 600> 193 75<300 800> 343 75<500 600> 381 75<0 100 400 500> 419 75<100 400>
LayerCount: 2
Back
Fore
SplineSet
193 300 m 29xc4
 193 800 l 1
 269 800 l 25
 269 300 l 1
 193 300 l 29xc4
43 500 m 25xcc
 43 600 l 25
 119 600 l 25
 119 500 l 25xcc
 81 500 l 25
 81 400 l 25xd4
 43 400 l 25
 43 100 l 25xe4
 81 100 l 25
 81 0 l 25
 381 0 l 25
 381 100 l 25xd5
 419 100 l 25
 419 400 l 25xc480
 381 400 l 25
 381 500 l 25xc5
 343 500 l 25
 343 600 l 25
 419 600 l 25
 419 500 l 25xc6
 456 500 l 25
 456 400 l 25xc5
 493 400 l 25
 493 100 l 25xc480
 456 100 l 25
 456 0 l 25xc5
 419 0 l 25
 419 -100 l 25
 43 -100 l 25
 43 0 l 25xcc80
 6 0 l 25
 6 100 l 25xd4
 -31 100 l 25
 -31 400 l 25xe4
 6 400 l 25
 6 500 l 25xd4
 43 500 l 25xcc
EndSplineSet
EndChar

StartChar: uni2B58
Encoding: 11096 11096 277
Width: 462
Flags: HW
HStem: 0 100<156 306> 100 100<81 119 343 381> 600 100<81 119 343 381> 700 100<156 306>
VStem: -31 75<300 500> 6 75<200 300 500 600> 43 112<100 200 600 700> 119 225<0 100 700 800> 193 75<200 600> 306 112<100 200 600 700> 381 75<200 300 500 600> 419 75<300 500>
LayerCount: 2
Back
Fore
SplineSet
193 200 m 29x6080
 193 600 l 25
 269 600 l 25
 269 200 l 25
 193 200 l 29x6080
81 200 m 25x64
 156 200 l 25x62
 156 100 l 25
 306 100 l 25x8240
 306 200 l 25x4240
 381 200 l 25
 381 300 l 25x4020
 419 300 l 25
 419 500 l 25x4010
 381 500 l 25
 381 600 l 25x6020
 306 600 l 25x6040
 306 700 l 25
 156 700 l 25x1240
 156 600 l 25x2240
 81 600 l 25
 81 500 l 25x24
 43 500 l 25
 43 300 l 25x28
 81 300 l 25
 81 200 l 25x64
43 600 m 25
 43 700 l 1x12
 119 700 l 25x21
 119 800 l 25
 343 800 l 25x11
 343 700 l 25x21
 419 700 l 25x1040
 419 600 l 25x2040
 456 600 l 25
 456 500 l 25x2020
 493 500 l 25
 493 300 l 25x2010
 456 300 l 25
 456 200 l 25x6020
 419 200 l 25
 419 100 l 25x6040
 343 100 l 25x61
 343 0 l 25
 119 0 l 25x81
 119 100 l 25x41
 43 100 l 25
 43 200 l 25x42
 6 200 l 25
 6 300 l 25x44
 -31 300 l 25
 -31 500 l 25x48
 6 500 l 25
 6 600 l 1x64
 43 600 l 25
EndSplineSet
EndChar

StartChar: trademark
Encoding: 8482 8482 278
Width: 456
Flags: HW
HStem: 400 300<22 97 209 284 434 509> 500 100<322 397> 600 100<-53 22 97 172 284 322 397 434>
VStem: 22 75<400 600> 209 112<600 700> 209 75<400 600> 322 75<500 600> 397 112<600 700> 434 75<400 600>
LayerCount: 2
Back
Fore
SplineSet
209 400 m 29x94
 209 700 l 25x98
 322 700 l 25x38
 322 600 l 25x58
 397 600 l 25x52
 397 700 l 25x31
 509 700 l 25x91
 509 400 l 25
 434 400 l 25x9080
 434 600 l 25x3080
 397 600 l 25
 397 500 l 25
 322 500 l 25x5280
 322 600 l 25x58
 284 600 l 25x34
 284 400 l 25
 209 400 l 29x94
-53 600 m 25x30
 -53 701 l 25
 172 700 l 25
 172 600 l 1
 97 600 l 25x30
 97 400 l 1
 22 400 l 25x90
 22 600 l 25
 -53 600 l 25x30
EndSplineSet
EndChar

StartChar: uni25FC
Encoding: 9724 9724 279
Width: 375
Flags: HW
HStem: 0 100<149.5 225.5> 680 20G<149.5 225.5>
VStem: 150 75<0 100 200 700>
LayerCount: 2
Back
Fore
SplineSet
150 700 m 29
 226 700 l 25
 226 200 l 25
 150 200 l 25
 150 700 l 29
226 0 m 25
 150 0 l 1
 150 100 l 25
 226 100 l 1
 226 0 l 25
EndSplineSet
EndChar

StartChar: filledbox
Encoding: 9632 9632 280
Width: 375
Flags: HW
HStem: 0 21G<-37.5 412.5>
VStem: -38 450<0 800>
LayerCount: 2
Back
Fore
SplineSet
-38 0 m 29
 -38 800 l 25
 412 800 l 25
 412 0 l 25
 -38 0 l 29
EndSplineSet
EndChar

StartChar: uni26C7
Encoding: 9927 9927 281
Width: 381
Flags: HW
HStem: -100 100<-15.5 59.5 321.5 396.5> 400 100<21.5 59.5 321.5 359.5> 500 100<-15.5 21.5 59.5 96.5 284.5 321.5 359.5 396.5>
VStem: -16 112<-100 0> -16 38<500 600> 22 38<400 500> 60 75<500 600> 96 188<100 200 400 500 600 700> 172 38<500 600> 246 75<500 600> 284 112<-100 0> 322 38<400 500> 360 38<500 600>
LayerCount: 2
Back
Fore
SplineSet
210 500 m 29xa0c0
 246 500 l 29
 246 600 l 29
 210 600 l 29
 210 500 l 29xa0c0
135 500 m 25xa280
 172 500 l 25
 172 600 l 25
 135 600 l 25
 135 500 l 25xa280
-16 -100 m 25xd020
 -16 0 l 25xd020
 60 0 l 25
 60 100 l 1xc2
 96 100 l 1
 96 200 l 1xc1
 60 200 l 1xc2
 60 400 l 25
 96 400 l 25xc5
 96 500 l 25xa5
 60 500 l 25xc5
 60 600 l 25xa2
 96 600 l 25
 96 700 l 25xa1
 135 700 l 25
 135 800 l 25
 246 800 l 25
 246 700 l 25xa240
 284 700 l 25
 284 600 l 25xa1
 321 600 l 25xa040
 321 500 l 25xc040
 284 500 l 25xa1
 284 400 l 25
 321 400 l 25
 321 200 l 1
 284 200 l 1
 284 100 l 1
 321 100 l 1
 321 0 l 25xc110
 396 0 l 25
 396 -100 l 25
 284 -100 l 25
 284 0 l 25
 96 0 l 25
 96 -100 l 25
 -16 -100 l 25xd020
22 500 m 25xc8
 60 500 l 25
 60 400 l 25
 22 400 l 25xc4
 22 500 l 25xc8
-16 600 m 25xa8
 22 600 l 25xa8
 22 500 l 25xc8
 -16 500 l 25
 -16 600 l 25xa8
321 400 m 25xc010
 321 500 l 25xc040
 360 500 l 25
 360 400 l 25
 321 400 l 25xc010
360 500 m 25xc010
 360 600 l 25
 396 600 l 25
 396 500 l 25xa008
 360 500 l 25xc010
EndSplineSet
EndChar

StartChar: uni2744
Encoding: 10052 10052 282
Width: 450
Flags: HMW
LayerCount: 2
Back
Fore
SplineSet
263 500 m 29
 300 500 l 25
 300 600 l 25
 263 600 l 25
 263 500 l 29
150 500 m 25
 187 500 l 25
 187 600 l 25
 150 600 l 25
 150 500 l 25
187 400 m 25
 187 300 l 25
 263 300 l 25
 263 400 l 25
 187 400 l 25
-113 -100 m 25
 -113 100 l 1
 -37 100 l 25
 -37 0 l 25
 0 0 l 25
 0 100 l 25
 37 100 l 25
 37 200 l 25
 113 200 l 25
 113 300 l 25
 0 300 l 25
 0 200 l 25
 -75 200 l 25
 -75 300 l 25
 -113 300 l 25
 -113 400 l 25
 -75 400 l 25
 -75 500 l 25
 0 500 l 25
 0 400 l 25
 113 400 l 25
 113 500 l 25
 37 500 l 25
 37 600 l 25
 0 600 l 25
 0 700 l 25
 -37 700 l 25
 -37 600 l 25
 -113 600 l 25
 -113 800 l 25
 0 800 l 25
 0 700 l 25
 75 700 l 25
 75 600 l 25
 150 600 l 25
 150 700 l 25
 187 700 l 25
 187 800 l 25
 263 800 l 25
 263 700 l 25
 300 700 l 25
 300 600 l 25
 375 600 l 25
 375 700 l 25
 450 700 l 25
 450 800 l 25
 563 800 l 25
 563 600 l 25
 487 600 l 25
 487 700 l 25
 450 700 l 25
 450 600 l 25
 413 600 l 25
 413 500 l 25
 337 500 l 25
 337 400 l 25
 450 400 l 25
 450 500 l 25
 525 500 l 25
 525 400 l 25
 563 400 l 25
 563 300 l 25
 525 300 l 25
 525 200 l 25
 450 200 l 25
 450 300 l 25
 337 300 l 25
 337 200 l 25
 413 200 l 25
 413 100 l 25
 450 100 l 25
 450 0 l 25
 487 0 l 25
 487 100 l 25
 563 100 l 25
 563 -100 l 25
 450 -100 l 25
 450 0 l 25
 375 0 l 25
 375 100 l 25
 300 100 l 25
 300 200 l 25
 263 200 l 25
 263 100 l 25
 300 100 l 25
 300 0 l 25
 263 0 l 25
 263 -100 l 25
 187 -100 l 25
 187 0 l 25
 150 0 l 25
 150 100 l 25
 187 100 l 25
 187 200 l 25
 150 200 l 25
 150 100 l 25
 75 100 l 25
 75 0 l 25
 0 0 l 25
 0 -100 l 1
 -113 -100 l 25
EndSplineSet
EndChar

StartChar: uni26A0
Encoding: 9888 9888 283
Width: 450
Flags: HW
HStem: -100 100<-37 487> 100 100<187 263> 300 200<37 75 187 263 375 413> 700 100<187 263>
VStem: -113 75<0 100> -75 75<100 200> -37 75<200 300> 0 75<300 400> 37 75<400 500> 75 75<500 600> 113 75<600 700> 187 75<100 200 300 500> 263 75<600 700> 300 75<500 600> 337 75<400 500> 375 75<300 400> 413 75<200 300> 450 75<100 200> 487 75<0 100>
LayerCount: 2
Back
Fore
SplineSet
187 100 m 29xf010
 187 200 l 25
 263 200 l 25
 263 100 l 25
 187 100 l 29xf010
187 300 m 25
 187 500 l 25
 263 500 l 25
 263 300 l 25
 187 300 l 25
187 600 m 25xf028
 150 600 l 25
 150 500 l 25xf040
 113 500 l 25
 113 400 l 25xf080
 75 400 l 25
 75 300 l 25xf1
 37 300 l 25
 37 200 l 25xf2
 0 200 l 25
 0 100 l 25xf4
 -37 100 l 25
 -37 0 l 25
 487 0 l 25
 487 100 l 25xf80020
 450 100 l 25
 450 200 l 25xf00040
 413 200 l 25
 413 300 l 25xf00080
 375 300 l 25
 375 400 l 25xf001
 337 400 l 25
 337 500 l 25xf002
 300 500 l 25
 300 600 l 25xf004
 263 600 l 25
 263 700 l 25
 187 700 l 25
 187 600 l 25xf028
-113 -100 m 25xf80020
 -113 100 l 1xf80020
 -75 100 l 25
 -75 200 l 25xf4
 -37 200 l 25
 -37 300 l 25xf2
 0 300 l 25
 0 400 l 25xf1
 37 400 l 25
 37 500 l 25xf080
 75 500 l 25
 75 600 l 25xf040
 113 600 l 25
 113 700 l 25xf020
 150 700 l 25
 150 800 l 25
 300 800 l 25
 300 700 l 25xf044
 337 700 l 25
 337 600 l 25xf008
 375 600 l 25
 375 500 l 25xf004
 413 500 l 25
 413 400 l 25xf002
 450 400 l 25
 450 300 l 25xf001
 487 300 l 25
 487 200 l 25xf00080
 525 200 l 25
 525 100 l 25xf00040
 563 100 l 25
 563 -100 l 1
 -113 -100 l 25xf80020
EndSplineSet
EndChar

StartChar: u1F642
Encoding: 128578 128578 284
Width: 462
Flags: HW
HStem: -100 100<43 419> 100 100<119 343> 200 100<43 81 381 419> 500 100<81 156 306 381> 700 100<43 419>
VStem: -69 75<100 600> -31 75<0 100 600 700> 43 75<200 300> 81 75<500 600> 306 75<500 600> 343 75<200 300> 419 75<0 100 600 700> 456 75<100 600>
LayerCount: 2
Back
Fore
SplineSet
306 500 m 25x9840
 306 600 l 25
 381 600 l 25
 381 500 l 25
 306 500 l 25x9840
81 500 m 25x9880
 81 600 l 25
 156 600 l 25
 156 500 l 25
 81 500 l 25x9880
43 200 m 25xb9
 43 300 l 1
 119 300 l 25xb9
 119 200 l 25
 343 200 l 25xd920
 343 300 l 25
 419 300 l 25
 419 200 l 25xb920
 381 200 l 25xb840
 381 100 l 25
 81 100 l 25xd8c0
 81 200 l 1xb8c0
 43 200 l 25xb9
43 0 m 25xda
 419 0 l 25
 419 100 l 25xda10
 456 100 l 25
 456 600 l 25xd808
 419 600 l 25
 419 700 l 25
 43 700 l 25
 43 600 l 25xda10
 6 600 l 25
 6 100 l 25xdc
 43 100 l 25
 43 0 l 25xda
-69 100 m 25xdc
 -69 600 l 25xdc
 -31 600 l 25
 -31 700 l 25xda
 6 700 l 25
 6 800 l 25
 456 800 l 25
 456 700 l 25xdc08
 493 700 l 25
 493 600 l 25xd810
 531 600 l 25
 531 100 l 25xd808
 493 100 l 25
 493 0 l 25xd810
 456 0 l 25
 456 -100 l 25
 6 -100 l 25
 6 0 l 25xdc08
 -31 0 l 25
 -31 100 l 25xda
 -69 100 l 25xdc
EndSplineSet
EndChar

StartChar: u1F643
Encoding: 128579 128579 285
Width: 462
Flags: HW
HStem: -100 100<43 419> 100 100<81 156 306 381> 400 100<43 81 381 419> 500 100<119 343> 700 100<43 419>
VStem: -69 75<100 600> -31 75<0 100 600 700> 43 75<400 500> 81 75<100 200> 306 75<100 200> 343 75<400 500> 419 75<0 100 600 700> 456 75<100 600>
LayerCount: 2
Back
Fore
SplineSet
43 400 m 29xe920
 43 500 l 25xe920
 81 500 l 25xe880
 81 600 l 25
 381 600 l 25xd8c0
 381 500 l 25xe8c0
 419 500 l 25
 419 400 l 25
 343 400 l 25xe820
 343 500 l 25
 119 500 l 25xd920
 119 400 l 25
 43 400 l 29xe920
306 100 m 25xc840
 306 200 l 25
 381 200 l 25
 381 100 l 25
 306 100 l 25xc840
81 100 m 25xc880
 81 200 l 25
 156 200 l 25
 156 100 l 25
 81 100 l 25xc880
43 0 m 25xda
 419 0 l 25
 419 100 l 25xda10
 456 100 l 25
 456 600 l 25xd808
 419 600 l 25
 419 700 l 25
 43 700 l 25
 43 600 l 25xda10
 6 600 l 25
 6 100 l 25xdc
 43 100 l 25
 43 0 l 25xda
-69 100 m 25xdc
 -69 600 l 25xdc
 -31 600 l 25
 -31 700 l 25xda
 6 700 l 25
 6 800 l 25
 456 800 l 25
 456 700 l 25xdc08
 493 700 l 25
 493 600 l 25xd810
 531 600 l 25
 531 100 l 25xd808
 493 100 l 25
 493 0 l 25xd810
 456 0 l 25
 456 -100 l 25
 6 -100 l 25
 6 0 l 25xdc08
 -31 0 l 25
 -31 100 l 25xda
 -69 100 l 25xdc
EndSplineSet
EndChar

StartChar: u1F604
Encoding: 128516 128516 286
Width: 462
Flags: HW
HStem: -100 100<43 419> 100 200<81 381> 200 100<43 81 381 419> 400 100<43 81 156 193 269 306 381 419> 500 100<81 156 306 381> 700 100<43 419>
VStem: -69 75<100 600> -31 75<0 100 600 700> 43 38<400 500> 81 75<500 600> 156 38<400 500> 269 38<400 500> 306 75<500 600> 381 38<400 500> 419 75<0 100 600 700> 456 75<100 600>
LayerCount: 2
Back
Fore
SplineSet
81 100 m 29xc444
 81 200 l 29xa444
 43 200 l 29
 43 300 l 29
 419 300 l 29
 419 200 l 29xa482
 381 200 l 29xa404
 381 100 l 29
 81 100 l 29xc444
269 400 m 25x9410
 269 500 l 25
 306 500 l 25x9410
 306 600 l 25
 381 600 l 25x8c08
 381 500 l 25x9408
 419 500 l 25
 419 400 l 25
 381 400 l 25x9404
 381 500 l 25x9408
 306 500 l 25
 306 400 l 25
 269 400 l 25x9410
43 400 m 25x9480
 43 500 l 25
 81 500 l 25x9480
 81 600 l 25
 156 600 l 25x8c40
 156 500 l 25x9440
 193 500 l 25
 193 400 l 25
 156 400 l 25x9420
 156 500 l 25x9440
 81 500 l 25
 81 400 l 25
 43 400 l 25x9480
43 0 m 25xcd
 419 0 l 25
 419 100 l 25xcd02
 456 100 l 29
 456 600 l 25xcc01
 419 600 l 25
 419 700 l 25
 43 700 l 25
 43 600 l 25xcd02
 6 600 l 25
 6 100 l 25xce
 43 100 l 25
 43 0 l 25xcd
-69 100 m 25xce
 -69 600 l 25xce
 -31 600 l 25
 -31 700 l 25xcd
 6 700 l 25
 6 800 l 25
 456 800 l 25
 456 700 l 25xce01
 493 700 l 25
 493 600 l 25xcc02
 531 600 l 25
 531 100 l 25xcc01
 493 100 l 25
 493 0 l 25xcc02
 456 0 l 25
 456 -100 l 25
 6 -100 l 25
 6 0 l 25xce01
 -31 0 l 25
 -31 100 l 25xcd
 -69 100 l 25xce
EndSplineSet
EndChar

StartChar: u1F606
Encoding: 128518 128518 287
Width: 462
Flags: HW
HStem: -100 100<43 419> 100 200<81 381> 200 100<43 81 381 419> 400 100<119 231 381 419> 500 100<43 81 231 343> 700 100<43 419>
VStem: -69 75<100 600> -31 75<0 100 600 700> 43 75<500 600> 343 75<400 500> 419 75<0 100 600 700> 456 75<100 600>
LayerCount: 2
Back
Fore
SplineSet
43 600 m 29x8d
 119 600 l 25x8c80
 119 500 l 25
 231 500 l 25x9480
 231 600 l 25
 381 600 l 25x8c80
 381 500 l 25
 419 500 l 25
 419 400 l 25
 343 400 l 25x94c0
 343 500 l 25x8cc0
 231 500 l 25
 231 400 l 25
 81 400 l 25x94c0
 81 500 l 25
 43 500 l 25x8cc0
 43 600 l 29x8d
81 100 m 25xc4a0
 81 200 l 25
 43 200 l 25
 43 300 l 25
 419 300 l 25
 419 200 l 25
 381 200 l 25xa4a0
 381 100 l 25
 81 100 l 25xc4a0
456 100 m 1049xc410
43 0 m 25xcd
 419 0 l 25
 419 100 l 25xcd20
 456 100 l 25
 456 600 l 25xcc10
 419 600 l 25
 419 700 l 25
 43 700 l 25
 43 600 l 25xcd20
 6 600 l 25
 6 100 l 25xce
 43 100 l 25
 43 0 l 25xcd
-69 100 m 25xce
 -69 600 l 25xce
 -31 600 l 25
 -31 700 l 25xcd
 6 700 l 25
 6 800 l 25
 456 800 l 25
 456 700 l 25xce10
 493 700 l 25
 493 600 l 25xcc20
 531 600 l 25
 531 100 l 25xcc10
 493 100 l 25
 493 0 l 25xcc20
 456 0 l 25
 456 -100 l 25
 6 -100 l 25
 6 0 l 25xce10
 -31 0 l 25
 -31 100 l 25xcd
 -69 100 l 25xce
EndSplineSet
EndChar

StartChar: u1F60E
Encoding: 128526 128526 288
Width: 462
Flags: HW
HStem: -100 100<43 419> 100 100<119 343> 200 100<43 81 381 419> 400 100<43 81 381 419> 500 100<193 269> 700 100<43 419>
VStem: -69 75<100 500> -31 75<0 100 600 700> 43 75<200 300> 343 75<200 300> 419 75<0 100 600 700> 456 75<100 500>
LayerCount: 2
Back
Fore
SplineSet
43 200 m 29xa4c0
 43 300 l 5
 119 300 l 29xa4c0
 119 200 l 29
 343 200 l 29xc4c0
 343 300 l 29
 419 300 l 29
 419 200 l 29
 381 200 l 29xa4c0
 381 100 l 29
 81 100 l 29xc4c0
 81 200 l 5
 43 200 l 29xa4c0
43 400 m 1x94a0
 43 500 l 25
 81 500 l 25x94a0
 81 600 l 25
 381 600 l 25x8ca0
 381 500 l 25
 419 500 l 25
 419 400 l 25
 269 400 l 25x94a0
 269 500 l 25
 193 500 l 1x8ca0
 193 400 l 25
 43 400 l 1x94a0
43 0 m 25xcd
 419 0 l 25
 419 100 l 25xcd20
 456 100 l 1
 456 500 l 1xcc10
 419 500 l 1
 419 700 l 1
 43 700 l 1x9520
 43 500 l 1x9480
 6 500 l 1
 6 100 l 1xce80
 43 100 l 25
 43 0 l 25xcd
-69 100 m 25xce
 -69 600 l 25xce
 -31 600 l 25
 -31 700 l 25xcd
 6 700 l 25
 6 800 l 25
 456 800 l 25
 456 700 l 25xce10
 493 700 l 25
 493 600 l 25xcc20
 531 600 l 25
 531 100 l 25xcc10
 493 100 l 25
 493 0 l 25xcc20
 456 0 l 25
 456 -100 l 25
 6 -100 l 25
 6 0 l 25xce10
 -31 0 l 25
 -31 100 l 25xcd
 -69 100 l 25xce
EndSplineSet
EndChar

StartChar: u1F621
Encoding: 128545 128545 289
Width: 462
Flags: HW
HStem: -100 100<43 419> 100 100<81 119 343 381> 200 100<156 306> 400 100<156 193 269 306> 500 100<43 119 343 419> 700 100<43 419>
VStem: -69 75<100 600> -31 75<0 100 600 700> 43 112<500 600> 81 75<100 200> 119 75<400 500> 269 75<400 500> 306 112<500 600> 306 75<101 200> 419 75<0 100 600 700> 456 75<100 600>
LayerCount: 2
Back
Fore
SplineSet
81 100 m 25xc444
 81 200 l 25xc444
 119 200 l 25xc420
 119 300 l 25
 343 300 l 25xa430
 343 200 l 25xc430
 381 200 l 25
 381 101 l 25
 306 100 l 25xc404
 306 200 l 25
 156 200 l 25xa444
 156 100 l 25
 81 100 l 25xc444
269 400 m 5x9410
 269 500 l 29x9410
 306 500 l 29x9408
 306 600 l 5
 419 600 l 1
 419 500 l 5x8c08
 343 500 l 5x8c10
 343 400 l 29
 269 400 l 5x9410
119 400 m 29x9420
 119 500 l 5x8c20
 43 500 l 5x8c80
 43 600 l 1x8d
 156 600 l 5x8c80
 156 500 l 29x9480
 193 500 l 29
 193 400 l 29
 119 400 l 29x9420
43 0 m 25xcd
 419 0 l 25
 419 100 l 25xcd02
 456 100 l 25
 456 600 l 25
 419 600 l 29xcc09
 419 700 l 25
 43 700 l 25
 43 600 l 29xcd02
 6 600 l 25
 6 100 l 25xce
 43 100 l 25
 43 0 l 25xcd
-69 100 m 25xce
 -69 600 l 25xce
 -31 600 l 25
 -31 700 l 25xcd
 6 700 l 25
 6 800 l 25
 456 800 l 25
 456 700 l 25xce01
 493 700 l 25
 493 600 l 25xcc02
 531 600 l 25
 531 100 l 25xcc01
 493 100 l 25
 493 0 l 25xcc02
 456 0 l 25
 456 -100 l 25
 6 -100 l 25
 6 0 l 25xce01
 -31 0 l 25
 -31 100 l 25xcd
 -69 100 l 25xce
EndSplineSet
EndChar

StartChar: u1F620
Encoding: 128544 128544 290
Width: 462
Flags: HW
HStem: -100 100<43 419> 100 100<81 119 343 381> 200 100<156 306> 400 100<156 193 269 306> 500 100<81 119 343 381> 700 100<43 419>
VStem: -69 75<100 600> -31 75<0 100 600 700> 81 75<100 200 500 600> 119 75<400 500> 269 75<400 500> 306 75<101 200 500 600> 419 75<0 100 600 700> 456 75<100 600>
LayerCount: 2
Back
Fore
SplineSet
269 400 m 1x9420
 269 500 l 25x9420
 306 500 l 25x9410
 306 600 l 25
 381 600 l 25
 381 500 l 25x8c10
 343 500 l 1x8c20
 343 400 l 25
 269 400 l 1x9420
119 400 m 25x9440
 119 500 l 25x8c40
 81 500 l 25
 81 600 l 25
 156 600 l 25x8c80
 156 500 l 25x9480
 193 500 l 25
 193 400 l 25
 119 400 l 25x9440
81 100 m 29xc490
 81 200 l 29xc490
 119 200 l 29xc440
 119 300 l 29
 343 300 l 29xa460
 343 200 l 29xc460
 381 200 l 29
 381 101 l 29
 306 100 l 29xc410
 306 200 l 29
 156 200 l 29xa490
 156 100 l 29
 81 100 l 29xc490
43 0 m 25xcd
 419 0 l 25
 419 100 l 25xcd08
 456 100 l 25
 456 600 l 25xcc04
 419 600 l 25
 419 700 l 25
 43 700 l 25
 43 600 l 25xcd08
 6 600 l 25
 6 100 l 25xce
 43 100 l 25
 43 0 l 25xcd
-69 100 m 25xce
 -69 600 l 25xce
 -31 600 l 25
 -31 700 l 25xcd
 6 700 l 25
 6 800 l 25
 456 800 l 25
 456 700 l 25xce04
 493 700 l 25
 493 600 l 25xcc08
 531 600 l 25
 531 100 l 25xcc04
 493 100 l 25
 493 0 l 25xcc08
 456 0 l 25
 456 -100 l 25
 6 -100 l 25
 6 0 l 25xce04
 -31 0 l 25
 -31 100 l 25xcd
 -69 100 l 25xce
EndSplineSet
EndChar

StartChar: u1F62D
Encoding: 128557 128557 291
Width: 462
Flags: HW
HStem: -100 100<43 419> 100 200<119 343> 300 100<43 81 381 419> 480 20G<81 119 343 381> 500 100<119 193 269 343> 700 100<43 419>
VStem: -69 75<100 600> -31 75<0 100 600 700> 43 75<300 400> 81 38<400 500> 119 75<500 600> 269 75<500 600> 343 75<300 400> 343 38<400 500> 419 75<0 100 600 700> 456 75<100 600>
LayerCount: 2
Back
Fore
SplineSet
119 100 m 29xc424
 119 300 l 25
 343 300 l 25xc488
 343 100 l 25
 119 100 l 29xc424
343 300 m 25
 343 500 l 25xd410
 381 500 l 25
 381 400 l 25xb404
 419 400 l 25
 419 300 l 25xb408
 343 300 l 25
43 300 m 25xa480
 43 400 l 25xa480
 81 400 l 25
 81 500 l 25
 119 500 l 25xb440
 119 300 l 25xd480
 43 300 l 25xa480
269 500 m 25x8c10
 269 600 l 25
 343 600 l 25x8c10
 343 500 l 25x9410
 269 500 l 25x8c10
119 500 m 25x9440
 119 600 l 25
 193 600 l 25
 193 500 l 25x8c20
 119 500 l 25x9440
43 0 m 25xcd
 419 0 l 25
 419 100 l 25xcd02
 456 100 l 25
 456 600 l 25xcc01
 419 600 l 25
 419 700 l 25
 43 700 l 25
 43 600 l 25xcd02
 6 600 l 25
 6 100 l 25xce
 43 100 l 25
 43 0 l 25xcd
-69 100 m 25xce
 -69 600 l 25xce
 -31 600 l 25
 -31 700 l 25xcd
 6 700 l 25
 6 800 l 25
 456 800 l 25
 456 700 l 25xce01
 493 700 l 25
 493 600 l 25xcc02
 531 600 l 25
 531 100 l 25xcc01
 493 100 l 25
 493 0 l 25xcc02
 456 0 l 25
 456 -100 l 25
 6 -100 l 25
 6 0 l 25xce01
 -31 0 l 25
 -31 100 l 25xcd
 -69 100 l 25xce
EndSplineSet
EndChar

StartChar: u1F50C
Encoding: 128268 128268 292
Width: 381
Flags: HW
VStem: 60 75<600 800> 134 112<150 300> 246 75<600 800>
LayerCount: 2
Back
Fore
SplineSet
22 400 m 29x40
 22 600 l 25
 60 600 l 25
 60 800 l 25
 135 800 l 25
 135 600 l 25
 246 600 l 25
 246 800 l 25
 321 800 l 25
 321 600 l 25xa0
 360 600 l 25
 360 400 l 25
 284 400 l 25
 284 300 l 25
 246 300 l 25
 246 150 l 25
 210 150 l 25
 210 -100 l 25
 172 -100 l 25
 172 150 l 25
 135 150 l 25
 135 300 l 25
 96 300 l 25
 96 400 l 25
 22 400 l 29x40
EndSplineSet
EndChar

StartChar: u1F4FA
Encoding: 128250 128250 293
Width: 450
Flags: HW
HStem: -100 200<37 413> 500 100<37 150 300 413> 700 100<75 150 300 375>
VStem: -37 75<100 500> 75 75<700 800> 300 75<700 800> 413 75<100 500>
LayerCount: 2
Back
Fore
SplineSet
37 100 m 29
 413 100 l 25
 413 500 l 25
 37 500 l 25
 37 100 l 29
-37 -100 m 25
 -37 600 l 25
 150 600 l 25
 150 700 l 25
 75 700 l 25
 75 800 l 25
 150 800 l 25
 150 700 l 25
 300 700 l 25
 300 800 l 25
 375 800 l 25
 375 700 l 25
 300 700 l 25
 300 600 l 25
 487 600 l 25
 487 -100 l 25
 -37 -100 l 25
EndSplineSet
EndChar

StartChar: u1F4FB
Encoding: 128251 128251 294
Width: 450
Flags: HW
HStem: -100 100<37 413> 150 100<263 300> 200 100<375 413> 300 100<37 337> 700 100<450 487>
VStem: -37 75<0 300> 75 75<50 250> 263 38<150 250> 413 75<0 200 300 500 700 800> 413 38<500 700>
LayerCount: 2
Back
Fore
SplineSet
263 150 m 29xcf
 263 250 l 25
 300 250 l 25
 300 150 l 25
 263 150 l 29xcf
75 50 m 25
 75 250 l 25
 150 250 l 25
 150 50 l 25
 75 50 l 25
37 0 m 25
 413 0 l 25
 413 200 l 25
 337 200 l 25xaf80
 337 300 l 25
 37 300 l 25x9f80
 37 0 l 25
-37 -100 m 25
 -37 300 l 25
 0 300 l 25
 0 400 l 25
 375 400 l 25x9f80
 375 300 l 25
 413 300 l 25
 413 800 l 25
 487 800 l 25
 487 700 l 25xaf80
 450 700 l 25
 450 500 l 25xaf40
 487 500 l 25
 487 -100 l 25
 -37 -100 l 25
EndSplineSet
EndChar

StartChar: u1F4FC
Encoding: 128252 128252 295
Width: 450
Flags: HW
HStem: 0 100<0 450> 150 100<113 187 263 337> 250 100<37 75 375 413> 350 100<113 187 263 337> 500 100<0 450>
VStem: -75 75<100 500> 37 75<250 350> 187 75<250 350> 337 75<250 350> 450 75<100 500>
LayerCount: 2
Back
Fore
SplineSet
113 250 m 29xdfc0
 187 250 l 25
 187 350 l 25
 113 350 l 25
 113 250 l 29xdfc0
263 250 m 25
 337 250 l 25
 337 350 l 25
 263 350 l 25
 263 250 l 25
75 150 m 25
 75 250 l 25
 37 250 l 25
 37 350 l 25
 75 350 l 25xafc0
 75 450 l 25
 375 450 l 25x9fc0
 375 350 l 25
 413 350 l 25
 413 250 l 25
 375 250 l 25xafc0
 375 150 l 25
 75 150 l 25
0 100 m 25
 450 100 l 25
 450 500 l 25
 0 500 l 25
 0 100 l 25
-75 0 m 25
 -75 600 l 25
 525 600 l 25
 525 0 l 25
 -75 0 l 25
EndSplineSet
EndChar

StartChar: u1F508
Encoding: 128264 128264 296
Width: 375
Flags: HW
HStem: -100 100<299.5 337.5> 0 100<225.5 262.5> 100 100<149.5 187.5> 200 100<37.5 75.5> 400 100<37.5 75.5> 500 100<149.5 187.5> 600 100<225.5 262.5> 700 100<299.5 337.5>
VStem: -38 188<200 300 400 500> -38 75<300 400> 112 112<100 200 500 600> 188 112<0 100 600 700> 262 150<-100 0 700 800> 338 75<0 700>
LayerCount: 2
Back
Fore
SplineSet
150 200 m 29x2480
 226 200 l 29
 226 100 l 29x5020
 300 100 l 29
 300 0 l 29
 338 0 l 29
 338 700 l 29
 300 700 l 29xa114
 300 600 l 29x0214
 226 600 l 29x0220
 226 500 l 29x0420
 150 500 l 29
 150 200 l 29x2480
37 300 m 29x1840
 76 300 l 29
 76 400 l 29
 37 400 l 29
 37 300 l 29x1840
-38 200 m 29x1080
 -38 500 l 29x1480
 112 500 l 29x1420
 112 600 l 29x0220
 188 600 l 29
 188 700 l 29x0510
 262 700 l 29x0208
 262 800 l 29
 412 800 l 29
 412 -100 l 29
 262 -100 l 29x8108
 262 0 l 29x4008
 188 0 l 29x4010
 188 100 l 29x2010
 112 100 l 29x2020
 112 200 l 29x1020
 -38 200 l 29x1080
EndSplineSet
EndChar

StartChar: u1F507
Encoding: 128263 128263 297
Width: 375
Flags: HW
HStem: -100 100<299.5 337.5> 0 100<187.5 262.5> 200 100<37.5 75.5 112.5 149.5 262.5 299.5> 400 100<37.5 75.5 112.5 149.5 262.5 299.5> 600 100<187.5 262.5> 700 100<299.5 337.5>
VStem: -38 112<200 300 400 500> -38 75<300 400> 112 75<200 300 400 500> 188 112<0 100 600 700> 226 75<200 300 400 500> 262 150<-100 0 700 800> 338 75<0 700>
LayerCount: 2
Back
Fore
SplineSet
187 600 m 29x3848
 187 700 l 25x3848
 262 700 l 25x3810
 262 800 l 25
 412 800 l 25
 412 -100 l 25
 262 -100 l 25xb410
 262 0 l 25x7010
 187 0 l 25
 187 100 l 25
 300 100 l 25x7040
 300 0 l 25
 338 0 l 25
 338 700 l 25
 300 700 l 25xb448
 300 600 l 25
 187 600 l 29x3848
112 200 m 25x30a0
 112 300 l 25
 150 300 l 25
 150 400 l 25
 112 400 l 25
 112 500 l 25
 187 500 l 25
 187 400 l 25
 226 400 l 25
 226 500 l 25
 300 500 l 25
 300 400 l 25x30a0
 262 400 l 25
 262 300 l 25x3010
 300 300 l 25
 300 200 l 25
 226 200 l 25
 226 300 l 25
 187 300 l 25
 187 200 l 25
 112 200 l 25x30a0
-38 200 m 25x32
 -38 500 l 25
 76 500 l 25
 76 400 l 25x32
 37 400 l 25
 37 300 l 25x31
 76 300 l 25
 76 200 l 25
 -38 200 l 25x32
EndSplineSet
EndChar

StartChar: u1F509
Encoding: 128265 128265 298
Width: 412
Flags: HW
HStem: -100 100<244 281> 0 100<168 206> 100 100<94 131> 150 100<394 431> 200 100<-19 18> 400 100<-19 18> 450 100<394 431> 500 100<94 131> 600 100<168 206> 700 100<244 281>
VStem: -94 188<200 300 400 500> -94 75<300 400> 56 112<100 200 500 600> 131 112<0 100 600 700> 206 150<-100 0 700 800> 281 75<0 700> 394 75<150 250 450 550> 431 75<250 450>
LayerCount: 2
Back
Fore
SplineSet
394 550 m 29x120080
 468 550 l 29
 468 450 l 29x120080
 506 450 l 29
 506 250 l 29x120040
 468 250 l 29
 468 150 l 29
 394 150 l 29
 394 250 l 29x120080
 431 250 l 29
 431 450 l 29x120040
 394 450 l 29
 394 550 l 29x120080
94 200 m 25x2120
 168 200 l 25
 168 100 l 25x4808
 244 100 l 25
 244 0 l 25
 281 0 l 25
 281 700 l 25
 244 700 l 25xa045
 244 600 l 25x0085
 168 600 l 25x0088
 168 500 l 25x0108
 94 500 l 25
 94 200 l 25x2120
-19 300 m 25x0c10
 18 300 l 25
 18 400 l 25
 -19 400 l 25
 -19 300 l 25x0c10
-94 200 m 25x0820
 -94 500 l 25x0920
 56 500 l 25x0908
 56 600 l 25x0088
 131 600 l 25
 131 700 l 25x0144
 206 700 l 25x0082
 206 800 l 25
 356 800 l 25
 356 -100 l 25
 206 -100 l 25x8042
 206 0 l 25x4002
 131 0 l 25x4004
 131 100 l 25x2004
 56 100 l 25x2008
 56 200 l 25x0808
 -94 200 l 25x0820
EndSplineSet
EndChar

StartChar: u1F50A
Encoding: 128266 128266 299
Width: 450
Flags: HW
HStem: -100 100<187 225> 0 100<113 150> 50 100<450 487> 100 100<37 75> 150 100<337 375> 200 100<-75 -37> 400 100<-75 -37> 450 100<337 375> 500 100<37 75> 550 100<450 487> 600 100<113 150> 700 100<187 225>
VStem: -150 188<200 300 400 500> -150 75<300 400> 0 112<100 200 500 600> 75 112<0 100 600 700> 150 150<-100 0 700 800> 225 75<0 700> 337 75<150 250 450 550> 375 75<250 450> 450 75<50 150 550 650> 487 75<150 250 450 550> 525 75<250 450>
LayerCount: 2
Back
Fore
SplineSet
450 550 m 29x004008
 450 650 l 25
 525 650 l 25
 525 550 l 25x004008
 563 550 l 25x004004
 563 450 l 25x010004
 600 450 l 25
 600 250 l 25x090002
 563 250 l 25
 563 150 l 25x090004
 525 150 l 25x090008
 525 50 l 25
 450 50 l 25
 450 150 l 25x200008
 487 150 l 25x200004
 487 250 l 25x080004
 525 250 l 25
 525 450 l 25x090002
 487 450 l 25x090004
 487 550 l 25x004004
 450 550 l 29x004008
337 550 m 25x090020
 413 550 l 25x004020
 413 450 l 25x010020
 450 450 l 25
 450 250 l 25x090010
 413 250 l 25
 413 150 l 25
 337 150 l 25
 337 250 l 25x090020
 375 250 l 25
 375 450 l 25x090010
 337 450 l 25
 337 550 l 25x090020
37 200 m 25x1088
 113 200 l 25
 113 100 l 25x4402
 187 100 l 25
 187 0 l 25
 225 0 l 25
 225 700 l 25
 187 700 l 25x901140
 187 600 l 25x002140
 113 600 l 25x0022
 113 500 l 25x0082
 37 500 l 25
 37 200 l 25x1088
-75 300 m 25x0604
 -37 300 l 25
 -37 400 l 25
 -75 400 l 25
 -75 300 l 25x0604
-150 200 m 25x0408
 -150 500 l 25x0488
 0 500 l 25x0482
 0 600 l 25x0022
 75 600 l 25
 75 700 l 25x0091
 150 700 l 25x002080
 150 800 l 25
 300 800 l 25
 300 -100 l 25
 150 -100 l 25x801080
 150 0 l 25x400080
 75 0 l 25x4001
 75 100 l 25x1001
 0 100 l 25x1002
 0 200 l 25x0402
 -150 200 l 25x0408
EndSplineSet
EndChar

StartChar: u1F50B
Encoding: 128267 128267 300
Width: 375
Flags: HW
HStem: -100 100<75.5 299.5> 100 300<75.5 149.5 225.5 299.5>
VStem: -0 150<300 400 500 600> -0 75<0 100 400 500> 226 150<300 400 500 600> 300 75<0 100 400 500>
LayerCount: 2
Back
Fore
SplineSet
150 300 m 25xe0
 226 300 l 25
 226 400 l 25xe8
 300 400 l 25
 300 500 l 25xc4
 226 500 l 25
 226 600 l 25
 150 600 l 25
 150 500 l 25xe8
 76 500 l 25
 76 400 l 25xd0
 150 400 l 25
 150 300 l 25xe0
76 0 m 1xd4
 300 0 l 25
 300 100 l 1
 76 100 l 29
 76 0 l 1xd4
-0 -100 m 25
 -0 700 l 25
 112 700 l 25
 112 800 l 25
 262 800 l 25
 262 700 l 25
 376 700 l 25
 376 -100 l 25
 -0 -100 l 25
EndSplineSet
EndChar

StartChar: u1F50D
Encoding: 128269 128269 301
Width: 381
Flags: HW
HStem: 200 100<96.5 246.5> 700 100<96.5 246.5>
VStem: -16 75<400 600> 22 75<300 400 600 700> 246 75<300 400 600 700> 284 75<400 600> 322 75<-100 0>
LayerCount: 2
Back
Fore
SplineSet
97 300 m 29xd0
 246 300 l 25
 246 400 l 25xd8
 284 400 l 25
 284 600 l 25xc4
 246 600 l 25
 246 700 l 25
 97 700 l 25
 97 600 l 25xd8
 59 600 l 25
 59 400 l 25xe0
 97 400 l 25
 97 300 l 29xd0
-16 400 m 25xe0
 -16 600 l 25xe0
 22 600 l 25
 22 700 l 25xd0
 59 700 l 25
 59 800 l 25
 284 800 l 25
 284 700 l 25xe4
 321 700 l 25
 321 600 l 25xc8
 359 600 l 25
 359 400 l 25xc4
 321 400 l 25xc8
 321 200 l 25xc2
 359 200 l 25
 359 100 l 25xc4
 397 100 l 25
 397 -100 l 25
 321 -100 l 25
 321 0 l 25xc2
 284 0 l 25
 284 100 l 25xc4
 246 100 l 25
 246 200 l 25
 59 200 l 25
 59 300 l 25xe8
 22 300 l 25
 22 400 l 25xd0
 -16 400 l 25xe0
EndSplineSet
EndChar

StartChar: u1F50E
Encoding: 128270 128270 302
Width: 387
Flags: HW
HStem: 200 100<155.5 268.5> 700 100<118.5 268.5>
VStem: 6 75<-100 0 400 600> 44 112<100 200> 44 75<300 400 600 700> 82 225<200 300 700 800> 268 75<300 400 600 700> 306 75<400 600>
LayerCount: 2
Back
Fore
SplineSet
119 300 m 29xc8
 268 300 l 25
 268 400 l 25xca
 306 400 l 25
 306 600 l 25xc1
 268 600 l 25
 268 700 l 25
 119 700 l 25
 119 600 l 25xca
 82 600 l 25
 82 400 l 25xe0
 119 400 l 25
 119 300 l 29xc8
6 400 m 25xe0
 6 600 l 25xe0
 44 600 l 25
 44 700 l 25xc8
 82 700 l 25
 82 800 l 25
 306 800 l 25
 306 700 l 25xc4
 343 700 l 25
 343 600 l 25xc2
 382 600 l 25
 382 400 l 25xc1
 343 400 l 25
 343 300 l 25xc2
 306 300 l 25
 306 200 l 25xc4
 156 200 l 25
 156 100 l 25xd0
 119 100 l 25
 119 0 l 25xc8
 82 0 l 25
 82 -100 l 25
 6 -100 l 25
 6 100 l 25xe0
 44 100 l 25
 44 200 l 25xd0
 82 200 l 25
 82 300 l 25xc4
 44 300 l 25
 44 400 l 25xc8
 6 400 l 25xe0
EndSplineSet
EndChar

StartChar: u1F512
Encoding: 128274 128274 303
Width: 387
Flags: HW
HStem: 0 100<155.5 231.5> 400 100<118.5 268.5> 700 100<118.5 268.5>
VStem: 6 150<100 300> 6 75<500 600> 44 75<600 700> 232 150<100 300> 268 75<600 700> 306 75<500 600>
LayerCount: 2
Back
Fore
SplineSet
306 500 m 25xe880
 306 600 l 25xe880
 268 600 l 25
 268 700 l 25
 119 700 l 25
 119 600 l 25xe5
 82 600 l 25
 82 500 l 25
 306 500 l 25xe880
156 100 m 29xf0
 232 100 l 29
 232 300 l 29xf2
 268 300 l 29
 268 400 l 29
 119 400 l 29
 119 300 l 29xe5
 156 300 l 29
 156 100 l 29xf0
6 0 m 25xe880
 6 600 l 25xe880
 44 600 l 25
 44 700 l 25xe4
 82 700 l 25
 82 800 l 25
 306 800 l 25
 306 700 l 25xe880
 343 700 l 25
 343 600 l 25xe1
 382 600 l 25
 382 0 l 25
 6 0 l 25xe880
EndSplineSet
EndChar

StartChar: u1F513
Encoding: 128275 128275 304
Width: 387
Flags: HW
HStem: 0 100<155.5 231.5> 400 100<118.5 268.5> 600 100<305.5 343.5> 700 100<118.5 268.5>
VStem: 6 150<100 300> 6 75<500 600> 44 75<600 700> 232 150<100 300> 268 112<300 400> 268 75<600 700>
LayerCount: 2
Back
Fore
SplineSet
156 100 m 29xc8
 232 100 l 29
 232 300 l 29xc9
 268 300 l 29
 268 400 l 29
 119 400 l 29
 119 300 l 29xc280
 156 300 l 29
 156 100 l 29xc8
268 600 m 25xe440
 268 700 l 25
 119 700 l 25xd240
 119 600 l 25xe240
 82 600 l 25
 82 500 l 25
 382 500 l 25
 382 0 l 25
 6 0 l 25
 6 600 l 25xe480
 44 600 l 25xe2
 44 700 l 25xd2
 82 700 l 25
 82 800 l 25
 306 800 l 25xd4
 306 700 l 25
 343 700 l 25
 343 600 l 25
 268 600 l 25xe440
EndSplineSet
EndChar

StartChar: u1F514
Encoding: 128276 128276 305
Width: 456
Flags: HW
HStem: -100 100<209 247>
VStem: 134 75<0 100> 172 112<-100 0 700 800> 247 75<0 100>
LayerCount: 2
Back
Fore
SplineSet
209 0 m 29xd0
 247 0 l 25
 247 100 l 25
 209 100 l 25
 209 0 l 29xd0
-16 100 m 25
 -16 300 l 25
 22 300 l 25
 22 500 l 25
 59 500 l 25
 59 600 l 25
 97 600 l 25
 97 700 l 25
 172 700 l 25
 172 800 l 25
 284 800 l 25
 284 700 l 25xa0
 359 700 l 25
 359 600 l 25
 397 600 l 25
 397 500 l 25
 434 500 l 25
 434 300 l 25
 472 300 l 25
 472 100 l 25
 322 100 l 25
 322 0 l 25x90
 284 0 l 25
 284 -100 l 25
 172 -100 l 25
 172 0 l 25xa0
 134 0 l 25
 134 100 l 25
 -16 100 l 25
EndSplineSet
EndChar

StartChar: u1F515
Encoding: 128277 128277 306
Width: 456
Flags: HW
HStem: 0 100<134 172 284 322> 100 100<59 97 209 247 359 397> 200 100<134 172 284 322> 600 200<172 284> 600 100<134 172 284 322>
VStem: -16 75<200 300> 22 75<300 500> 59 75<500 600> 134 75<0 100 200 300> 172 112<100 200 700 800> 247 75<0 100 200 300> 322 75<500 600> 359 75<300 500> 397 75<200 300>
LayerCount: 2
Back
Fore
SplineSet
134 0 m 29x80a0
 134 100 l 25x80a0
 172 100 l 25
 172 200 l 25xa040
 134 200 l 25
 134 300 l 25
 209 300 l 25xa080
 209 200 l 25
 247 200 l 25x40a0
 247 300 l 25
 322 300 l 25
 322 200 l 25x20a0
 284 200 l 25
 284 100 l 25xa040
 322 100 l 25
 322 0 l 25
 247 0 l 25xa020
 247 100 l 25
 209 100 l 25x40a0
 209 0 l 25
 134 0 l 29x80a0
172 700 m 25x2a40
 172 800 l 25
 284 800 l 25x1240
 284 700 l 25
 359 700 l 25
 359 600 l 25x0a48
 397 600 l 25
 397 500 l 25x0810
 434 500 l 25
 434 300 l 25x2808
 472 300 l 25x2804
 472 100 l 25x4004
 359 100 l 25
 359 200 l 25x4008
 397 200 l 25x4004
 397 300 l 25x2004
 359 300 l 25
 359 500 l 25x2008
 322 500 l 25
 322 600 l 25
 134 600 l 25
 134 500 l 25x2910
 97 500 l 25
 97 300 l 25x2a
 59 300 l 25x2c
 59 200 l 25x44
 97 200 l 25
 97 100 l 25x42
 -16 100 l 25x44
 -16 300 l 25x24
 22 300 l 25
 22 500 l 25x22
 59 500 l 25
 59 600 l 25x29
 97 600 l 25
 97 700 l 25
 172 700 l 25x2a40
EndSplineSet
EndChar

StartChar: u1F517
Encoding: 128279 128279 307
Width: 462
Flags: HW
HStem: -100 100<193 456> 200 100<6 119> 400 100<343 456> 700 100<6 269>
VStem: -69 75<300 700> 119 75<0 200> 269 75<500 700> 456 75<0 400>
LayerCount: 2
Back
Fore
SplineSet
343 400 m 29
 343 300 l 25
 306 300 l 25
 306 200 l 25
 193 200 l 25
 193 0 l 25
 456 0 l 25
 456 400 l 25
 343 400 l 29
6 700 m 25
 6 300 l 25
 119 300 l 25
 119 400 l 25
 156 400 l 25
 156 500 l 25
 269 500 l 25
 269 700 l 25
 6 700 l 25
-31 700 m 25
 -31 800 l 25
 306 800 l 25
 306 700 l 25
 343 700 l 25
 343 500 l 25
 493 500 l 25
 493 400 l 25
 531 400 l 25
 531 0 l 25
 493 0 l 25
 493 -100 l 25
 156 -100 l 25
 156 0 l 25
 119 0 l 25
 119 200 l 25
 -31 200 l 25
 -31 300 l 25
 -69 300 l 25
 -69 700 l 25
 -31 700 l 25
EndSplineSet
EndChar

StartChar: u1F51E
Encoding: 128286 128286 308
Width: 375
Flags: HW
HStem: 0 100<149.5 187.5> 100 100<75.5 112.5 225.5 262.5> 200 100<149.5 187.5 299.5 337.5 375.5 412.5> 300 100<75.5 112.5 225.5 262.5> 400 100<149.5 187.5>
VStem: -38 75<0 400> -0 38<400 500> 76 75<100 200 300 400> 112 112<0 100 200 300 400 500> 188 75<100 200 300 400> 300 112<200 300> 338 38<100 200 300 400>
LayerCount: 2
Back
Fore
SplineSet
338 100 m 29x4010
 338 200 l 25x2010
 300 200 l 25
 300 300 l 25x2020
 338 300 l 25
 338 400 l 25
 376 400 l 25
 376 300 l 25x2810
 412 300 l 25
 412 200 l 25x2820
 376 200 l 25x2810
 376 100 l 25
 338 100 l 29x4010
150 300 m 25x2940
 188 300 l 25
 188 400 l 25
 150 400 l 25
 150 300 l 25x2940
150 100 m 25xa140
 188 100 l 25
 188 200 l 25
 150 200 l 25
 150 100 l 25xa140
112 0 m 25x8080
 112 100 l 25x4080
 76 100 l 25
 76 200 l 25x41
 112 200 l 25
 112 300 l 25x5080
 76 300 l 25
 76 400 l 25x51
 112 400 l 25x5080
 112 500 l 25
 226 500 l 25x0880
 226 400 l 25x1080
 263 400 l 25
 263 300 l 25x1040
 226 300 l 25
 226 200 l 25x5080
 263 200 l 25
 263 100 l 25x5040
 226 100 l 25x5080
 226 0 l 25
 112 0 l 25x8080
-38 0 m 25x8c
 -38 400 l 25x8c
 -0 400 l 25
 -0 500 l 25
 37 500 l 25x8a
 37 0 l 25
 -38 0 l 25x8c
EndSplineSet
EndChar

StartChar: u1F520
Encoding: 128288 128288 309
Width: 368
Flags: HW
HStem: -100 100<53 165 278 315> 200 100<53 165 278 315> 400 100<353 390> 600 100<353 390>
VStem: -22 75<0 200 400 500> 15 112<700 800> 90 75<400 500> 203 150<-100 0 200 300 500 600> 203 112<700 800> 203 75<0 200> 315 75<0 200>
LayerCount: 2
Back
Fore
SplineSet
278 0 m 29xf060
 315 0 l 25
 315 200 l 25
 278 200 l 25
 278 0 l 29xf060
203 -100 m 25xf1
 203 300 l 25
 353 300 l 25
 353 200 l 25xf1
 390 200 l 25
 390 0 l 25xf020
 353 0 l 25
 353 -100 l 25
 203 -100 l 25xf1
165 300 m 25xf2
 165 200 l 25
 53 200 l 25
 53 0 l 25
 165 0 l 25
 165 -100 l 25xfa
 15 -100 l 25
 15 0 l 25xf4
 -22 0 l 25
 -22 200 l 25xf8
 15 200 l 25
 15 300 l 25xf4
 165 300 l 25xf2
203 400 m 25xf060
 203 800 l 25
 315 800 l 25
 315 700 l 25xf080
 390 700 l 25
 390 600 l 25xf020
 353 600 l 25
 353 500 l 25xf1
 390 500 l 25
 390 400 l 25
 203 400 l 25xf060
-22 400 m 25xfa
 -22 700 l 25xfa
 15 700 l 25
 15 800 l 25
 128 800 l 25
 128 700 l 25xf4
 165 700 l 25
 165 400 l 25
 90 400 l 25
 90 500 l 25
 53 500 l 25
 53 400 l 25
 -22 400 l 25xfa
EndSplineSet
EndChar

StartChar: u1F521
Encoding: 128289 128289 310
Width: 375
Flags: HW
HStem: -100 100<37.5 149.5 262.5 299.5 375.5 412.5> 0 100<-37.5 -0.5 187.5 225.5> 100 100<37.5 149.5 262.5 299.5> 400 100<37.5 75.5 149.5 187.5 299.5 337.5> 500 100<-37.5 -0.5 375.5 412.5> 600 100<37.5 75.5 299.5 337.5>
VStem: -38 75<0 100 500 600> -0 150<-100 0 100 200 600 700> 76 75<500 600> 188 75<0 100> 226 75<500 600 700 800> 300 75<0 100 200 300> 338 75<500 600>
LayerCount: 2
Back
Fore
SplineSet
263 0 m 29xa050
 300 0 l 25
 300 100 l 25
 263 100 l 25
 263 0 l 29xa050
188 0 m 25x4040
 188 100 l 25x4040
 226 100 l 25x4020
 226 200 l 25x2020
 300 200 l 25
 300 300 l 25
 376 300 l 25
 376 0 l 25xa010
 413 0 l 25
 413 -100 l 25
 226 -100 l 25xa028
 226 0 l 25x4028
 188 0 l 25x4040
37 100 m 25x22
 37 0 l 25xa2
 150 0 l 25
 150 -100 l 25
 -0 -100 l 25xa1
 -0 0 l 25x41
 -38 0 l 25
 -38 100 l 25x42
 -0 100 l 25x41
 -0 200 l 25
 150 200 l 25
 150 100 l 25x21
 37 100 l 25x22
300 500 m 25x1428
 338 500 l 25
 338 600 l 25
 300 600 l 25
 300 500 l 25x1428
226 400 m 25
 226 800 l 25
 300 800 l 25
 300 700 l 25x1420
 376 700 l 25x1410
 376 600 l 25x0810
 413 600 l 25
 413 500 l 25x0808
 376 500 l 25x0810
 376 400 l 25x1010
 226 400 l 25
37 500 m 25x1680
 76 500 l 25
 76 600 l 25
 37 600 l 25
 37 500 l 25x1680
-38 500 m 25x0a
 -38 600 l 25x0a
 -0 600 l 25x09
 -0 700 l 25
 150 700 l 25x05
 150 500 l 25x1480
 188 500 l 25
 188 400 l 25
 -0 400 l 25x1540
 -0 500 l 25x0940
 -38 500 l 25x0a
EndSplineSet
EndChar

